<svg xmlns="http://www.w3.org/2000/svg" version="1.2" viewBox="180 150 470 735">
    <g transform="scale(1.22) translate(90, 120)">
        <path d="M113 138c-1-33 15-74 35-99 9-12 38-38 60-33 21 3 35 18 53 30 12 8 48 5 55 4 14-1 74-12 110 49 20 35 16 75 1 96-19 28-27 26-38 57-9 29 6 50 0 78-3 19-19 50-39 63-9 6-34-3-44-5-19-3-31-12-50-8-23 5-27 45-35 58-6 9-14 16-24 20-9 4-20 7-30 3-16-7-30-19-40-33a87 87 0 0 1-19-58c2-21 21-40 27-61 5-18 10-25-1-67-5-18-20-65-21-94Z"
              style="fill:#ffc800"/>
        <path d="M314 101c19 9 41 27 53 44 25 34 24 96 4 139-8 18-30 33-49 35-26 3-51-12-71 19-6 8-8 19-11 29-11 42-9 109-63 121-7 1-15 3-23 0-39-12-66-47-79-85-8-23-14-58-5-83 12-31 23-31 42-46 6-5 23-11 26-18 24-49-20-107 39-153 24-18 45-16 53-16 18 1 69 8 84 14Z"
              style="fill:none;stroke:#fff;stroke-width:10px"/>
    </g>

    <rect width="195" height="195" fill="#ff791a" transform="translate(305, 540) rotate(45, 50, 50)"/>
    <rect width="50" height="50" fill="#ff791a" transform="translate(421, 489) rotate(45, 50, 50)"/>
    <rect width="60" height="60" fill="#ff791a" transform="translate(217, 819) rotate(45, 50, 50)"/>

    <g transform="scale(2) translate(188, 308) rotate(225, 55, 55)" fill="#ffc800">
        <rect x="6.75" y="6.75" width="6.5" height="6.5" transform="rotate(45 10 10)"/>
        <rect x="16.75" y="6.75" width="6.5" height="6.5" transform="rotate(45 20 10)"/>
        <rect x="26.75" y="6.75" width="6.5" height="6.5" transform="rotate(45 30 10)"/>
        <rect x="36.75" y="6.75" width="6.5" height="6.5" transform="rotate(45 40 10)"/>
        <rect x="46.75" y="6.75" width="6.5" height="6.5" transform="rotate(45 50 10)"/>
        <rect x="56.75" y="6.75" width="6.5" height="6.5" transform="rotate(45 60 10)"/>
        <rect x="66.75" y="6.75" width="6.5" height="6.5" transform="rotate(45 70 10)"/>
        <rect x="76.75" y="6.75" width="6.5" height="6.5" transform="rotate(45 80 10)"/>
        <rect x="86.75" y="6.75" width="6.5" height="6.5" transform="rotate(45 90 10)"/>
        <rect x="96.75" y="6.75" width="6.5" height="6.5" transform="rotate(45 100 10)"/>
        <rect x="6.917" y="16.917" width="6.167" height="6.167" transform="rotate(45 10 20)"/>
        <rect x="16.917" y="16.917" width="6.167" height="6.167" transform="rotate(45 20 20)"/>
        <rect x="26.917" y="16.917" width="6.167" height="6.167" transform="rotate(45 30 20)"/>
        <rect x="36.917" y="16.917" width="6.167" height="6.167" transform="rotate(45 40 20)"/>
        <rect x="46.917" y="16.917" width="6.167" height="6.167" transform="rotate(45 50 20)"/>
        <rect x="56.917" y="16.917" width="6.167" height="6.167" transform="rotate(45 60 20)"/>
        <rect x="66.917" y="16.917" width="6.167" height="6.167" transform="rotate(45 70 20)"/>
        <rect x="76.917" y="16.917" width="6.167" height="6.167" transform="rotate(45 80 20)"/>
        <rect x="86.917" y="16.917" width="6.167" height="6.167" transform="rotate(45 90 20)"/>
        <rect x="96.917" y="16.917" width="6.167" height="6.167" transform="rotate(45 100 20)"/>
        <rect x="7.083" y="27.083" width="5.833" height="5.833" transform="rotate(45 10 30)"/>
        <rect x="17.083" y="27.083" width="5.833" height="5.833" transform="rotate(45 20 30)"/>
        <rect x="27.083" y="27.083" width="5.833" height="5.833" transform="rotate(45 30 30)"/>
        <rect x="37.083" y="27.083" width="5.833" height="5.833" transform="rotate(45 40 30)"/>
        <rect x="47.083" y="27.083" width="5.833" height="5.833" transform="rotate(45 50 30)"/>
        <rect x="57.083" y="27.083" width="5.833" height="5.833" transform="rotate(45 60 30)"/>
        <rect x="67.083" y="27.083" width="5.833" height="5.833" transform="rotate(45 70 30)"/>
        <rect x="77.083" y="27.083" width="5.833" height="5.833" transform="rotate(45 80 30)"/>
        <rect x="87.083" y="27.083" width="5.833" height="5.833" transform="rotate(45 90 30)"/>
        <rect x="97.083" y="27.083" width="5.833" height="5.833" transform="rotate(45 100 30)"/>
        <rect x="7.25" y="37.25" width="5.5" height="5.5" transform="rotate(45 10 40)"/>
        <rect x="17.25" y="37.25" width="5.5" height="5.5" transform="rotate(45 20 40)"/>
        <rect x="27.25" y="37.25" width="5.5" height="5.5" transform="rotate(45 30 40)"/>
        <rect x="37.25" y="37.25" width="5.5" height="5.5" transform="rotate(45 40 40)"/>
        <rect x="47.25" y="37.25" width="5.5" height="5.5" transform="rotate(45 50 40)"/>
        <rect x="57.25" y="37.25" width="5.5" height="5.5" transform="rotate(45 60 40)"/>
        <rect x="67.25" y="37.25" width="5.5" height="5.5" transform="rotate(45 70 40)"/>
        <rect x="77.25" y="37.25" width="5.5" height="5.5" transform="rotate(45 80 40)"/>
        <rect x="87.25" y="37.25" width="5.5" height="5.5" transform="rotate(45 90 40)"/>
        <rect x="97.25" y="37.25" width="5.5" height="5.5" transform="rotate(45 100 40)"/>
        <rect x="7.417" y="47.417" width="5.167" height="5.167" transform="rotate(45 10 50)"/>
        <rect x="17.417" y="47.417" width="5.167" height="5.167" transform="rotate(45 20 50)"/>
        <rect x="27.417" y="47.417" width="5.167" height="5.167" transform="rotate(45 30 50)"/>
        <rect x="37.417" y="47.417" width="5.167" height="5.167" transform="rotate(45 40 50)"/>
        <rect x="47.417" y="47.417" width="5.167" height="5.167" transform="rotate(45 50 50)"/>
        <rect x="57.417" y="47.417" width="5.167" height="5.167" transform="rotate(45 60 50)"/>
        <rect x="67.417" y="47.417" width="5.167" height="5.167" transform="rotate(45 70 50)"/>
        <rect x="77.417" y="47.417" width="5.167" height="5.167" transform="rotate(45 80 50)"/>
        <rect x="87.417" y="47.417" width="5.167" height="5.167" transform="rotate(45 90 50)"/>
        <rect x="97.417" y="47.417" width="5.167" height="5.167" transform="rotate(45 100 50)"/>
        <rect x="7.583" y="57.583" width="4.833" height="4.833" transform="rotate(45 10 60)"/>
        <rect x="17.583" y="57.583" width="4.833" height="4.833" transform="rotate(45 20 60)"/>
        <rect x="27.583" y="57.583" width="4.833" height="4.833" transform="rotate(45 30 60)"/>
        <rect x="37.583" y="57.583" width="4.833" height="4.833" transform="rotate(45 40 60)"/>
        <rect x="47.583" y="57.583" width="4.833" height="4.833" transform="rotate(45 50 60)"/>
        <rect x="57.583" y="57.583" width="4.833" height="4.833" transform="rotate(45 60 60)"/>
        <rect x="67.583" y="57.583" width="4.833" height="4.833" transform="rotate(45 70 60)"/>
        <rect x="77.583" y="57.583" width="4.833" height="4.833" transform="rotate(45 80 60)"/>
        <rect x="87.583" y="57.583" width="4.833" height="4.833" transform="rotate(45 90 60)"/>
        <rect x="97.583" y="57.583" width="4.833" height="4.833" transform="rotate(45 100 60)"/>
        <rect x="7.75" y="67.75" width="4.5" height="4.5" transform="rotate(45 10 70)"/>
        <rect x="17.75" y="67.75" width="4.5" height="4.5" transform="rotate(45 20 70)"/>
        <rect x="27.75" y="67.75" width="4.5" height="4.5" transform="rotate(45 30 70)"/>
        <rect x="37.75" y="67.75" width="4.5" height="4.5" transform="rotate(45 40 70)"/>
        <rect x="47.75" y="67.75" width="4.5" height="4.5" transform="rotate(45 50 70)"/>
        <rect x="57.75" y="67.75" width="4.5" height="4.5" transform="rotate(45 60 70)"/>
        <rect x="67.75" y="67.75" width="4.5" height="4.5" transform="rotate(45 70 70)"/>
        <rect x="77.75" y="67.75" width="4.5" height="4.5" transform="rotate(45 80 70)"/>
        <rect x="87.75" y="67.75" width="4.5" height="4.5" transform="rotate(45 90 70)"/>
        <rect x="97.75" y="67.75" width="4.5" height="4.5" transform="rotate(45 100 70)"/>
        <rect x="7.917" y="77.917" width="4.167" height="4.167" transform="rotate(45 10 80)"/>
        <rect x="17.917" y="77.917" width="4.167" height="4.167" transform="rotate(45 20 80)"/>
        <rect x="27.917" y="77.917" width="4.167" height="4.167" transform="rotate(45 30 80)"/>
        <rect x="37.917" y="77.917" width="4.167" height="4.167" transform="rotate(45 40 80)"/>
        <rect x="47.917" y="77.917" width="4.167" height="4.167" transform="rotate(45 50 80)"/>
        <rect x="57.917" y="77.917" width="4.167" height="4.167" transform="rotate(45 60 80)"/>
        <rect x="67.917" y="77.917" width="4.167" height="4.167" transform="rotate(45 70 80)"/>
        <rect x="77.917" y="77.917" width="4.167" height="4.167" transform="rotate(45 80 80)"/>
        <rect x="87.917" y="77.917" width="4.167" height="4.167" transform="rotate(45 90 80)"/>
        <rect x="97.917" y="77.917" width="4.167" height="4.167" transform="rotate(45 100 80)"/>
        <rect x="8.083" y="88.083" width="3.833" height="3.833" transform="rotate(45 10 90)"/>
        <rect x="18.083" y="88.083" width="3.833" height="3.833" transform="rotate(45 20 90)"/>
        <rect x="28.083" y="88.083" width="3.833" height="3.833" transform="rotate(45 30 90)"/>
        <rect x="38.083" y="88.083" width="3.833" height="3.833" transform="rotate(45 40 90)"/>
        <rect x="48.083" y="88.083" width="3.833" height="3.833" transform="rotate(45 50 90)"/>
        <rect x="58.083" y="88.083" width="3.833" height="3.833" transform="rotate(45 60 90)"/>
        <rect x="68.083" y="88.083" width="3.833" height="3.833" transform="rotate(45 70 90)"/>
        <rect x="78.083" y="88.083" width="3.833" height="3.833" transform="rotate(45 80 90)"/>
        <rect x="88.083" y="88.083" width="3.833" height="3.833" transform="rotate(45 90 90)"/>
        <rect x="98.083" y="88.083" width="3.833" height="3.833" transform="rotate(45 100 90)"/>
        <rect x="8.25" y="98.25" width="3.5" height="3.5" transform="rotate(45 10 100)"/>
        <rect x="18.25" y="98.25" width="3.5" height="3.5" transform="rotate(45 20 100)"/>
        <rect x="28.25" y="98.25" width="3.5" height="3.5" transform="rotate(45 30 100)"/>
        <rect x="38.25" y="98.25" width="3.5" height="3.5" transform="rotate(45 40 100)"/>
        <rect x="48.25" y="98.25" width="3.5" height="3.5" transform="rotate(45 50 100)"/>
        <rect x="58.25" y="98.25" width="3.5" height="3.5" transform="rotate(45 60 100)"/>
        <rect x="68.25" y="98.25" width="3.5" height="3.5" transform="rotate(45 70 100)"/>
        <rect x="78.25" y="98.25" width="3.5" height="3.5" transform="rotate(45 80 100)"/>
        <rect x="88.25" y="98.25" width="3.5" height="3.5" transform="rotate(45 90 100)"/>
        <rect x="98.25" y="98.25" width="3.5" height="3.5" transform="rotate(45 100 100)"/>
    </g>
</svg>