<svg xmlns="http://www.w3.org/2000/svg" viewBox="60 4 380 492">
    <path d="M113 138c-1-33 15-74 35-99 9-12 38-38 60-33 21 3 35 18 53 30 12 8 48 5 55 4 14-1 74-12 110 49 20 35 16 75 1 96-19 28-27 26-38 57-9 29 6 50 0 78-3 19-19 50-39 63-9 6-34-3-44-5-19-3-31-12-50-8-23 5-27 45-35 58-6 9-14 16-24 20-9 4-20 7-30 3-16-7-30-19-40-33a87 87 0 0 1-19-58c2-21 21-40 27-61 5-18 10-25-1-67-5-18-20-65-21-94Z"
          style="fill:#ffc800"/>
    <path d="M314 101c19 9 41 27 53 44 25 34 24 96 4 139-8 18-30 33-49 35-26 3-51-12-71 19-6 8-8 19-11 29-11 42-9 109-63 121-7 1-15 3-23 0-39-12-66-47-79-85-8-23-14-58-5-83 12-31 23-31 42-46 6-5 23-11 26-18 24-49-20-107 39-153 24-18 45-16 53-16 18 1 69 8 84 14Z"
          style="fill:none;stroke:#fff;stroke-width:10px"/>
</svg>