<svg xmlns="http://www.w3.org/2000/svg" version="1.2" viewBox="193 253 400 530">
    <defs>
        <clipPath id="c">
            <path d="M.8.8h374.4v374.5H.8Zm0 0"/>
        </clipPath>
        <clipPath id="b">
            <path d="M0 0h376v376H0z"/>
        </clipPath>
        <clipPath id="e">
            <path d="M193 298h360v486H193Zm0 0"/>
        </clipPath>
        <clipPath id="f">
            <path d="M302 810 158.6 346.5l335.9-104L637.9 706Zm0 0"/>
        </clipPath>
        <clipPath id="g">
            <path d="M302 810 158.6 346.5l335.9-104L637.9 706Zm0 0"/>
        </clipPath>
        <clipPath id="j">
            <path d="M84 56h334v500H84Zm0 0"/>
        </clipPath>
        <clipPath id="k">
            <path d="M1.4 189.2 313 2l256.2 426.8-311.7 187.1Zm0 0"/>
        </clipPath>
        <clipPath id="l">
            <path d="m257.5 615.8 311.7-187.1L313 1.9 1.3 189.1Zm0 0"/>
        </clipPath>
        <clipPath id="m">
            <path d="m258.1 615.5 310.1-186.2L312 2.5 2 188.7Zm0 0"/>
        </clipPath>
        <clipPath id="i">
            <path d="M0 0h571v620H0z"/>
        </clipPath>
        <filter id="d" width="100%" height="100%" x="0%" y="0%" filterUnits="objectBoundingBox">
            <feColorMatrix in="SourceGraphic" values="0 0 0 0 1 0 0 0 0 1 0 0 0 0 1 0 0 0 1 0"/>
        </filter>
    </defs>
    <g mask="url(#a)" transform="translate(217 318)">
        <g clip-path="url(#b)">
            <g clip-path="url(#c)">
                <path fill="#fff"
                      d="M188 .8a189.7 189.7 0 0 0-80 18 189.6 189.6 0 0 0-70.4 57.7A185.6 185.6 0 0 0 1 178.8 189.7 189.7 0 0 0 18.8 268a187.4 187.4 0 0 0 356.4-80A189.5 189.5 0 0 0 353 99.8 189 189 0 0 0 276.2 23 187.2 187.2 0 0 0 188 .8Zm-22.7 280.8-27.1-24L200 188l-61.8-69.5 27-24.1 83.3 93.6Zm0 0"/>
            </g>
        </g>
        <mask id="a">
            <g filter="url(#d)">
                <path fill-opacity=".8" d="M0 0h810v1012.5H0z"/>
            </g>
        </mask>
    </g>
    <g clip-path="url(#e)">
        <g clip-path="url(#f)">
            <g clip-path="url(#g)">
                <path fill="#ff791a" fill-rule="evenodd"
                      d="M199.8 477.4c-7.9-24.8-7.1-48.3-4.4-72a132 132 0 0 1 21.3-58.1 51.8 51.8 0 0 1 52.6-25c10.5 1.2 21 4 31.2 6.8a50 50 0 0 0 30.7 1c10.3-3.7 20.1-8.5 30-13 9.3-4.1 18.2-9.4 27.7-12.6a114.8 114.8 0 0 1 87.4 5.1 102.6 102.6 0 0 1 59.2 71.2 52 52 0 0 1 1 20.1c-1.6 10.8-4 21.6-7.4 31.9-6.8 20.4-9.4 41-5.8 62.2a89 89 0 0 0 10.3 30.1c10.4 18 18.2 37 19.1 58 .8 18-2.5 35.2-10.7 51.4a33.4 33.4 0 0 1-28.6 18.9l-45.8 4.6a74 74 0 0 0-29.2 10.4c-5.5 3.2-9 8-9.5 14.4a144 144 0 0 0 0 18.7c.8 12 1.7 24-1.3 35.7a60.2 60.2 0 0 1-27 39.4 42 42 0 0 1-31.7 5.3 113.7 113.7 0 0 1-76-54 57.2 57.2 0 0 1-7-33.8c.7-10.1 1.8-20.2 3.1-30.3 2.2-16.5 2-32.6-3.8-48.5-4.3-12-11.5-22.1-18.7-32.3-16-22.4-32.3-44.6-48-67.3a133 133 0 0 1-18.7-38.3Zm0 0"/>
            </g>
        </g>
    </g>
    <g mask="url(#h)" transform="translate(140 197)">
        <g clip-path="url(#i)">
            <g clip-path="url(#j)">
                <g clip-path="url(#k)">
                    <g clip-path="url(#l)">
                        <g clip-path="url(#m)">
                            <path fill="#fff"
                                  d="M374 531.7c-24.8 15-60.6 13.4-90.7 5-57.1-16-114.5-61-113.6-116.3.4-24.4 5.6-38.6 9.8-50 10.8-29.5 11-41-56.3-107.7a89.5 89.5 0 0 1 15-139.5 8089 8089 0 0 0 56-35.7A130.2 130.2 0 0 1 360 114c33.8 39.7 49 74 45.1 102-2.8 20.4-15.8 38.5-38.6 53.9-52.5 35.3-24.7 81.1 2.3 125.5 23.4 38.6 47.6 78.4 25.9 115.6a57.8 57.8 0 0 1-20.5 20.6ZM188 77l-4 2.5-52.4 33.5a101.7 101.7 0 0 0-17 158.4c64.7 64.2 61.8 71.9 53.4 94.8-4.2 11.6-10 27.5-10.5 54-1 61.5 61 111 122.6 128.2 56.7 15.8 104.6 3.9 125-31.2 25.4-43.4-2-88.3-26-128-30.2-49.8-46.7-81.7-6-109 26-17.5 40.7-38.4 44-62.3 4.4-32.1-11.3-68.6-48-111.7A142.4 142.4 0 0 0 188 77"/>
                        </g>
                    </g>
                </g>
            </g>
        </g>
        <mask id="h">
            <g filter="url(#d)">
                <path fill-opacity=".7" d="M0 0h810v1012.5H0z"/>
            </g>
        </mask>
    </g>
</svg>