<svg xmlns="http://www.w3.org/2000/svg" xmlns:xlink="http://www.w3.org/1999/xlink" width="1080" zoomAndPan="magnify" viewBox="0 0 810 1012.49997" height="1350" preserveAspectRatio="xMidYMid meet" version="1.2"><defs><clipPath id="5e1b0bfdc8"><path d="M 124 229 L 678 229 L 678 782.867188 L 124 782.867188 Z M 124 229 "/></clipPath><clipPath id="1e31856f32"><path d="M 81.160156 249 L 593 249 L 593 762 L 81.160156 762 Z M 81.160156 249 "/></clipPath></defs><g id="a59dc4f891"><g clip-rule="nonzero" clip-path="url(#5e1b0bfdc8)"><path style=" stroke:none;fill-rule:evenodd;fill:#ffc513;fill-opacity:1;" d="M 416.660156 232.355469 L 129.71875 470.503906 C 126.710938 472.871094 124.992188 476.523438 124.777344 479.964844 C 124.347656 483.617188 125.421875 487.484375 128 490.492188 L 365.9375 777.222656 C 368.296875 780.230469 371.953125 781.949219 375.609375 782.378906 C 379.265625 782.808594 382.917969 781.734375 385.925781 779.15625 L 672.867188 541.21875 C 675.878906 538.640625 677.597656 535.203125 677.8125 531.546875 C 678.242188 527.890625 677.167969 524.238281 674.589844 521.015625 L 436.652344 234.289062 C 434.289062 231.277344 430.632812 229.558594 426.980469 229.128906 C 423.328125 228.917969 419.671875 229.992188 416.660156 232.355469 Z M 416.660156 232.355469 "/></g><g clip-rule="nonzero" clip-path="url(#1e31856f32)"><path style=" stroke:none;fill-rule:nonzero;fill:#ffffff;fill-opacity:1;" d="M 352.828125 258.148438 L 90.601562 475.667969 C 89.527344 476.527344 88.667969 477.601562 88.023438 478.675781 C 87.59375 479.964844 87.164062 481.253906 86.949219 482.542969 C 86.949219 483.835938 86.949219 485.125 87.378906 486.414062 C 87.808594 487.703125 88.453125 488.992188 89.3125 489.851562 L 306.828125 752.292969 C 307.691406 753.367188 308.761719 754.011719 310.050781 754.65625 C 311.125 755.300781 312.417969 755.730469 313.707031 755.945312 C 314.996094 755.945312 316.503906 755.730469 317.792969 755.515625 C 318.867188 755.085938 320.15625 754.441406 321.230469 753.582031 L 583.457031 535.847656 C 584.527344 534.988281 585.390625 533.914062 586.035156 532.839844 C 586.460938 531.765625 586.894531 530.476562 587.109375 529.183594 C 587.109375 527.679688 587.109375 526.390625 586.679688 525.097656 C 586.25 523.808594 585.605469 522.734375 584.746094 521.660156 L 367.226562 259.4375 C 366.367188 258.363281 365.292969 257.5 364.21875 256.855469 C 362.929688 256.210938 361.640625 255.785156 360.347656 255.785156 C 359.058594 255.566406 357.554688 255.785156 356.265625 256.210938 C 355.1875 256.644531 353.898438 257.074219 352.828125 258.148438 Z M 86.949219 471.152344 L 349.175781 253.636719 C 350.890625 252.132812 352.613281 251.269531 354.546875 250.625 C 356.699219 249.980469 358.847656 249.765625 360.78125 249.980469 C 362.929688 250.199219 364.863281 250.84375 366.800781 251.699219 C 368.515625 252.773438 370.238281 254.066406 371.527344 255.785156 L 589.261719 518.007812 C 590.550781 519.511719 591.625 521.449219 592.269531 523.382812 C 592.699219 525.53125 592.914062 527.464844 592.914062 529.613281 C 592.699219 531.765625 592.054688 533.699219 590.980469 535.632812 C 590.121094 537.351562 588.832031 539.074219 587.113281 540.363281 L 324.890625 758.09375 C 323.171875 759.382812 321.449219 760.457031 319.515625 760.890625 C 317.367188 761.535156 315.214844 761.75 313.28125 761.535156 C 311.132812 761.316406 309.199219 760.890625 307.265625 759.816406 C 305.546875 758.953125 303.824219 757.664062 302.535156 755.949219 L 84.804688 493.722656 C 83.511719 492.003906 82.4375 490.066406 81.792969 488.132812 C 81.363281 486.199219 81.148438 484.050781 81.148438 481.898438 C 81.363281 479.964844 82.007812 477.816406 83.082031 476.097656 C 83.9375 474.160156 85.230469 472.65625 86.949219 471.152344 Z M 86.949219 471.152344 "/></g><path style=" stroke:none;fill-rule:evenodd;fill:#ffffff;fill-opacity:1;" d="M 583.667969 314.894531 L 607.527344 343.480469 L 549.496094 343.265625 Z M 621.496094 360.675781 L 637.1875 379.371094 L 506.503906 378.726562 L 529.074219 360.242188 Z M 651.160156 396.570312 L 668.140625 416.988281 L 461.367188 416.128906 L 486.085938 395.707031 Z M 682.324219 434.183594 L 698.445312 453.523438 L 417.738281 452.234375 L 440.953125 432.894531 Z M 712.628906 470.722656 L 728.75 490.28125 L 373.890625 488.5625 L 397.316406 469.003906 Z M 742.9375 507.261719 L 758.628906 526.390625 L 359.488281 524.457031 L 347.664062 510.273438 L 353.46875 505.328125 Z M 772.8125 543.585938 L 777.96875 549.820312 L 762.925781 562.285156 L 389.148438 560.351562 L 373.671875 541.652344 Z M 742.507812 579.050781 L 718.003906 599.472656 L 420.316406 597.964844 L 403.335938 577.546875 Z M 697.585938 616.234375 L 674.160156 635.578125 L 450.410156 634.503906 L 434.289062 614.945312 Z M 653.738281 652.558594 L 630.308594 671.902344 L 480.710938 671.042969 L 464.59375 651.484375 Z M 609.890625 688.671875 L 586.675781 708.011719 L 510.800781 707.585938 L 494.898438 688.242188 Z M 566.257812 724.777344 L 541.753906 744.980469 L 524.992188 724.5625 Z M 566.257812 724.777344 "/></g></svg>