<svg xmlns="http://www.w3.org/2000/svg" viewBox="150 190 505 635" version="1.2">
    <defs>
        <clipPath id="4cdbf0f6e2">
            <path d="M 153 232 L 651 232 L 651 730 L 153 730 Z M 153 232 "/>
        </clipPath>
        <clipPath id="5f6269ddcb">
            <path d="M 615.707031 167.589844 L 687.226562 787.921875 L 194.238281 844.757812 L 122.71875 224.425781 Z M 615.707031 167.589844 "/>
        </clipPath>
        <clipPath id="8f5535b38e">
            <path d="M 615.707031 167.589844 L 687.226562 787.921875 L 194.238281 844.757812 L 122.71875 224.425781 Z M 615.707031 167.589844 "/>
        </clipPath>
        <clipPath id="c0b63b218c">
            <path d="M 165 193 L 626 193 L 626 654 L 165 654 Z M 165 193 "/>
        </clipPath>
        <clipPath id="cc5fa18c35">
            <path d="M 615.707031 167.589844 L 687.226562 787.921875 L 194.238281 844.757812 L 122.71875 224.425781 Z M 615.707031 167.589844 "/>
        </clipPath>
        <clipPath id="66ffddd661">
            <path d="M 615.707031 167.589844 L 687.226562 787.921875 L 194.238281 844.757812 L 122.71875 224.425781 Z M 615.707031 167.589844 "/>
        </clipPath>
        <clipPath id="d1849168b8">
            <path d="M 203 433 L 591 433 L 591 821 L 203 821 Z M 203 433 "/>
        </clipPath>
        <clipPath id="5398c5428f">
            <path d="M 615.707031 167.589844 L 687.226562 787.921875 L 194.238281 844.757812 L 122.71875 224.425781 Z M 615.707031 167.589844 "/>
        </clipPath>
        <clipPath id="abc17deaec">
            <path d="M 615.707031 167.589844 L 687.226562 787.921875 L 194.238281 844.757812 L 122.71875 224.425781 Z M 615.707031 167.589844 "/>
        </clipPath>
    </defs>
    <g id="6ee7cd5481">
        <g clip-rule="nonzero" clip-path="url(#4cdbf0f6e2)">
            <g clip-rule="nonzero" clip-path="url(#5f6269ddcb)">
                <g clip-rule="nonzero" clip-path="url(#8f5535b38e)">
                    <path style=" stroke:none;fill-rule:evenodd;fill:#ff791a;fill-opacity:1;"
                          d="M 647.042969 466.453125 L 405.714844 235.578125 C 403.300781 233.144531 399.875 231.988281 396.792969 232.152344 C 393.496094 232.144531 390.164062 233.496094 387.753906 236.097656 L 157.046875 477.214844 C 154.613281 479.625 153.457031 483.054688 153.453125 486.347656 C 153.445312 489.644531 154.773438 492.785156 157.378906 495.199219 L 398.515625 726.09375 C 401.117188 728.507812 404.355469 729.683594 407.628906 729.5 C 410.925781 729.507812 414.0625 728.179688 416.667969 725.554688 L 647.375 484.4375 C 649.808594 482.027344 650.964844 478.597656 650.96875 475.304688 C 650.785156 472.03125 649.453125 468.890625 647.042969 466.453125 Z M 647.042969 466.453125 "/>
                </g>
            </g>
        </g>
        <g clip-rule="nonzero" clip-path="url(#c0b63b218c)">
            <g clip-rule="nonzero" clip-path="url(#cc5fa18c35)">
                <g clip-rule="nonzero" clip-path="url(#66ffddd661)">
                    <path style=" stroke:none;fill-rule:nonzero;fill:#ffc800;fill-opacity:1;"
                          d="M 617.542969 412.304688 L 397.109375 201.304688 C 396.234375 200.4375 395.191406 199.78125 394.167969 199.320312 C 392.976562 199.070312 391.785156 198.816406 390.617188 198.761719 C 389.46875 198.890625 388.320312 199.023438 387.21875 199.539062 C 386.117188 200.050781 385.035156 200.757812 384.355469 201.613281 L 173.167969 422.066406 C 172.300781 422.941406 171.835938 423.964844 171.394531 425.175781 C 170.929688 426.199219 170.683594 427.390625 170.621094 428.5625 C 170.753906 429.710938 171.101562 431.027344 171.421875 432.152344 C 171.914062 433.0625 172.621094 434.144531 173.496094 435.011719 L 394.121094 645.988281 C 394.996094 646.855469 396.039062 647.511719 397.0625 647.976562 C 398.0625 648.246094 399.253906 648.5 400.425781 648.554688 C 401.765625 648.402344 402.914062 648.269531 404.015625 647.753906 C 405.121094 647.242188 406.011719 646.558594 406.878906 645.679688 L 617.875 425.25 C 618.742188 424.371094 619.398438 423.328125 619.863281 422.304688 C 620.304688 421.09375 620.554688 419.902344 620.421875 418.753906 C 620.480469 417.585938 620.132812 416.265625 619.621094 415.164062 C 619.125 414.25 618.609375 413.148438 617.542969 412.304688 Z M 400.75 197.589844 L 621.183594 408.589844 C 622.699219 409.964844 623.640625 411.40625 624.414062 413.0625 C 625.207031 414.910156 625.621094 416.800781 625.628906 418.542969 C 625.65625 420.476562 625.28125 422.265625 624.714844 424.074219 C 623.9375 425.710938 622.964844 427.375 621.566406 428.699219 L 410.589844 649.324219 C 409.382812 650.625 407.773438 651.78125 406.117188 652.554688 C 404.25 653.15625 402.550781 653.546875 400.636719 653.769531 C 398.703125 653.796875 396.917969 653.421875 395.085938 652.664062 C 393.46875 652.074219 391.804688 651.105469 390.480469 649.707031 L 169.855469 438.730469 C 168.53125 437.335938 167.402344 435.914062 166.820312 434.238281 C 166.023438 432.390625 165.613281 430.5 165.605469 428.757812 C 165.578125 426.820312 165.761719 425.054688 166.515625 423.226562 C 167.105469 421.609375 168.078125 419.945312 169.472656 418.621094 L 380.449219 197.996094 C 381.847656 196.671875 383.460938 195.515625 385.113281 194.746094 C 386.792969 194.164062 388.683594 193.753906 390.59375 193.53125 C 392.335938 193.527344 394.316406 193.878906 395.957031 194.65625 C 397.765625 195.222656 399.238281 196.214844 400.75 197.589844 Z M 400.75 197.589844 "/>
                </g>
            </g>
        </g>
        <g clip-rule="nonzero" clip-path="url(#d1849168b8)">
            <g clip-rule="nonzero" clip-path="url(#5398c5428f)">
                <g clip-rule="nonzero" clip-path="url(#abc17deaec)">
                    <path style=" stroke:none;fill-rule:evenodd;fill:#ffc800;fill-opacity:1;"
                          d="M 590.738281 623.511719 L 567.75 647.675781 L 561.988281 596.019531 Z M 553.882812 661.867188 L 538.855469 677.746094 L 526.023438 561.40625 L 544.789062 579.589844 Z M 524.988281 691.941406 L 508.5625 709.144531 L 488.117188 525.082031 L 508.820312 544.980469 Z M 494.71875 723.527344 L 479.164062 739.855469 L 451.515625 489.964844 L 471.109375 508.636719 Z M 465.320312 754.242188 L 449.570312 770.589844 L 414.695312 454.679688 L 434.503906 473.519531 Z M 435.917969 784.953125 L 420.503906 800.878906 L 381.28125 445.550781 L 392.691406 433.574219 L 397.683594 438.230469 Z M 406.664062 815.261719 L 401.644531 820.492188 L 389.007812 808.382812 L 352.386719 475.617188 L 367.4375 459.933594 Z M 371.996094 791.9375 L 351.316406 772.230469 L 322.117188 507.210938 L 338.542969 490.007812 Z M 334.304688 755.785156 L 314.691406 736.921875 L 292.695312 537.734375 L 308.445312 521.382812 Z M 297.488281 720.496094 L 277.875 701.632812 L 263.292969 568.441406 L 279.042969 552.09375 Z M 260.863281 685.1875 L 241.269531 666.515625 L 233.867188 598.964844 L 249.445312 582.828125 Z M 224.257812 650.070312 L 203.769531 630.339844 L 220.21875 613.328125 Z M 224.257812 650.070312 "/>
                </g>
            </g>
        </g>
    </g>
</svg>