<svg xmlns="http://www.w3.org/2000/svg" version="1.2" viewBox="193 81 424 837">
    <defs>
        <clipPath id="a">
            <path d="M202 85h406v828H202Zm0 0"/>
        </clipPath>
        <clipPath id="b">
            <path d="M551 85H259c-31 0-57 26-57 57v714c0 32 26 57 57 57h292c31 0 57-25 57-57V142c0-31-26-57-57-57Zm-97 26c3 0 5 3 5 5 0 3-2 6-5 6s-5-3-5-6c0-2 2-5 5-5Zm-76 2h49c2 0 4 1 4 3s-2 4-4 4h-49c-2 0-3-2-3-4s1-3 3-3Zm209 746c0 19-15 34-34 34H257c-18 0-34-15-34-34V140c0-19 16-34 34-34h44v9c0 11 9 19 19 19h170c10 0 19-8 19-19v-9h44c19 0 34 15 34 34v719Zm0 0"/>
        </clipPath>
        <clipPath id="c">
            <path d="M374 112h57v8h-57Zm0 0"/>
        </clipPath>
        <clipPath id="d">
            <path d="M427 113h-49c-2 0-3 1-3 3s1 4 3 4h49c2 0 4-2 4-4s-2-3-4-3Zm0 0"/>
        </clipPath>
        <clipPath id="e">
            <path d="M448 111h11v11h-11Zm0 0"/>
        </clipPath>
        <clipPath id="f">
            <path d="M454 111a5 5 0 1 0 0 11 5 5 0 0 0 0-11Zm0 0"/>
        </clipPath>
        <clipPath id="g">
            <path d="M194 192h5v34h-5Zm0 0"/>
        </clipPath>
        <clipPath id="h">
            <path d="M194 196v26c0 2 2 4 4 4v-34c-2 0-4 1-4 4Zm0 0"/>
        </clipPath>
        <clipPath id="i">
            <path d="M194 251h5v63h-5Zm0 0"/>
        </clipPath>
        <clipPath id="j">
            <path d="M194 256v53c0 3 2 5 4 5v-62c-2 0-4 2-4 4Zm0 0"/>
        </clipPath>
        <clipPath id="k">
            <path d="M194 327h5v63h-5Zm0 0"/>
        </clipPath>
        <clipPath id="l">
            <path d="M194 332v53c0 3 2 5 4 5v-63c-2 0-4 2-4 5Zm0 0"/>
        </clipPath>
        <clipPath id="m">
            <path d="M611 272h5v101h-5Zm0 0"/>
        </clipPath>
        <clipPath id="n">
            <path d="M612 272v100c2 0 4-2 4-4v-91c0-3-2-5-4-5Zm0 0"/>
        </clipPath>
        <clipPath id="o">
            <path d="M198 81h414v837H198Zm0 0"/>
        </clipPath>
        <clipPath id="p">
            <path d="M612 272V142a60 60 0 0 0-12-36 91 91 0 0 0-10-11c-11-9-24-14-39-14H259c-14 0-28 5-39 14l-4 4-6 7-3 4a64 64 0 0 0-8 20l-1 12v714c0 34 28 61 61 61h292c33 0 61-27 61-61Zm-4 0v584c0 32-26 58-57 58H259c-31 0-57-26-57-58V142c0-31 26-57 57-57h292c31 0 57 26 57 57Zm0 0"/>
        </clipPath>
    </defs>
    <g clip-path="url(#a)">
        <g clip-path="url(#b)">
            <path d="M194 81h422v837H194Zm0 0" style="stroke:none;fill-rule:nonzero;fill:#000;fill-opacity:1"/>
        </g>
    </g>
    <g clip-path="url(#c)">
        <g clip-path="url(#d)">
            <path d="M194 81h422v837H194Zm0 0" style="stroke:none;fill-rule:nonzero;fill:#606060;fill-opacity:1"/>
        </g>
    </g>
    <g clip-path="url(#e)">
        <g clip-path="url(#f)">
            <path d="M194 81h422v837H194Zm0 0" style="stroke:none;fill-rule:nonzero;fill:#606060;fill-opacity:1"/>
        </g>
    </g>
    <g clip-path="url(#g)">
        <g clip-path="url(#h)">
            <path d="M194 81h422v837H194Zm0 0" style="stroke:none;fill-rule:nonzero;fill:#b8b8b8;fill-opacity:1"/>
        </g>
    </g>
    <g clip-path="url(#i)">
        <g clip-path="url(#j)">
            <path d="M194 81h422v837H194Zm0 0" style="stroke:none;fill-rule:nonzero;fill:#b8b8b8;fill-opacity:1"/>
        </g>
    </g>
    <g clip-path="url(#k)">
        <g clip-path="url(#l)">
            <path d="M194 81h422v837H194Zm0 0" style="stroke:none;fill-rule:nonzero;fill:#b8b8b8;fill-opacity:1"/>
        </g>
    </g>
    <g clip-path="url(#m)">
        <g clip-path="url(#n)">
            <path d="M194 81h422v837H194Zm0 0" style="stroke:none;fill-rule:nonzero;fill:#b8b8b8;fill-opacity:1"/>
        </g>
    </g>
    <g clip-path="url(#o)">
        <g clip-path="url(#p)">
            <path d="M194 81h422v837H194Zm0 0" style="stroke:none;fill-rule:nonzero;fill:#e9e9e9;fill-opacity:1"/>
        </g>
    </g>
</svg>