<svg xmlns="http://www.w3.org/2000/svg" viewBox="193 81 424 837" version="1.2">
    <defs>
        <clipPath id="5a53d6887a">
            <path d="M 202 85 L 608 85 L 608 913.496094 L 202 913.496094 Z M 202 85 "/>
        </clipPath>
        <clipPath id="d79a55fc58">
            <path d="M 550.640625 85.058594 L 259.359375 85.058594 C 227.792969 85.058594 202.171875 110.683594 202.171875 142.25 L 202.171875 856.199219 C 202.171875 887.765625 227.792969 913.390625 259.359375 913.390625 L 550.640625 913.390625 C 582.207031 913.390625 607.828125 887.765625 607.828125 856.199219 L 607.828125 142.25 C 607.828125 110.683594 582.207031 85.058594 550.640625 85.058594 Z M 453.683594 111.296875 C 456.554688 111.296875 458.808594 113.550781 458.808594 116.421875 C 458.808594 119.292969 456.554688 121.546875 453.683594 121.546875 C 450.8125 121.546875 448.558594 119.292969 448.558594 116.421875 C 448.558594 113.550781 451.019531 111.296875 453.683594 111.296875 Z M 378.046875 112.9375 L 427.242188 112.9375 C 429.085938 112.9375 430.726562 114.371094 430.726562 116.421875 C 430.726562 118.472656 429.085938 119.90625 427.242188 119.90625 L 378.046875 119.90625 C 376.199219 119.90625 374.558594 118.472656 374.558594 116.421875 C 374.558594 114.371094 376.199219 112.9375 378.046875 112.9375 Z M 586.921875 859.480469 C 586.921875 878.132812 571.753906 893.300781 553.097656 893.300781 L 257.3125 893.300781 C 238.65625 893.300781 223.488281 878.132812 223.488281 859.480469 L 223.488281 139.996094 C 223.488281 121.339844 238.65625 106.171875 257.3125 106.171875 L 301.382812 106.171875 L 301.382812 115.398438 C 301.382812 125.851562 309.992188 134.460938 320.445312 134.460938 L 489.964844 134.460938 C 500.417969 134.460938 509.027344 125.851562 509.027344 115.398438 L 509.027344 106.171875 L 552.894531 106.171875 C 571.546875 106.171875 586.714844 121.339844 586.714844 139.996094 L 586.714844 859.480469 Z M 586.921875 859.480469 "/>
        </clipPath>
        <clipPath id="17501ce2c5">
            <path d="M 223.296875 106 L 587 106 L 587 893.675781 L 223.296875 893.675781 Z M 223.296875 106 "/>
        </clipPath>
        <clipPath id="7ffc1dd9e9">
            <path d="M 552.894531 106.171875 L 509.027344 106.171875 L 509.027344 115.398438 C 509.027344 125.851562 500.417969 134.460938 489.964844 134.460938 L 320.648438 134.460938 C 310.195312 134.460938 301.585938 125.851562 301.585938 115.398438 L 301.585938 106.171875 L 257.3125 106.171875 C 238.65625 106.171875 223.488281 121.339844 223.488281 139.996094 L 223.488281 859.480469 C 223.488281 878.132812 238.65625 893.300781 257.3125 893.300781 L 552.894531 893.300781 C 571.546875 893.300781 586.714844 878.132812 586.714844 859.480469 L 586.714844 139.996094 C 586.921875 121.339844 571.753906 106.171875 552.894531 106.171875 Z M 552.894531 106.171875 "/>
        </clipPath>
        <clipPath id="95ac0ef2b5">
            <path d="M 374 112.34375 L 431 112.34375 L 431 120 L 374 120 Z M 374 112.34375 "/>
        </clipPath>
        <clipPath id="c6e855b71c">
            <path d="M 427.242188 112.9375 L 378.046875 112.9375 C 376.199219 112.9375 374.558594 114.371094 374.558594 116.421875 C 374.558594 118.472656 376.199219 119.90625 378.046875 119.90625 L 427.242188 119.90625 C 429.085938 119.90625 430.726562 118.472656 430.726562 116.421875 C 430.726562 114.371094 429.085938 112.9375 427.242188 112.9375 Z M 427.242188 112.9375 "/>
        </clipPath>
        <clipPath id="9bae9eff9d">
            <path d="M 448 111 L 459 111 L 459 122 L 448 122 Z M 448 111 "/>
        </clipPath>
        <clipPath id="373a043b6e">
            <path d="M 453.683594 111.296875 C 450.851562 111.296875 448.558594 113.589844 448.558594 116.421875 C 448.558594 119.253906 450.851562 121.546875 453.683594 121.546875 C 456.511719 121.546875 458.808594 119.253906 458.808594 116.421875 C 458.808594 113.589844 456.511719 111.296875 453.683594 111.296875 Z M 453.683594 111.296875 "/>
        </clipPath>
        <clipPath id="877e3720f4">
            <path d="M 193.5625 191.632812 L 198.515625 191.632812 L 198.515625 226.324219 L 193.5625 226.324219 Z M 193.5625 191.632812 "/>
        </clipPath>
        <clipPath id="f2bdb273fc">
            <path d="M 193.5625 195.953125 L 193.5625 221.578125 C 193.5625 224.035156 195.613281 226.085938 198.070312 226.085938 L 198.070312 191.648438 C 195.613281 191.648438 193.5625 193.496094 193.5625 195.953125 Z M 193.5625 195.953125 "/>
        </clipPath>
        <clipPath id="d6b4cfe65f">
            <path d="M 193.5625 251.101562 L 198.515625 251.101562 L 198.515625 313.871094 L 193.5625 313.871094 Z M 193.5625 251.101562 "/>
        </clipPath>
        <clipPath id="37e8ef00b4">
            <path d="M 193.5625 256.015625 L 193.5625 309.308594 C 193.5625 311.769531 195.613281 313.820312 198.070312 313.820312 L 198.070312 251.710938 C 195.613281 251.710938 193.5625 253.554688 193.5625 256.015625 Z M 193.5625 256.015625 "/>
        </clipPath>
        <clipPath id="08ae6f9b84">
            <path d="M 193.5625 327.085938 L 198.515625 327.085938 L 198.515625 389.859375 L 193.5625 389.859375 Z M 193.5625 327.085938 "/>
        </clipPath>
        <clipPath id="3d428c5a27">
            <path d="M 193.5625 331.855469 L 193.5625 385.152344 C 193.5625 387.613281 195.613281 389.660156 198.070312 389.660156 L 198.070312 327.347656 C 195.613281 327.347656 193.5625 329.398438 193.5625 331.855469 Z M 193.5625 331.855469 "/>
        </clipPath>
        <clipPath id="54668c5611">
            <path d="M 611.484375 272 L 616.4375 272 L 616.4375 373 L 611.484375 373 Z M 611.484375 272 "/>
        </clipPath>
        <clipPath id="b6e23cc1d5">
            <path d="M 611.929688 272.207031 L 611.929688 372.035156 C 614.386719 372.035156 616.4375 369.984375 616.4375 367.523438 L 616.4375 276.71875 C 616.4375 274.257812 614.386719 272.207031 611.929688 272.207031 Z M 611.929688 272.207031 "/>
        </clipPath>
        <clipPath id="bab8e569f5">
            <path d="M 198 80.960938 L 612 80.960938 L 612 918 L 198 918 Z M 198 80.960938 "/>
        </clipPath>
        <clipPath id="1aca870cb9">
            <path d="M 611.929688 272.207031 L 611.929688 142.25 C 611.929688 137.945312 611.519531 133.84375 610.699219 129.949219 C 610.289062 127.902344 609.878906 126.054688 609.265625 124.007812 C 608.445312 121.136719 607.214844 118.265625 605.984375 115.601562 C 605.164062 113.757812 604.140625 112.117188 603.113281 110.476562 C 602.089844 108.835938 601.066406 107.199219 599.835938 105.558594 C 597.988281 103.097656 596.144531 101.046875 594.09375 98.792969 C 592.660156 97.359375 591.226562 96.128906 589.789062 94.898438 C 579.132812 86.085938 565.601562 80.960938 550.84375 80.960938 L 259.359375 80.960938 C 244.601562 80.960938 230.867188 86.289062 220.414062 94.898438 C 218.980469 96.128906 217.542969 97.5625 216.109375 98.792969 C 214.058594 100.84375 212.011719 103.097656 210.371094 105.558594 C 209.140625 107.199219 208.117188 108.835938 207.089844 110.476562 C 206.066406 112.117188 205.039062 113.960938 204.222656 115.601562 C 202.785156 118.472656 201.761719 121.136719 200.734375 124.007812 C 200.121094 126.054688 199.710938 127.902344 199.300781 129.949219 C 198.480469 133.84375 198.070312 138.148438 198.070312 142.25 L 198.070312 856.199219 C 198.070312 890.019531 225.539062 917.488281 259.359375 917.488281 L 550.640625 917.488281 C 584.460938 917.488281 611.929688 890.019531 611.929688 856.199219 Z M 607.828125 272.207031 L 607.828125 856.402344 C 607.828125 887.972656 582.207031 913.59375 550.640625 913.59375 L 259.359375 913.59375 C 227.792969 913.59375 202.171875 887.972656 202.171875 856.402344 L 202.171875 142.453125 C 202.171875 110.683594 227.792969 85.058594 259.359375 85.058594 L 550.640625 85.058594 C 582.207031 85.058594 607.828125 110.683594 607.828125 142.25 Z M 607.828125 272.207031 "/>
        </clipPath>
    </defs>
    <g id="af848c6b71">
        <g clip-rule="nonzero" clip-path="url(#5a53d6887a)">
            <g clip-rule="nonzero" clip-path="url(#d79a55fc58)">
                <path style=" stroke:none;fill-rule:nonzero;fill:#000000;fill-opacity:1;"
                      d="M 193.5625 80.960938 L 616.4375 80.960938 L 616.4375 918.453125 L 193.5625 918.453125 Z M 193.5625 80.960938 "/>
            </g>
        </g>
        <g clip-rule="nonzero" clip-path="url(#95ac0ef2b5)">
            <g clip-rule="nonzero" clip-path="url(#c6e855b71c)">
                <path style=" stroke:none;fill-rule:nonzero;fill:#606060;fill-opacity:1;"
                      d="M 193.5625 80.960938 L 616.4375 80.960938 L 616.4375 918.453125 L 193.5625 918.453125 Z M 193.5625 80.960938 "/>
            </g>
        </g>
        <g clip-rule="nonzero" clip-path="url(#9bae9eff9d)">
            <g clip-rule="nonzero" clip-path="url(#373a043b6e)">
                <path style=" stroke:none;fill-rule:nonzero;fill:#606060;fill-opacity:1;"
                      d="M 193.5625 80.960938 L 616.4375 80.960938 L 616.4375 918.453125 L 193.5625 918.453125 Z M 193.5625 80.960938 "/>
            </g>
        </g>
        <g clip-rule="nonzero" clip-path="url(#877e3720f4)">
            <g clip-rule="nonzero" clip-path="url(#f2bdb273fc)">
                <path style=" stroke:none;fill-rule:nonzero;fill:#b8b8b8;fill-opacity:1;"
                      d="M 193.5625 80.960938 L 616.4375 80.960938 L 616.4375 918.453125 L 193.5625 918.453125 Z M 193.5625 80.960938 "/>
            </g>
        </g>
        <g clip-rule="nonzero" clip-path="url(#d6b4cfe65f)">
            <g clip-rule="nonzero" clip-path="url(#37e8ef00b4)">
                <path style=" stroke:none;fill-rule:nonzero;fill:#b8b8b8;fill-opacity:1;"
                      d="M 193.5625 80.960938 L 616.4375 80.960938 L 616.4375 918.453125 L 193.5625 918.453125 Z M 193.5625 80.960938 "/>
            </g>
        </g>
        <g clip-rule="nonzero" clip-path="url(#08ae6f9b84)">
            <g clip-rule="nonzero" clip-path="url(#3d428c5a27)">
                <path style=" stroke:none;fill-rule:nonzero;fill:#b8b8b8;fill-opacity:1;"
                      d="M 193.5625 80.960938 L 616.4375 80.960938 L 616.4375 918.453125 L 193.5625 918.453125 Z M 193.5625 80.960938 "/>
            </g>
        </g>
        <g clip-rule="nonzero" clip-path="url(#54668c5611)">
            <g clip-rule="nonzero" clip-path="url(#b6e23cc1d5)">
                <path style=" stroke:none;fill-rule:nonzero;fill:#b8b8b8;fill-opacity:1;"
                      d="M 193.5625 80.960938 L 616.4375 80.960938 L 616.4375 918.453125 L 193.5625 918.453125 Z M 193.5625 80.960938 "/>
            </g>
        </g>
        <g clip-rule="nonzero" clip-path="url(#bab8e569f5)">
            <g clip-rule="nonzero" clip-path="url(#1aca870cb9)">
                <path style=" stroke:none;fill-rule:nonzero;fill:#e9e9e9;fill-opacity:1;"
                      d="M 193.5625 80.960938 L 616.4375 80.960938 L 616.4375 918.453125 L 193.5625 918.453125 Z M 193.5625 80.960938 "/>
            </g>
        </g>
    </g>
</svg>