<svg fill="#000000" version="1.1" xmlns="http://www.w3.org/2000/svg" viewBox="0 38 331 275">
    <g>
        <path
              d="M 68.444 59.962 C 82.773 45.588 108.431 33.281 129.048 41.715 C 144.876 48.19 149.34 53.858 149.158 70.2 C 148.976 86.553 136.083 89.997 133.091 90.939 C 124.044 93.787 114.187 95.497 106.491 101.04 C 92.114 111.395 67.687 132.024 71.811 154.912 C 77.39 185.876 120.728 161.8 136.121 182.522 C 141.709 190.044 144.162 199.811 145.212 209.122 C 147.694 231.138 145.234 283.717 128.04 302.052 C 121.474 309.053 98.961 312.573 88.983 312.489 C 64.718 312.285 21.919 312.348 11.878 290.94 C -1.505 262.406 -1.578 226.21 2.45 198.347 C 8.245 158.268 21.146 107.407 68.444 59.962 Z"/>
        <path
              d="M 249.322 59.962 C 263.651 45.588 289.309 33.281 309.926 41.715 C 325.754 48.19 330.218 53.858 330.036 70.2 C 329.854 86.553 316.961 89.997 313.969 90.939 C 304.922 93.787 295.065 95.497 287.369 101.04 C 272.992 111.395 248.565 132.024 252.689 154.912 C 258.268 185.876 301.606 161.8 316.999 182.522 C 322.587 190.044 325.04 199.811 326.09 209.122 C 328.572 231.138 326.112 283.717 308.918 302.052 C 302.352 309.053 279.839 312.573 269.861 312.489 C 245.596 312.285 202.797 312.348 192.756 290.94 C 179.373 262.406 179.3 226.21 183.328 198.347 C 189.123 158.268 202.024 107.407 249.322 59.962 Z"/>
    </g>
</svg>