<?xml version="1.0" encoding="utf-8"?>
<svg xmlns="http://www.w3.org/2000/svg" version="1.2" viewBox="193 81 424 837" xmlns:bx="https://boxy-svg.com" width="424px" height="837px"><defs><linearGradient id="gradient-1" bx:pinned="true"><stop offset="0" style="stop-color: rgb(255, 85, 0);"/><stop offset="1" style="stop-color: rgb(255, 213, 57);"/></linearGradient><linearGradient id="gradient-1-0" href="#gradient-1" gradientUnits="userSpaceOnUse" x1="404.052" y1="88.207" x2="404.052" y2="907.705"/><bx:export><bx:file format="svg"/></bx:export></defs><rect style="stroke: rgb(0, 0, 0); fill: url(&quot;#gradient-1-0&quot;);" x="206.384" y="88.207" width="395.336" height="819.498" rx="50" ry="50"/><path d="M551 85H259c-31 0-57 26-57 57v714c0 32 26 57 57 57h292c31 0 57-25 57-57V142c0-31-26-57-57-57Zm-97 26c3 0 5 3 5 5 0 3-2 6-5 6s-5-3-5-6c0-2 2-5 5-5Zm-76 2h49c2 0 4 1 4 3s-2 4-4 4h-49c-2 0-3-2-3-4s1-3 3-3Zm209 746c0 19-15 34-34 34H257c-18 0-34-15-34-34V140c0-19 16-34 34-34h44v9c0 11 9 19 19 19h170c10 0 19-8 19-19v-9h44c19 0 34 15 34 34v719Zm0 0" style="fill:#000;stroke:#000;stroke-width:.5"/><path d="M427 113h-49c-2 0-3 1-3 3s1 4 3 4h49c2 0 4-2 4-4s-2-3-4-3Zm0 0" style="fill:#606060"/><path d="M454 111a5 5 0 1 0 0 11 5 5 0 0 0 0-11Zm0 0" style="fill:#606060"/><path d="M194 196v26c0 2 2 4 4 4v-34c-2 0-4 1-4 4Zm0 0" style="fill:#b8b8b8;"/><path d="M194 256v53c0 3 2 5 4 5v-62c-2 0-4 2-4 4Zm0 0" style="fill:#b8b8b8;"/><path d="M194 332v53c0 3 2 5 4 5v-63c-2 0-4 2-4 5Zm0 0" style="fill:#b8b8b8;"/><path d="M612 272v100c2 0 4-2 4-4v-91c0-3-2-5-4-5Zm0 0" style="fill:#b8b8b8;"/><path d="M612 272V142a60 60 0 0 0-12-36 91 91 0 0 0-10-11c-11-9-24-14-39-14H259c-14 0-28 5-39 14l-4 4-6 7-3 4a64 64 0 0 0-8 20l-1 12v714c0 34 28 61 61 61h292c33 0 61-27 61-61Zm-4 0v584c0 32-26 58-57 58H259c-31 0-57-26-57-58V142c0-31 26-57 57-57h292c31 0 57 26 57 57Zm0 0" style="fill:#e9e9e9"/><text style="white-space: pre; fill: rgb(51, 51, 51); font-family: Arial, sans-serif; font-size: 28px;" x="320.66" y="328.085" transform="matrix(2.164536, 0, 0, 3.516716, -451.663879, -749.857849)">Insert <tspan x="320.6600036621094" dy="1em">​</tspan>Screenshot <tspan x="320.6600036621094" dy="1em">​</tspan>Here</text></svg>