<svg xmlns="http://www.w3.org/2000/svg" viewBox="139 218 532 577" version="1.2">
    <defs>
        <clipPath id="30ba853a72">
            <path d="M 421 544 L 670.5 544 L 670.5 793.8125 L 421 793.8125 Z M 421 544 "/>
        </clipPath>
        <clipPath id="49367a069e">
            <path d="M 139.761719 325 L 315 325 L 315 501 L 139.761719 501 Z M 139.761719 325 "/>
        </clipPath>
        <clipPath id="9e06fdfac4">
            <path d="M 466 218.09375 L 639 218.09375 L 639 390 L 466 390 Z M 466 218.09375 "/>
        </clipPath>
    </defs>
    <g id="fe95264899">
        <g clip-rule="nonzero" clip-path="url(#30ba853a72)">
            <path style=" stroke:none;fill-rule:nonzero;fill:#ff791a;fill-opacity:1;"
                  d="M 670.492188 793.824219 L 421.585938 793.824219 L 421.585938 544.917969 L 670.492188 544.917969 Z M 670.492188 793.824219 "/>
        </g>
        <g clip-rule="nonzero" clip-path="url(#49367a069e)">
            <path style=" stroke:none;fill-rule:nonzero;fill:#ff791a;fill-opacity:1;"
                  d="M 314.851562 500.898438 L 139.769531 500.898438 L 139.769531 325.820312 L 314.851562 325.820312 Z M 314.851562 500.898438 "/>
        </g>
        <g clip-rule="nonzero" clip-path="url(#9e06fdfac4)">
            <path style=" stroke:none;fill-rule:nonzero;fill:#ff791a;fill-opacity:1;"
                  d="M 552.296875 389.90625 L 552.289062 389.90625 C 550.886719 389.90625 549.484375 389.871094 548.082031 389.800781 C 546.683594 389.734375 545.28125 389.628906 543.886719 389.492188 C 542.492188 389.355469 541.097656 389.183594 539.710938 388.976562 C 538.324219 388.773438 536.941406 388.53125 535.566406 388.257812 C 534.191406 387.984375 532.824219 387.679688 531.460938 387.335938 C 530.101562 386.996094 528.75 386.621094 527.40625 386.214844 C 526.066406 385.808594 524.734375 385.367188 523.414062 384.894531 C 522.09375 384.421875 520.785156 383.917969 519.488281 383.382812 C 518.191406 382.84375 516.910156 382.277344 515.640625 381.675781 C 514.375 381.078125 513.121094 380.445312 511.882812 379.785156 C 510.648438 379.125 509.425781 378.433594 508.222656 377.710938 C 507.019531 376.988281 505.835938 376.238281 504.667969 375.460938 C 503.503906 374.679688 502.355469 373.875 501.230469 373.039062 C 500.101562 372.203125 498.996094 371.339844 497.914062 370.449219 C 496.828125 369.558594 495.765625 368.644531 494.726562 367.703125 C 493.6875 366.761719 492.671875 365.792969 491.679688 364.800781 C 490.6875 363.808594 489.722656 362.792969 488.78125 361.753906 C 487.835938 360.714844 486.921875 359.652344 486.03125 358.570312 C 485.140625 357.484375 484.277344 356.378906 483.445312 355.253906 C 482.609375 354.125 481.800781 352.980469 481.019531 351.8125 C 480.242188 350.644531 479.492188 349.460938 478.769531 348.257812 C 478.050781 347.054688 477.359375 345.835938 476.695312 344.597656 C 476.035156 343.359375 475.40625 342.109375 474.804688 340.839844 C 474.207031 339.570312 473.636719 338.289062 473.101562 336.992188 C 472.5625 335.699219 472.058594 334.390625 471.585938 333.070312 C 471.113281 331.75 470.675781 330.417969 470.265625 329.074219 C 469.859375 327.730469 469.484375 326.378906 469.144531 325.019531 C 468.804688 323.660156 468.496094 322.289062 468.222656 320.914062 C 467.949219 319.539062 467.710938 318.15625 467.503906 316.769531 C 467.296875 315.382812 467.125 313.992188 466.988281 312.59375 C 466.851562 311.199219 466.746094 309.800781 466.679688 308.398438 C 466.609375 306.996094 466.574219 305.597656 466.574219 304.191406 L 466.574219 304.1875 C 466.574219 302.785156 466.609375 301.382812 466.679688 299.980469 C 466.746094 298.578125 466.851562 297.179688 466.988281 295.785156 C 467.125 294.390625 467.296875 292.996094 467.503906 291.609375 C 467.710938 290.222656 467.949219 288.839844 468.222656 287.464844 C 468.496094 286.089844 468.804688 284.722656 469.144531 283.359375 C 469.484375 282 469.859375 280.648438 470.265625 279.304688 C 470.675781 277.964844 471.113281 276.632812 471.585938 275.3125 C 472.058594 273.988281 472.5625 272.683594 473.101562 271.386719 C 473.636719 270.089844 474.207031 268.808594 474.804688 267.539062 C 475.40625 266.273438 476.035156 265.019531 476.695312 263.78125 C 477.359375 262.542969 478.050781 261.324219 478.769531 260.121094 C 479.492188 258.917969 480.242188 257.734375 481.019531 256.566406 C 481.800781 255.402344 482.609375 254.253906 483.445312 253.128906 C 484.277344 252 485.140625 250.894531 486.03125 249.8125 C 486.921875 248.726562 487.835938 247.664062 488.78125 246.625 C 489.722656 245.585938 490.6875 244.570312 491.679688 243.578125 C 492.671875 242.585938 493.6875 241.621094 494.726562 240.679688 C 495.765625 239.734375 496.828125 238.820312 497.914062 237.929688 C 498.996094 237.039062 500.101562 236.175781 501.230469 235.339844 C 502.355469 234.507812 503.503906 233.699219 504.667969 232.917969 C 505.835938 232.140625 507.019531 231.390625 508.222656 230.667969 C 509.425781 229.949219 510.648438 229.257812 511.882812 228.59375 C 513.121094 227.933594 514.375 227.304688 515.640625 226.703125 C 516.910156 226.105469 518.191406 225.535156 519.488281 225 C 520.785156 224.460938 522.09375 223.957031 523.414062 223.484375 C 524.734375 223.011719 526.066406 222.570312 527.40625 222.164062 C 528.75 221.757812 530.101562 221.382812 531.460938 221.042969 C 532.824219 220.703125 534.191406 220.394531 535.566406 220.121094 C 536.941406 219.847656 538.324219 219.609375 539.710938 219.402344 C 541.097656 219.195312 542.492188 219.023438 543.886719 218.886719 C 545.28125 218.75 546.683594 218.644531 548.082031 218.578125 C 549.484375 218.507812 550.886719 218.472656 552.289062 218.472656 L 552.296875 218.472656 C 553.699219 218.472656 555.101562 218.507812 556.5 218.578125 C 557.902344 218.644531 559.300781 218.75 560.695312 218.886719 C 562.09375 219.023438 563.484375 219.195312 564.871094 219.402344 C 566.257812 219.609375 567.640625 219.847656 569.015625 220.121094 C 570.394531 220.394531 571.761719 220.703125 573.121094 221.042969 C 574.480469 221.382812 575.832031 221.757812 577.175781 222.164062 C 578.519531 222.570312 579.851562 223.011719 581.171875 223.484375 C 582.492188 223.957031 583.800781 224.460938 585.097656 225 C 586.390625 225.535156 587.675781 226.105469 588.941406 226.703125 C 590.210938 227.304688 591.460938 227.933594 592.699219 228.59375 C 593.9375 229.257812 595.15625 229.949219 596.359375 230.667969 C 597.5625 231.390625 598.75 232.140625 599.914062 232.917969 C 601.082031 233.699219 602.226562 234.507812 603.355469 235.339844 C 604.480469 236.175781 605.585938 237.039062 606.671875 237.929688 C 607.753906 238.820312 608.816406 239.734375 609.855469 240.675781 C 610.894531 241.621094 611.910156 242.585938 612.902344 243.578125 C 613.894531 244.570312 614.863281 245.585938 615.804688 246.625 C 616.746094 247.664062 617.660156 248.726562 618.550781 249.8125 C 619.441406 250.894531 620.304688 252 621.140625 253.128906 C 621.976562 254.253906 622.785156 255.402344 623.5625 256.566406 C 624.34375 257.734375 625.09375 258.917969 625.8125 260.121094 C 626.535156 261.324219 627.226562 262.542969 627.886719 263.78125 C 628.546875 265.019531 629.179688 266.273438 629.777344 267.539062 C 630.378906 268.808594 630.945312 270.089844 631.484375 271.386719 C 632.019531 272.683594 632.523438 273.988281 632.996094 275.3125 C 633.46875 276.632812 633.910156 277.964844 634.316406 279.304688 C 634.722656 280.648438 635.097656 282 635.4375 283.359375 C 635.78125 284.722656 636.085938 286.089844 636.359375 287.464844 C 636.632812 288.839844 636.875 290.222656 637.078125 291.609375 C 637.285156 292.996094 637.457031 294.390625 637.59375 295.785156 C 637.734375 297.179688 637.835938 298.578125 637.90625 299.980469 C 637.972656 301.382812 638.007812 302.785156 638.007812 304.1875 L 638.007812 304.191406 C 638.007812 305.597656 637.972656 306.996094 637.90625 308.398438 C 637.835938 309.800781 637.734375 311.199219 637.59375 312.59375 C 637.457031 313.992188 637.285156 315.382812 637.078125 316.769531 C 636.875 318.15625 636.632812 319.539062 636.359375 320.914062 C 636.085938 322.289062 635.78125 323.660156 635.4375 325.019531 C 635.097656 326.378906 634.722656 327.730469 634.316406 329.074219 C 633.910156 330.417969 633.46875 331.75 632.996094 333.070312 C 632.523438 334.390625 632.019531 335.699219 631.484375 336.992188 C 630.945312 338.289062 630.378906 339.570312 629.777344 340.839844 C 629.179688 342.109375 628.546875 343.359375 627.886719 344.597656 C 627.226562 345.835938 626.535156 347.054688 625.8125 348.257812 C 625.09375 349.460938 624.34375 350.644531 623.5625 351.8125 C 622.785156 352.980469 621.976562 354.125 621.140625 355.253906 C 620.304688 356.378906 619.441406 357.484375 618.550781 358.570312 C 617.660156 359.652344 616.746094 360.714844 615.804688 361.753906 C 614.863281 362.792969 613.894531 363.808594 612.902344 364.800781 C 611.910156 365.792969 610.894531 366.761719 609.855469 367.703125 C 608.816406 368.644531 607.753906 369.558594 606.671875 370.449219 C 605.585938 371.339844 604.480469 372.203125 603.355469 373.039062 C 602.226562 373.875 601.082031 374.679688 599.914062 375.460938 C 598.75 376.238281 597.5625 376.988281 596.359375 377.710938 C 595.15625 378.433594 593.9375 379.125 592.699219 379.785156 C 591.460938 380.445312 590.210938 381.078125 588.941406 381.675781 C 587.675781 382.277344 586.390625 382.84375 585.097656 383.382812 C 583.800781 383.917969 582.492188 384.421875 581.171875 384.894531 C 579.851562 385.367188 578.519531 385.808594 577.175781 386.214844 C 575.832031 386.621094 574.480469 386.996094 573.121094 387.335938 C 571.761719 387.679688 570.394531 387.984375 569.015625 388.257812 C 567.640625 388.53125 566.257812 388.773438 564.871094 388.976562 C 563.484375 389.183594 562.09375 389.355469 560.695312 389.492188 C 559.300781 389.628906 557.902344 389.734375 556.5 389.800781 C 555.101562 389.871094 553.699219 389.90625 552.296875 389.90625 Z M 552.296875 389.90625 "/>
        </g>
        <path style=" stroke:none;fill-rule:nonzero;fill:#ffc800;fill-opacity:1;"
              d="M 591.164062 326.058594 L 575.199219 342.023438 L 559.234375 326.058594 L 575.199219 310.09375 Z M 591.164062 326.058594 "/>
        <path style=" stroke:none;fill-rule:nonzero;fill:#ffc800;fill-opacity:1;"
              d="M 550.738281 326.0625 L 534.773438 342.027344 L 518.808594 326.0625 L 534.773438 310.097656 Z M 550.738281 326.0625 "/>
        <path style=" stroke:none;fill-rule:nonzero;fill:#ffc800;fill-opacity:1;"
              d="M 510.3125 326.0625 L 494.347656 342.027344 L 478.382812 326.0625 L 494.347656 310.097656 Z M 510.3125 326.0625 "/>
        <path style=" stroke:none;fill-rule:nonzero;fill:#ffc800;fill-opacity:1;"
              d="M 469.878906 326.058594 L 453.914062 342.027344 L 437.949219 326.058594 L 453.914062 310.09375 Z M 469.878906 326.058594 "/>
        <path style=" stroke:none;fill-rule:nonzero;fill:#ffc800;fill-opacity:1;"
              d="M 429.453125 326.058594 L 413.488281 342.023438 L 397.523438 326.058594 L 413.488281 310.09375 Z M 429.453125 326.058594 "/>
        <path style=" stroke:none;fill-rule:nonzero;fill:#ffc800;fill-opacity:1;"
              d="M 389.027344 326.058594 L 373.0625 342.023438 L 357.097656 326.058594 L 373.0625 310.089844 Z M 389.027344 326.058594 "/>
        <path style=" stroke:none;fill-rule:nonzero;fill:#ffc800;fill-opacity:1;"
              d="M 348.601562 326.0625 L 332.636719 342.027344 L 316.671875 326.0625 L 332.636719 310.097656 Z M 348.601562 326.0625 "/>
        <path style=" stroke:none;fill-rule:nonzero;fill:#ffc800;fill-opacity:1;"
              d="M 308.167969 326.058594 L 292.203125 342.023438 L 276.238281 326.058594 L 292.203125 310.09375 Z M 308.167969 326.058594 "/>
        <path style=" stroke:none;fill-rule:nonzero;fill:#ffc800;fill-opacity:1;"
              d="M 267.742188 326.058594 L 251.777344 342.023438 L 235.8125 326.058594 L 251.777344 310.09375 Z M 267.742188 326.058594 "/>
        <path style=" stroke:none;fill-rule:nonzero;fill:#ffc800;fill-opacity:1;"
              d="M 227.316406 326.054688 L 211.351562 342.023438 L 195.386719 326.054688 L 211.351562 310.089844 Z M 227.316406 326.054688 "/>
        <path style=" stroke:none;fill-rule:nonzero;fill:#ffc800;fill-opacity:1;"
              d="M 590.648438 366.492188 L 575.207031 381.9375 L 559.761719 366.492188 L 575.207031 351.046875 Z M 590.648438 366.492188 "/>
        <path style=" stroke:none;fill-rule:nonzero;fill:#ffc800;fill-opacity:1;"
              d="M 550.214844 366.488281 L 534.773438 381.933594 L 519.328125 366.488281 L 534.773438 351.046875 Z M 550.214844 366.488281 "/>
        <path style=" stroke:none;fill-rule:nonzero;fill:#ffc800;fill-opacity:1;"
              d="M 509.789062 366.488281 L 494.347656 381.933594 L 478.902344 366.488281 L 494.347656 351.042969 Z M 509.789062 366.488281 "/>
        <path style=" stroke:none;fill-rule:nonzero;fill:#ffc800;fill-opacity:1;"
              d="M 469.363281 366.488281 L 453.917969 381.929688 L 438.476562 366.488281 L 453.917969 351.042969 Z M 469.363281 366.488281 "/>
        <path style=" stroke:none;fill-rule:nonzero;fill:#ffc800;fill-opacity:1;"
              d="M 428.929688 366.484375 L 413.488281 381.929688 L 398.042969 366.484375 L 413.488281 351.039062 Z M 428.929688 366.484375 "/>
        <path style=" stroke:none;fill-rule:nonzero;fill:#ffc800;fill-opacity:1;"
              d="M 388.503906 366.488281 L 373.058594 381.933594 L 357.617188 366.488281 L 373.058594 351.046875 Z M 388.503906 366.488281 "/>
        <path style=" stroke:none;fill-rule:nonzero;fill:#ffc800;fill-opacity:1;"
              d="M 348.078125 366.488281 L 332.632812 381.929688 L 317.191406 366.488281 L 332.632812 351.042969 Z M 348.078125 366.488281 "/>
        <path style=" stroke:none;fill-rule:nonzero;fill:#ffc800;fill-opacity:1;"
              d="M 307.652344 366.488281 L 292.207031 381.929688 L 276.765625 366.488281 L 292.207031 351.042969 Z M 307.652344 366.488281 "/>
        <path style=" stroke:none;fill-rule:nonzero;fill:#ffc800;fill-opacity:1;"
              d="M 267.21875 366.484375 L 251.773438 381.929688 L 236.332031 366.484375 L 251.773438 351.039062 Z M 267.21875 366.484375 "/>
        <path style=" stroke:none;fill-rule:nonzero;fill:#ffc800;fill-opacity:1;"
              d="M 226.789062 366.492188 L 211.34375 381.9375 L 195.902344 366.492188 L 211.34375 351.050781 Z M 226.789062 366.492188 "/>
        <path style=" stroke:none;fill-rule:nonzero;fill:#ffc800;fill-opacity:1;"
              d="M 590.125 406.917969 L 575.203125 421.839844 L 560.28125 406.917969 L 575.203125 391.996094 Z M 590.125 406.917969 "/>
        <path style=" stroke:none;fill-rule:nonzero;fill:#ffc800;fill-opacity:1;"
              d="M 549.699219 406.917969 L 534.777344 421.839844 L 519.855469 406.917969 L 534.777344 391.996094 Z M 549.699219 406.917969 "/>
        <path style=" stroke:none;fill-rule:nonzero;fill:#ffc800;fill-opacity:1;"
              d="M 509.265625 406.914062 L 494.34375 421.835938 L 479.421875 406.914062 L 494.34375 391.992188 Z M 509.265625 406.914062 "/>
        <path style=" stroke:none;fill-rule:nonzero;fill:#ffc800;fill-opacity:1;"
              d="M 468.839844 406.917969 L 453.917969 421.839844 L 438.996094 406.917969 L 453.917969 391.996094 Z M 468.839844 406.917969 "/>
        <path style=" stroke:none;fill-rule:nonzero;fill:#ffc800;fill-opacity:1;"
              d="M 428.414062 406.917969 L 413.492188 421.839844 L 398.570312 406.917969 L 413.492188 391.996094 Z M 428.414062 406.917969 "/>
        <path style=" stroke:none;fill-rule:nonzero;fill:#ffc800;fill-opacity:1;"
              d="M 387.980469 406.917969 L 373.058594 421.839844 L 358.136719 406.917969 L 373.058594 391.996094 Z M 387.980469 406.917969 "/>
        <path style=" stroke:none;fill-rule:nonzero;fill:#ffc800;fill-opacity:1;"
              d="M 347.554688 406.914062 L 332.632812 421.835938 L 317.710938 406.914062 L 332.632812 391.992188 Z M 347.554688 406.914062 "/>
        <path style=" stroke:none;fill-rule:nonzero;fill:#ffc800;fill-opacity:1;"
              d="M 307.125 406.917969 L 292.203125 421.839844 L 277.28125 406.917969 L 292.203125 391.996094 Z M 307.125 406.917969 "/>
        <path style=" stroke:none;fill-rule:nonzero;fill:#ffc800;fill-opacity:1;"
              d="M 266.691406 406.921875 L 251.769531 421.84375 L 236.847656 406.921875 L 251.769531 392 Z M 266.691406 406.921875 "/>
        <path style=" stroke:none;fill-rule:nonzero;fill:#ffc800;fill-opacity:1;"
              d="M 226.265625 406.921875 L 211.34375 421.84375 L 196.421875 406.921875 L 211.34375 392 Z M 226.265625 406.921875 "/>
        <path style=" stroke:none;fill-rule:nonzero;fill:#ffc800;fill-opacity:1;"
              d="M 589.601562 447.34375 L 575.203125 461.746094 L 560.800781 447.34375 L 575.203125 432.945312 Z M 589.601562 447.34375 "/>
        <path style=" stroke:none;fill-rule:nonzero;fill:#ffc800;fill-opacity:1;"
              d="M 549.175781 447.34375 L 534.773438 461.742188 L 520.375 447.34375 L 534.773438 432.941406 Z M 549.175781 447.34375 "/>
        <path style=" stroke:none;fill-rule:nonzero;fill:#ffc800;fill-opacity:1;"
              d="M 508.742188 447.347656 L 494.34375 461.746094 L 479.941406 447.347656 L 494.34375 432.949219 Z M 508.742188 447.347656 "/>
        <path style=" stroke:none;fill-rule:nonzero;fill:#ffc800;fill-opacity:1;"
              d="M 468.316406 447.34375 L 453.917969 461.746094 L 439.515625 447.34375 L 453.917969 432.945312 Z M 468.316406 447.34375 "/>
        <path style=" stroke:none;fill-rule:nonzero;fill:#ffc800;fill-opacity:1;"
              d="M 427.890625 447.34375 L 413.488281 461.742188 L 399.089844 447.34375 L 413.488281 432.945312 Z M 427.890625 447.34375 "/>
        <path style=" stroke:none;fill-rule:nonzero;fill:#ffc800;fill-opacity:1;"
              d="M 387.464844 447.34375 L 373.0625 461.742188 L 358.664062 447.34375 L 373.0625 432.941406 Z M 387.464844 447.34375 "/>
        <path style=" stroke:none;fill-rule:nonzero;fill:#ffc800;fill-opacity:1;"
              d="M 347.027344 447.34375 L 332.625 461.746094 L 318.226562 447.34375 L 332.625 432.945312 Z M 347.027344 447.34375 "/>
        <path style=" stroke:none;fill-rule:nonzero;fill:#ffc800;fill-opacity:1;"
              d="M 306.601562 447.351562 L 292.199219 461.75 L 277.800781 447.351562 L 292.199219 432.949219 Z M 306.601562 447.351562 "/>
        <path style=" stroke:none;fill-rule:nonzero;fill:#ffc800;fill-opacity:1;"
              d="M 266.171875 447.347656 L 251.773438 461.75 L 237.375 447.347656 L 251.773438 432.949219 Z M 266.171875 447.347656 "/>
        <path style=" stroke:none;fill-rule:nonzero;fill:#ffc800;fill-opacity:1;"
              d="M 225.742188 447.347656 L 211.339844 461.746094 L 196.941406 447.347656 L 211.339844 432.945312 Z M 225.742188 447.347656 "/>
        <path style=" stroke:none;fill-rule:nonzero;fill:#ffc800;fill-opacity:1;"
              d="M 589.078125 487.769531 L 575.199219 501.648438 L 561.320312 487.769531 L 575.199219 473.890625 Z M 589.078125 487.769531 "/>
        <path style=" stroke:none;fill-rule:nonzero;fill:#ffc800;fill-opacity:1;"
              d="M 548.652344 487.773438 L 534.773438 501.652344 L 520.894531 487.777344 L 534.773438 473.898438 Z M 548.652344 487.773438 "/>
        <path style=" stroke:none;fill-rule:nonzero;fill:#ffc800;fill-opacity:1;"
              d="M 508.226562 487.773438 L 494.347656 501.652344 L 480.46875 487.773438 L 494.347656 473.894531 Z M 508.226562 487.773438 "/>
        <path style=" stroke:none;fill-rule:nonzero;fill:#ffc800;fill-opacity:1;"
              d="M 467.792969 487.773438 L 453.914062 501.648438 L 440.035156 487.773438 L 453.914062 473.894531 Z M 467.792969 487.773438 "/>
        <path style=" stroke:none;fill-rule:nonzero;fill:#ffc800;fill-opacity:1;"
              d="M 427.367188 487.769531 L 413.488281 501.648438 L 399.609375 487.769531 L 413.488281 473.890625 Z M 427.367188 487.769531 "/>
        <path style=" stroke:none;fill-rule:nonzero;fill:#ffc800;fill-opacity:1;"
              d="M 386.9375 487.78125 L 373.058594 501.660156 L 359.179688 487.78125 L 373.058594 473.902344 Z M 386.9375 487.78125 "/>
        <path style=" stroke:none;fill-rule:nonzero;fill:#ffc800;fill-opacity:1;"
              d="M 346.507812 487.777344 L 332.628906 501.65625 L 318.753906 487.777344 L 332.628906 473.898438 Z M 346.507812 487.777344 "/>
        <path style=" stroke:none;fill-rule:nonzero;fill:#ffc800;fill-opacity:1;"
              d="M 306.078125 487.777344 L 292.199219 501.65625 L 278.320312 487.777344 L 292.199219 473.898438 Z M 306.078125 487.777344 "/>
        <path style=" stroke:none;fill-rule:nonzero;fill:#ffc800;fill-opacity:1;"
              d="M 265.648438 487.773438 L 251.773438 501.652344 L 237.894531 487.773438 L 251.773438 473.894531 Z M 265.648438 487.773438 "/>
        <path style=" stroke:none;fill-rule:nonzero;fill:#ffc800;fill-opacity:1;"
              d="M 225.222656 487.773438 L 211.34375 501.652344 L 197.46875 487.773438 L 211.34375 473.894531 Z M 225.222656 487.773438 "/>
        <path style=" stroke:none;fill-rule:nonzero;fill:#ffc800;fill-opacity:1;"
              d="M 588.554688 528.203125 L 575.203125 541.554688 L 561.851562 528.203125 L 575.203125 514.851562 Z M 588.554688 528.203125 "/>
        <path style=" stroke:none;fill-rule:nonzero;fill:#ffc800;fill-opacity:1;"
              d="M 548.128906 528.203125 L 534.777344 541.554688 L 521.425781 528.203125 L 534.777344 514.851562 Z M 548.128906 528.203125 "/>
        <path style=" stroke:none;fill-rule:nonzero;fill:#ffc800;fill-opacity:1;"
              d="M 507.703125 528.199219 L 494.351562 541.550781 L 481 528.199219 L 494.351562 514.847656 Z M 507.703125 528.199219 "/>
        <path style=" stroke:none;fill-rule:nonzero;fill:#ffc800;fill-opacity:1;"
              d="M 467.277344 528.199219 L 453.925781 541.550781 L 440.570312 528.199219 L 453.925781 514.847656 Z M 467.277344 528.199219 "/>
        <path style=" stroke:none;fill-rule:nonzero;fill:#ffc800;fill-opacity:1;"
              d="M 426.839844 528.207031 L 413.484375 541.558594 L 400.132812 528.207031 L 413.484375 514.855469 Z M 426.839844 528.207031 "/>
        <path style=" stroke:none;fill-rule:nonzero;fill:#ffc800;fill-opacity:1;"
              d="M 386.414062 528.207031 L 373.058594 541.558594 L 359.707031 528.207031 L 373.058594 514.855469 Z M 386.414062 528.207031 "/>
        <path style=" stroke:none;fill-rule:nonzero;fill:#ffc800;fill-opacity:1;"
              d="M 345.984375 528.203125 L 332.632812 541.554688 L 319.28125 528.203125 L 332.632812 514.851562 Z M 345.984375 528.203125 "/>
        <path style=" stroke:none;fill-rule:nonzero;fill:#ffc800;fill-opacity:1;"
              d="M 305.554688 528.203125 L 292.199219 541.554688 L 278.847656 528.203125 L 292.199219 514.851562 Z M 305.554688 528.203125 "/>
        <path style=" stroke:none;fill-rule:nonzero;fill:#ffc800;fill-opacity:1;"
              d="M 265.125 528.207031 L 251.773438 541.558594 L 238.421875 528.207031 L 251.773438 514.855469 Z M 265.125 528.207031 "/>
        <path style=" stroke:none;fill-rule:nonzero;fill:#ffc800;fill-opacity:1;"
              d="M 224.699219 528.207031 L 211.347656 541.558594 L 197.996094 528.207031 L 211.347656 514.855469 Z M 224.699219 528.207031 "/>
        <path style=" stroke:none;fill-rule:nonzero;fill:#ffc800;fill-opacity:1;"
              d="M 588.039062 568.628906 L 575.207031 581.460938 L 562.378906 568.628906 L 575.207031 555.800781 Z M 588.039062 568.628906 "/>
        <path style=" stroke:none;fill-rule:nonzero;fill:#ffc800;fill-opacity:1;"
              d="M 547.605469 568.628906 L 534.773438 581.457031 L 521.945312 568.628906 L 534.773438 555.796875 Z M 547.605469 568.628906 "/>
        <path style=" stroke:none;fill-rule:nonzero;fill:#ffc800;fill-opacity:1;"
              d="M 507.179688 568.625 L 494.347656 581.457031 L 481.519531 568.625 L 494.347656 555.796875 Z M 507.179688 568.625 "/>
        <path style=" stroke:none;fill-rule:nonzero;fill:#ffc800;fill-opacity:1;"
              d="M 466.746094 568.636719 L 453.917969 581.464844 L 441.085938 568.636719 L 453.917969 555.804688 Z M 466.746094 568.636719 "/>
        <path style=" stroke:none;fill-rule:nonzero;fill:#ffc800;fill-opacity:1;"
              d="M 426.320312 568.632812 L 413.492188 581.464844 L 400.660156 568.632812 L 413.492188 555.804688 Z M 426.320312 568.632812 "/>
        <path style=" stroke:none;fill-rule:nonzero;fill:#ffc800;fill-opacity:1;"
              d="M 385.886719 568.632812 L 373.058594 581.460938 L 360.226562 568.632812 L 373.058594 555.800781 Z M 385.886719 568.632812 "/>
        <path style=" stroke:none;fill-rule:nonzero;fill:#ffc800;fill-opacity:1;"
              d="M 345.460938 568.628906 L 332.632812 581.460938 L 319.800781 568.628906 L 332.632812 555.800781 Z M 345.460938 568.628906 "/>
        <path style=" stroke:none;fill-rule:nonzero;fill:#ffc800;fill-opacity:1;"
              d="M 305.035156 568.636719 L 292.207031 581.464844 L 279.375 568.636719 L 292.207031 555.804688 Z M 305.035156 568.636719 "/>
        <path style=" stroke:none;fill-rule:nonzero;fill:#ffc800;fill-opacity:1;"
              d="M 264.601562 568.632812 L 251.773438 581.464844 L 238.941406 568.632812 L 251.773438 555.804688 Z M 264.601562 568.632812 "/>
        <path style=" stroke:none;fill-rule:nonzero;fill:#ffc800;fill-opacity:1;"
              d="M 224.175781 568.632812 L 211.347656 581.460938 L 198.515625 568.632812 L 211.347656 555.800781 Z M 224.175781 568.632812 "/>
        <path style=" stroke:none;fill-rule:nonzero;fill:#ffc800;fill-opacity:1;"
              d="M 587.515625 609.054688 L 575.207031 621.363281 L 562.898438 609.054688 L 575.207031 596.746094 Z M 587.515625 609.054688 "/>
        <path style=" stroke:none;fill-rule:nonzero;fill:#ffc800;fill-opacity:1;"
              d="M 547.089844 609.0625 L 534.78125 621.371094 L 522.472656 609.0625 L 534.78125 596.753906 Z M 547.089844 609.0625 "/>
        <path style=" stroke:none;fill-rule:nonzero;fill:#ffc800;fill-opacity:1;"
              d="M 506.648438 609.0625 L 494.339844 621.371094 L 482.03125 609.0625 L 494.339844 596.753906 Z M 506.648438 609.0625 "/>
        <path style=" stroke:none;fill-rule:nonzero;fill:#ffc800;fill-opacity:1;"
              d="M 466.222656 609.0625 L 453.914062 621.371094 L 441.605469 609.0625 L 453.914062 596.753906 Z M 466.222656 609.0625 "/>
        <path style=" stroke:none;fill-rule:nonzero;fill:#ffc800;fill-opacity:1;"
              d="M 425.796875 609.058594 L 413.488281 621.367188 L 401.179688 609.058594 L 413.488281 596.75 Z M 425.796875 609.058594 "/>
        <path style=" stroke:none;fill-rule:nonzero;fill:#ffc800;fill-opacity:1;"
              d="M 385.363281 609.058594 L 373.054688 621.367188 L 360.746094 609.058594 L 373.054688 596.75 Z M 385.363281 609.058594 "/>
        <path style=" stroke:none;fill-rule:nonzero;fill:#ffc800;fill-opacity:1;"
              d="M 344.9375 609.0625 L 332.628906 621.371094 L 320.320312 609.0625 L 332.628906 596.753906 Z M 344.9375 609.0625 "/>
        <path style=" stroke:none;fill-rule:nonzero;fill:#ffc800;fill-opacity:1;"
              d="M 304.511719 609.0625 L 292.203125 621.371094 L 279.894531 609.0625 L 292.203125 596.753906 Z M 304.511719 609.0625 "/>
        <path style=" stroke:none;fill-rule:nonzero;fill:#ffc800;fill-opacity:1;"
              d="M 264.085938 609.058594 L 251.777344 621.367188 L 239.46875 609.058594 L 251.777344 596.75 Z M 264.085938 609.058594 "/>
        <path style=" stroke:none;fill-rule:nonzero;fill:#ffc800;fill-opacity:1;"
              d="M 223.652344 609.058594 L 211.34375 621.367188 L 199.035156 609.058594 L 211.34375 596.75 Z M 223.652344 609.058594 "/>
        <path style=" stroke:none;fill-rule:nonzero;fill:#ffc800;fill-opacity:1;"
              d="M 586.992188 649.488281 L 575.203125 661.277344 L 563.417969 649.488281 L 575.203125 637.703125 Z M 586.992188 649.488281 "/>
        <path style=" stroke:none;fill-rule:nonzero;fill:#ffc800;fill-opacity:1;"
              d="M 546.558594 649.492188 L 534.773438 661.277344 L 522.984375 649.492188 L 534.773438 637.707031 Z M 546.558594 649.492188 "/>
        <path style=" stroke:none;fill-rule:nonzero;fill:#ffc800;fill-opacity:1;"
              d="M 506.132812 649.492188 L 494.347656 661.277344 L 482.558594 649.492188 L 494.347656 637.703125 Z M 506.132812 649.492188 "/>
        <path style=" stroke:none;fill-rule:nonzero;fill:#ffc800;fill-opacity:1;"
              d="M 465.699219 649.488281 L 453.914062 661.273438 L 442.128906 649.488281 L 453.914062 637.703125 Z M 465.699219 649.488281 "/>
        <path style=" stroke:none;fill-rule:nonzero;fill:#ffc800;fill-opacity:1;"
              d="M 425.273438 649.488281 L 413.488281 661.273438 L 401.699219 649.488281 L 413.488281 637.699219 Z M 425.273438 649.488281 "/>
        <path style=" stroke:none;fill-rule:nonzero;fill:#ffc800;fill-opacity:1;"
              d="M 384.847656 649.492188 L 373.0625 661.277344 L 361.273438 649.492188 L 373.0625 637.707031 Z M 384.847656 649.492188 "/>
        <path style=" stroke:none;fill-rule:nonzero;fill:#ffc800;fill-opacity:1;"
              d="M 344.414062 649.488281 L 332.628906 661.277344 L 320.84375 649.488281 L 332.628906 637.703125 Z M 344.414062 649.488281 "/>
        <path style=" stroke:none;fill-rule:nonzero;fill:#ffc800;fill-opacity:1;"
              d="M 303.988281 649.488281 L 292.203125 661.273438 L 280.414062 649.488281 L 292.203125 637.703125 Z M 303.988281 649.488281 "/>
        <path style=" stroke:none;fill-rule:nonzero;fill:#ffc800;fill-opacity:1;"
              d="M 263.5625 649.484375 L 251.777344 661.273438 L 239.988281 649.484375 L 251.777344 637.699219 Z M 263.5625 649.484375 "/>
        <path style=" stroke:none;fill-rule:nonzero;fill:#ffc800;fill-opacity:1;"
              d="M 223.136719 649.492188 L 211.347656 661.277344 L 199.5625 649.492188 L 211.347656 637.703125 Z M 223.136719 649.492188 "/>
        <path style=" stroke:none;fill-rule:nonzero;fill:#ffc800;fill-opacity:1;"
              d="M 586.460938 689.917969 L 575.199219 701.183594 L 563.933594 689.917969 L 575.199219 678.65625 Z M 586.460938 689.917969 "/>
        <path style=" stroke:none;fill-rule:nonzero;fill:#ffc800;fill-opacity:1;"
              d="M 546.035156 689.917969 L 534.769531 701.183594 L 523.507812 689.917969 L 534.769531 678.652344 Z M 546.035156 689.917969 "/>
        <path style=" stroke:none;fill-rule:nonzero;fill:#ffc800;fill-opacity:1;"
              d="M 505.609375 689.917969 L 494.34375 701.183594 L 483.082031 689.917969 L 494.34375 678.652344 Z M 505.609375 689.917969 "/>
        <path style=" stroke:none;fill-rule:nonzero;fill:#ffc800;fill-opacity:1;"
              d="M 465.175781 689.921875 L 453.910156 701.1875 L 442.648438 689.921875 L 453.910156 678.65625 Z M 465.175781 689.921875 "/>
        <path style=" stroke:none;fill-rule:nonzero;fill:#ffc800;fill-opacity:1;"
              d="M 424.75 689.917969 L 413.484375 701.183594 L 402.21875 689.917969 L 413.484375 678.65625 Z M 424.75 689.917969 "/>
        <path style=" stroke:none;fill-rule:nonzero;fill:#ffc800;fill-opacity:1;"
              d="M 384.324219 689.917969 L 373.058594 701.183594 L 361.792969 689.917969 L 373.058594 678.652344 Z M 384.324219 689.917969 "/>
        <path style=" stroke:none;fill-rule:nonzero;fill:#ffc800;fill-opacity:1;"
              d="M 343.898438 689.914062 L 332.632812 701.179688 L 321.367188 689.914062 L 332.632812 678.652344 Z M 343.898438 689.914062 "/>
        <path style=" stroke:none;fill-rule:nonzero;fill:#ffc800;fill-opacity:1;"
              d="M 303.464844 689.914062 L 292.199219 701.179688 L 280.933594 689.914062 L 292.199219 678.648438 Z M 303.464844 689.914062 "/>
        <path style=" stroke:none;fill-rule:nonzero;fill:#ffc800;fill-opacity:1;"
              d="M 263.039062 689.917969 L 251.773438 701.183594 L 240.507812 689.917969 L 251.773438 678.65625 Z M 263.039062 689.917969 "/>
        <path style=" stroke:none;fill-rule:nonzero;fill:#ffc800;fill-opacity:1;"
              d="M 222.613281 689.917969 L 211.347656 701.183594 L 200.082031 689.917969 L 211.347656 678.652344 Z M 222.613281 689.917969 "/>
    </g>
</svg>