<svg xmlns="http://www.w3.org/2000/svg" version="1.2" viewBox="100 250 610 510">
    <defs>
        <clipPath id="a">
            <path d="M243 253h304v303H243Zm0 0"/>
        </clipPath>
        <clipPath id="b">
            <path d="M677 733h26v26h-26Zm0 0"/>
        </clipPath>
        <clipPath id="c">
            <path d="M645 733h26v26h-26Zm0 0"/>
        </clipPath>
        <clipPath id="d">
            <path d="M106 286h10v10h-10Zm0 0"/>
        </clipPath>
        <clipPath id="e">
            <path d="M106 302h10v11h-10Zm0 0"/>
        </clipPath>
        <clipPath id="f">
            <path d="M106 319h10v10h-10Zm0 0"/>
        </clipPath>
        <clipPath id="g">
            <path d="M106 335h10v11h-10Zm0 0"/>
        </clipPath>
        <clipPath id="h">
            <path d="M106 352h10v10h-10Zm0 0"/>
        </clipPath>
        <clipPath id="i">
            <path d="M106 368h10v10h-10Zm0 0"/>
        </clipPath>
        <clipPath id="j">
            <path d="M106 385h10v10h-10Zm0 0"/>
        </clipPath>
        <clipPath id="k">
            <path d="M106 401h10v10h-10Zm0 0"/>
        </clipPath>
        <clipPath id="l">
            <path d="M106 418h10v10h-10Zm0 0"/>
        </clipPath>
        <clipPath id="m">
            <path d="M106 434h10v10h-10Zm0 0"/>
        </clipPath>
    </defs>
    <g clip-path="url(#a)">
        <path d="M244 253v303h303V253Zm0 0" style="stroke:none;fill-rule:nonzero;fill:#ff791a;fill-opacity:1"/>
    </g>
    <path d="M257 649v65h64v-65Zm362-354v85h85v-85Zm0 0"
          style="stroke:none;fill-rule:nonzero;fill:#ff791a;fill-opacity:1"/>
    <path d="m690 443-13 12 13 13 13-13Zm0 32-13 13 13 12 13-12Zm0 32-13 13 13 13 13-13Zm0 33-13 12 13 13 13-13Zm0 32-13 13 13 12 13-12Zm0 32-13 13 13 13 13-13Zm0 32-13 13 13 13 13-13Zm0 33-13 12 13 13 13-13Zm0 32-13 13 13 12 13-12Zm0 0"
          style="stroke:none;fill-rule:nonzero;fill:#ffc800;fill-opacity:1"/>
    <g clip-path="url(#b)">
        <path d="m690 733-13 13 13 13 13-13Zm0 0" style="stroke:none;fill-rule:nonzero;fill:#ffc800;fill-opacity:1"/>
    </g>
    <path d="m658 443-13 12 13 13 12-13Zm0 32-13 13 13 12 12-12Zm0 33-13 12 13 12 12-12Zm0 32-13 12 13 13 12-13Zm0 32-13 13 13 12 12-12Zm0 33-13 12 13 12 12-12Zm0 32-13 12 13 12 12-12Zm0 32-13 12 13 13 12-13Zm0 32-13 13 13 12 12-12Zm0 0"
          style="stroke:none;fill-rule:nonzero;fill:#ffc800;fill-opacity:1"/>
    <g clip-path="url(#c)">
        <path d="m658 734-13 12 13 12 12-12Zm0 0" style="stroke:none;fill-rule:nonzero;fill:#ffc800;fill-opacity:1"/>
    </g>
    <path d="m626 444-12 11 12 12 11-12Zm0 32-12 12 12 12 11-12Zm0 32-12 12 12 12 11-12Zm0 32-12 12 12 12 11-12Zm0 33-12 12 12 12 11-12Zm0 32-12 12 12 12 11-12Zm0 32-12 12 12 12 11-12Zm0 33-12 11 12 12 11-12Zm0 32-12 12 12 12 11-12Zm0 32-12 12 12 12 11-12Zm-33-290-11 11 11 12 12-12Zm0 32-11 12 11 11 12-11Zm0 33-11 11 11 11 12-11Zm0 32-11 11 11 12 12-12Zm0 32-11 12 11 11 12-11Zm0 32-11 12 11 11 12-11Zm0 33-11 11 11 12 12-12Zm0 32-11 11 11 12 12-12Zm0 32-11 12 11 11 12-11Zm0 33-11 11 11 12 12-12Zm-32-291-11 11 11 12 11-12Zm0 33-11 11 11 11 11-11Zm0 32-11 11 11 11 11-11Zm0 32-11 11 11 11 11-11Zm0 32-11 12 11 11 11-11Zm0 33-11 11 11 11 11-11Zm0 32-11 11 11 11 11-11Zm0 32-11 11 11 12 11-12Zm0 33-11 11 11 11 11-11Zm0 32-11 11 11 11 11-11Zm-32-290-11 10 11 11 10-11Zm0 32-11 11 11 10 10-10Zm0 32-11 11 11 11 10-11Zm0 33-11 10 11 11 10-11Zm0 32-11 11 11 10 10-10Zm0 32-11 11 11 11 10-11Zm0 32-11 11 11 11 10-11Zm0 33-11 10 11 11 10-11Zm0 32-11 11 11 10 10-10Zm0 32-11 11 11 11 10-11Zm-33-290-10 10 10 11 11-11Zm0 32-10 11 10 10 11-10Zm0 33-10 10 10 10 11-10Zm0 32-10 10 10 11 11-11Zm0 32-10 11 10 10 11-10Zm0 33-10 10 10 10 11-10Zm0 32-10 10 10 10 11-10Zm0 32-10 10 10 11 11-11Zm0 32-10 11 10 10 11-10Zm0 33-10 10 10 10 11-10Zm-32-290-10 9 10 10 10-10Zm0 32-10 10 10 10 10-10Zm0 32-10 10 10 10 10-10Zm0 32-10 10 10 10 10-10Zm0 33-10 10 10 9 10-9Zm0 32-10 10 10 10 10-10Zm0 32-10 10 10 10 10-10Zm0 33-10 9 10 10 10-10Zm0 32-10 10 10 10 10-10Zm0 32-10 10 10 10 10-10Zm-32-290-10 9 10 10 9-10Zm0 32-10 10 10 9 9-9Zm0 33-10 9 10 9 9-9Zm0 32-10 9 10 10 9-10Zm0 32-10 10 10 9 9-9Zm0 32-10 10 10 9 9-9Zm0 33-10 9 10 10 9-10Zm0 32-10 9 10 10 9-10Zm0 32-10 10 10 9 9-9Zm0 33-10 9 10 9 9-9Zm-32-291-9 9 9 9 9-9Zm0 33-9 9 9 9 9-9Zm0 32-9 9 9 9 9-9Zm0 32-9 9 9 9 9-9Zm0 33-9 9 9 9 9-9Zm0 32-9 9 9 9 8-9Zm0 32-9 9 9 9 8-9Zm0 32-9 9 9 9 9-9Zm0 33-9 9 9 9 9-9Zm0 32-9 9 9 9 9-9ZM259 284l-7 7 7 6 6-6Zm0 17-7 6 7 7 6-7Zm0 16-7 7 7 6 6-6Zm0 17-7 6 7 7 6-7Zm0 16-7 7 7 6 6-6Zm0 17-7 6 7 7 6-7Zm0 16-7 7 7 6 6-6Zm0 17-7 6 7 7 6-7Zm0 16-7 7 7 6 6-6Zm0 17-7 6 7 7 6-7Zm-17-148-6 6 6 6 7-6Zm0 16-6 6 6 7 7-7Zm0 17-6 6 6 6 7-6Zm0 16-6 6 6 7 7-7Zm0 17-6 6 6 6 7-6Zm0 16-6 6 6 7 7-7Zm0 17-6 6 6 6 7-6Zm0 16-6 6 6 7 7-7Zm0 17-6 6 6 6 7-6Zm0 16-6 6 6 7 7-7Zm-16-148-6 6 6 6 6-6Zm0 16-6 6 6 7 6-7Zm0 17-6 6 6 6 6-6Zm0 16-6 6 6 7 6-7Zm0 17-6 6 6 6 6-6Zm0 16-6 6 6 6 6-6Zm0 17-6 6 6 6 6-6Zm0 16-6 6 6 6 6-6Zm0 17-6 6 6 6 6-6Zm0 16-6 6 6 6 6-6Zm-17-148-5 6 5 6 6-6Zm0 17-5 5 5 6 6-6Zm0 16-5 6 5 6 6-6Zm0 17-5 5 5 6 6-6Zm0 16-5 6 5 6 6-6Zm0 17-5 5 5 6 6-6Zm0 16-5 6 5 6 6-6Zm0 17-5 5 5 6 6-6Zm0 16-5 6 5 6 6-6Zm0 17-5 5 5 6 6-6Zm-16-149-6 6 6 6 6-6Zm0 17-6 5 6 6 6-6Zm0 16-6 6 6 6 6-6Zm0 17-6 5 6 6 6-6Zm0 16-6 6 6 6 6-6Zm0 17-6 5 6 6 6-6Zm0 16-6 6 6 6 6-6Zm0 17-6 5 6 6 6-6Zm0 16-6 6 6 6 6-6Zm0 17-6 5 6 6 6-6Zm-17-148-5 5 5 5 6-5Zm0 16-5 5 5 6 6-6Zm0 16-5 6 5 5 6-5Zm0 17-5 5 5 6 6-6Zm0 16-5 6 5 5 6-5Zm0 17-5 5 5 6 6-6Zm0 16-5 6 5 5 6-5Zm0 17-5 5 5 6 6-6Zm0 16-5 6 5 5 6-5Zm0 17-5 5 5 6 6-6Zm-16-148-5 5 5 5 5-5Zm0 16-5 5 5 6 5-6Zm0 17-5 5 5 5 5-5Zm0 16-5 5 5 6 5-6Zm0 17-5 5 5 5 5-5Zm0 16-5 5 5 6 5-6Zm0 17-5 5 5 5 5-5Zm0 16-5 5 5 6 5-6Zm0 17-5 5 5 5 5-5Zm0 16-5 5 5 6 5-6Zm-17-148-5 5 5 5 6-5Zm0 16-5 5 5 5 6-5Zm0 17-5 5 5 5 6-5Zm0 16-5 5 5 5 6-5Zm0 17-5 5 5 5 6-5Zm0 16-5 5 5 5 6-5Zm0 17-5 5 5 5 6-5Zm0 16-5 5 5 5 6-5Zm0 17-5 5 5 5 6-5Zm0 16-5 5 5 5 6-5Zm-16-148-5 5 5 5 5-5Zm0 17-5 4 5 5 5-5Zm0 16-5 5 5 5 5-5Zm0 17-5 4 5 5 5-5Zm0 16-5 5 5 5 5-5Zm0 17-5 4 5 5 5-5Zm0 16-5 5 5 5 5-5Zm0 17-5 4 5 5 5-5Zm0 16-5 5 5 5 5-5Zm0 17-5 4 5 5 5-5Zm0 0"
          style="stroke:none;fill-rule:nonzero;fill:#ffc800;fill-opacity:1"/>
    <g clip-path="url(#d)">
        <path d="m111 286-5 5 5 5 4-5Zm0 0" style="stroke:none;fill-rule:nonzero;fill:#ffc800;fill-opacity:1"/>
    </g>
    <g clip-path="url(#e)">
        <path d="m111 303-5 4 5 5 4-5Zm0 0" style="stroke:none;fill-rule:nonzero;fill:#ffc800;fill-opacity:1"/>
    </g>
    <g clip-path="url(#f)">
        <path d="m111 319-5 5 5 5 4-5Zm0 0" style="stroke:none;fill-rule:nonzero;fill:#ffc800;fill-opacity:1"/>
    </g>
    <g clip-path="url(#g)">
        <path d="m111 336-5 4 5 5 4-5Zm0 0" style="stroke:none;fill-rule:nonzero;fill:#ffc800;fill-opacity:1"/>
    </g>
    <g clip-path="url(#h)">
        <path d="m111 352-5 5 5 5 4-5Zm0 0" style="stroke:none;fill-rule:nonzero;fill:#ffc800;fill-opacity:1"/>
    </g>
    <g clip-path="url(#i)">
        <path d="m111 369-5 4 5 5 4-5Zm0 0" style="stroke:none;fill-rule:nonzero;fill:#ffc800;fill-opacity:1"/>
    </g>
    <g clip-path="url(#j)">
        <path d="m111 385-5 5 5 4 4-4Zm0 0" style="stroke:none;fill-rule:nonzero;fill:#ffc800;fill-opacity:1"/>
    </g>
    <g clip-path="url(#k)">
        <path d="m111 402-5 4 5 5 4-5Zm0 0" style="stroke:none;fill-rule:nonzero;fill:#ffc800;fill-opacity:1"/>
    </g>
    <g clip-path="url(#l)">
        <path d="m111 418-5 5 5 4 4-4Zm0 0" style="stroke:none;fill-rule:nonzero;fill:#ffc800;fill-opacity:1"/>
    </g>
    <g clip-path="url(#m)">
        <path d="m111 435-5 4 5 5 4-5Zm0 0" style="stroke:none;fill-rule:nonzero;fill:#ffc800;fill-opacity:1"/>
    </g>
</svg>