<svg xmlns="http://www.w3.org/2000/svg" version="1.2" viewBox="139 218 532 577">
    <rect
            x="421" y="545" width="248" height="248"
            fill="#ff791a"
    />
    <circle
        cx="552" cy="304" r="85"
        fill="#ff791a"
    />
    <rect
            x="140" y="325" width="175" height="175"
            fill="#ff791a"
    />
    <path d="m591 326-16 16-16-16 16-16Zm-40 0-16 16-16-16 16-16Zm-41 0-16 16-16-16 16-16Zm-40 0-16 16-16-16 16-16Zm-41 0-16 16-15-16 15-16Zm-40 0-16 16-16-16 16-16Zm-40 0-16 16-16-16 16-16Zm-41 0-16 16-16-16 16-16Zm-40 0-16 16-16-16 16-16Zm-41 0-16 16-16-16 16-16Zm364 40-16 16-15-16 15-15Zm-41 0-15 16-16-16 16-15Zm-40 0-16 16-15-16 15-15Zm-41 0-15 16-16-16 16-15Zm-40 0-16 16-15-16 15-15Zm-40 0-16 16-15-16 15-15Zm-41 0-15 16-16-16 16-15Zm-40 0-16 16-15-16 15-15Zm-41 0-15 16-16-16 16-15Zm-40 0-16 16-15-16 15-15Zm363 41-15 15-15-15 15-15Zm-40 0-15 15-15-15 15-15Zm-41 0-15 15-15-15 15-15Zm-40 0-15 15-15-15 15-15Zm-41 0-15 15-14-15 14-15Zm-40 0-15 15-15-15 15-15Zm-40 0-15 15-15-15 15-15Zm-41 0-15 15-15-15 15-15Zm-40 0-15 15-15-15 15-15Zm-41 0-15 15-15-15 15-15Zm364 40-15 15-14-15 14-14Zm-41 0-14 15-15-15 15-14Zm-40 0-15 15-14-15 14-14Zm-41 0-14 15-14-15 14-14Zm-40 0-15 15-14-15 14-14Zm-41 0-14 15-14-15 14-14Zm-40 0-14 15-15-15 15-14Zm-40 0-15 15-14-15 14-14Zm-41 0-14 15-15-15 15-14Zm-40 0-15 15-14-15 14-14Zm363 41-14 14-14-14 14-14Zm-40 0-14 14-14-14 14-14Zm-41 0-14 14-14-14 14-14Zm-40 0-14 14-14-14 14-14Zm-41 0-14 14-13-14 13-14Zm-40 0-14 14-14-14 14-14Zm-40 0-14 14-14-14 14-14Zm-41 0-14 14-14-14 14-14Zm-40 0-14 14-14-14 14-14Zm-41 0-14 14-14-14 14-14Zm364 40-14 14-13-14 13-13Zm-41 0-13 14-14-14 14-13Zm-40 0-14 14-13-14 13-13Zm-41 0-13 14-13-14 13-13Zm-40 0-14 14-13-14 13-13Zm-41 0-13 14-13-14 13-13Zm-40 0-13 14-14-14 14-13Zm-40 0-14 14-13-14 13-13Zm-41 0-13 14-14-14 14-13Zm-40 0-14 14-13-14 13-13Zm363 41-13 12-13-12 13-13Zm-40 0-13 12-13-12 13-13Zm-41 0-13 12-12-12 12-13Zm-40 0-13 12-13-12 13-13Zm-41 0-13 12-12-12 12-13Zm-40 0-13 12-13-12 13-13Zm-41 0-12 12-13-12 13-13Zm-40 0-13 12-13-12 13-13Zm-40 0-13 12-13-12 13-13Zm-41 0-13 12-12-12 12-13Zm364 40-13 12-12-12 12-12Zm-41 0-12 12-13-12 13-12Zm-40 0-13 12-12-12 12-12Zm-41 0-12 12-12-12 12-12Zm-40 0-13 12-12-12 12-12Zm-41 0-12 12-12-12 12-12Zm-40 0-12 12-13-12 13-12Zm-40 0-13 12-12-12 12-12Zm-41 0-12 12-13-12 13-12Zm-40 0-13 12-12-12 12-12Zm363 40-12 12-12-12 12-11Zm-40 0-12 12-12-12 12-11Zm-41 0-12 12-11-12 11-11Zm-40 0-12 12-12-12 12-11Zm-41 0-12 12-11-12 11-11Zm-40 0-12 12-12-12 12-11Zm-41 0-11 12-12-12 12-11Zm-40 0-12 12-12-12 12-11Zm-40 0-12 12-12-12 12-11Zm-41 0-12 12-11-12 11-11Zm363 41-11 11-11-11 11-11Zm-40 0-11 11-11-11 11-11Zm-40 0-12 11-11-11 11-11Zm-41 0-11 11-11-11 11-11Zm-40 0-12 11-11-11 11-11Zm-41 0-11 11-11-11 11-11Zm-40 0-11 11-12-11 12-11Zm-41 0-11 11-11-11 11-11Zm-40 0-11 11-11-11 11-11Zm-40 0-12 11-11-11 11-11Zm0 0"
          style="stroke:none;fill-rule:nonzero;fill:#ffc800;fill-opacity:1"/>
</svg>