<svg xmlns="http://www.w3.org/2000/svg" version="1.2" viewBox="100 250 610 510">
    <defs>
        <clipPath id="a">
            <path d="M243 253.089844h304V556H243Zm0 0"/>
        </clipPath>
        <clipPath id="b">
            <path d="M677 733h26v25.902344h-26Zm0 0"/>
        </clipPath>
        <clipPath id="c">
            <path d="M645 733h26v25.902344h-26Zm0 0"/>
        </clipPath>
        <clipPath id="d">
            <path d="M105.914062 286H116v10h-10.085938Zm0 0"/>
        </clipPath>
        <clipPath id="e">
            <path d="M105.914062 302H116v11h-10.085938Zm0 0"/>
        </clipPath>
        <clipPath id="f">
            <path d="M105.914062 319H116v10h-10.085938Zm0 0"/>
        </clipPath>
        <clipPath id="g">
            <path d="M105.914062 335H116v11h-10.085938Zm0 0"/>
        </clipPath>
        <clipPath id="h">
            <path d="M105.914062 352H116v10h-10.085938Zm0 0"/>
        </clipPath>
        <clipPath id="i">
            <path d="M105.914062 368H116v10h-10.085938Zm0 0"/>
        </clipPath>
        <clipPath id="j">
            <path d="M105.914062 385H116v10h-10.085938Zm0 0"/>
        </clipPath>
        <clipPath id="k">
            <path d="M105.914062 401H116v10h-10.085938Zm0 0"/>
        </clipPath>
        <clipPath id="l">
            <path d="M105.914062 418H116v10h-10.085938Zm0 0"/>
        </clipPath>
        <clipPath id="m">
            <path d="M105.914062 434H116v10h-10.085938Zm0 0"/>
        </clipPath>
    </defs>
    <g clip-path="url(#a)">
        <path d="M243.996094 252.996094v302.683594h302.683594V252.996094Zm0 0"
              style="stroke:none;fill-rule:nonzero;fill:#ff791a;fill-opacity:1"/>
    </g>
    <path d="M256.550781 649.472656v64.574219h64.578125v-64.574219Zm362.0625-354.429687v85.230469h85.230469v-85.230469Zm0 0"
          style="stroke:none;fill-rule:nonzero;fill:#ff791a;fill-opacity:1"/>
    <path d="m690.101562 442.671875-12.753906 12.753906 12.753906 12.753907 12.75-12.753907Zm-.003906 32.289063-12.75 12.753906 12.75 12.753906 12.753906-12.753906Zm0 32.28125-12.753906 12.753906L690.097656 532.75l12.753906-12.753906Zm.003906 32.289062-12.75 12.753906 12.75 12.753906 12.753907-12.753906Zm-.003906 32.292969-12.753906 12.753906 12.753906 12.753906 12.753906-12.753906Zm0 32.289062-12.753906 12.753907 12.753906 12.753906 12.75-12.753906Zm0 32.289063L677.34375 649.15625l12.753906 12.753906 12.75-12.753906Zm-.003906 32.289062-12.75 12.753906 12.75 12.753907 12.753906-12.753907Zm.007812 32.289063-12.753906 12.753906 12.753906 12.75 12.75-12.75Zm0 0"
          style="stroke:none;fill-rule:nonzero;fill:#ffc800;fill-opacity:1"/>
    <g clip-path="url(#b)">
        <path d="m690.097656 733.269531-12.75 12.753907 12.75 12.75 12.753906-12.75Zm0 0"
              style="stroke:none;fill-rule:nonzero;fill:#ffc800;fill-opacity:1"/>
    </g>
    <path d="m657.8125 443.09375-12.335938 12.335938 12.335938 12.335937 12.335938-12.335937Zm-.003906 32.289062-12.335938 12.335938 12.335938 12.335938 12.335937-12.335938Zm.007812 32.289063-12.335937 12.335937 12.335937 12.335938 12.335938-12.335938Zm0 32.289063-12.335937 12.335937 12.335937 12.335937 12.332032-12.335937Zm-.003906 32.28125-12.335938 12.335937 12.335938 12.335937 12.335938-12.335937Zm0 32.289062-12.335938 12.335938 12.335938 12.335937 12.335938-12.335937Zm0 32.289062-12.335938 12.335938 12.335938 12.335938 12.335938-12.335938Zm.003906 32.289063-12.335937 12.335937 12.335937 12.335938 12.335938-12.335938Zm0 32.289063-12.335937 12.332031 12.335937 12.335937 12.335938-12.335937Zm0 0"
          style="stroke:none;fill-rule:nonzero;fill:#ffc800;fill-opacity:1"/>
    <g clip-path="url(#c)">
        <path d="m657.8125 733.691406-12.335938 12.335938 12.335938 12.335937 12.332031-12.335937Zm0 0"
              style="stroke:none;fill-rule:nonzero;fill:#ffc800;fill-opacity:1"/>
    </g>
    <path d="m625.523438 443.503906-11.921876 11.917969 11.921876 11.921875 11.917968-11.921875Zm-.003907 32.289063-11.917969 11.917969 11.917969 11.921874 11.921875-11.921874Zm.007813 32.289062L613.609375 520l11.917969 11.917969L637.445312 520Zm-.007813 32.292969-11.917969 11.917969 11.917969 11.921875 11.921875-11.921875Zm0 32.289062-11.917969 11.917969L625.519531 596.5l11.917969-11.917969Zm0 32.28125-11.917969 11.917969 11.917969 11.921875 11.917969-11.921875Zm.003907 32.289063-11.917969 11.917969 11.917969 11.921875 11.921874-11.921875Zm0 32.289063-11.917969 11.917968 11.917969 11.917969 11.917968-11.917969Zm0 32.289062-11.917969 11.917969 11.917969 11.917969 11.917968-11.917969Zm0 32.289062-11.921876 11.917969 11.921876 11.917969 11.917968-11.917969Zm-32.289063-290.175781-11.496094 11.496094 11.496094 11.496094 11.496094-11.496094Zm.003906 32.289063-11.496093 11.496094 11.496093 11.496093 11.496094-11.496093Zm0 32.289062L581.742188 520l11.496093 11.496094L604.734375 520Zm0 32.289063-11.5 11.496093 11.5 11.496094 11.496094-11.496094Zm-.003906 32.289062-11.496094 11.496094 11.496094 11.496094 11.5-11.496094Zm0 32.285157-11.496094 11.5 11.496094 11.496093 11.5-11.496093Zm.007813 32.289062-11.5 11.5 11.5 11.496094 11.496093-11.496094Zm-.003907 32.285156L581.742188 681.4375l11.496093 11.496094 11.5-11.496094Zm-.003906 32.292969-11.496094 11.496094 11.496094 11.496093 11.496094-11.496093Zm0 32.289063-11.5 11.496093 11.5 11.496094 11.496094-11.496094Zm-32.28125-290.179688-11.082031 11.078125 11.082031 11.082031 11.078125-11.082031Zm-.003906 32.28125-11.078125 11.082031 11.078125 11.078125 11.082031-11.078125Zm-.003907 32.292969L549.863281 520l11.082031 11.078125L572.023438 520Zm0 32.289062-11.082031 11.082031 11.082031 11.078126 11.078126-11.078126Zm-.003906 32.289063-11.078125 11.082031 11.078125 11.078125 11.082032-11.078125Zm.007813 32.289062-11.082031 11.082032 11.082031 11.078124 11.078125-11.078124Zm0 32.289063-11.082031 11.078125 11.082031 11.082031 11.078125-11.082031Zm-.003907 32.289062-11.078124 11.078125 11.078124 11.082032 11.082032-11.082032Zm0 32.289063-11.082031 11.078125 11.082031 11.082031 11.082032-11.082031Zm0 32.28125-11.082031 11.082031 11.082031 11.078125 11.078126-11.078125Zm-32.28125-290.167969L518 455.425781l10.664062 10.664063 10.664063-10.664063Zm-.003906 32.285156-10.664062 10.664063 10.664062 10.664062 10.664063-10.664062Zm0 32.285157L517.996094 520l10.664062 10.660156L539.324219 520Zm0 32.289062-10.664062 10.660156 10.664062 10.664063 10.664063-10.664063Zm0 32.285156-10.664062 10.664063 10.664062 10.664062 10.664063-10.664062Zm.003906 32.289063L518 616.863281l10.664062 10.664063 10.664063-10.664063Zm0 32.289062L518 649.152344l10.664062 10.664062 10.664063-10.664062Zm-.007812 32.292969-10.664062 10.664062 10.664062 10.664063 10.664062-10.664063Zm0 32.289062-10.664062 10.664063 10.664062 10.664063 10.664062-10.664063Zm.007812 32.289063L518 746.023438l10.664062 10.664062 10.660157-10.664062ZM496.375 445.175781l-10.246094 10.246094L496.375 465.667969l10.246094-10.246094Zm-.007812 32.292969-10.246094 10.246094 10.246094 10.246094 10.25-10.246094Zm0 32.289062-10.246094 10.246094L496.367188 530.25l10.246093-10.246094Zm0 32.289063-10.246094 10.246094 10.246094 10.246093 10.246093-10.246093Zm.003906 32.28125L486.125 584.574219l10.246094 10.246093 10.246094-10.246093Zm0 32.289063L486.125 616.863281l10.246094 10.246094 10.246094-10.246094Zm0 32.289062L486.125 649.152344l10.246094 10.246094 10.246094-10.246094Zm-.003906 32.289062-10.246094 10.246094 10.246094 10.246094 10.25-10.246094Zm0 32.289063-10.246094 10.246094 10.246094 10.246093 10.246093-10.246093Zm.007812 32.285156-10.25 10.25 10.25 10.246094 10.246094-10.246094Zm-32.292969-290.179687L454.25 455.421875l9.832031 9.828125 9.828125-9.828125Zm-.003906 32.289062L454.25 487.710938l9.828125 9.828124 9.832031-9.828124Zm0 32.289063L454.25 520l9.828125 9.828125L473.910156 520Zm0 32.289062-9.832031 9.828125 9.832031 9.832032 9.828125-9.832032Zm.003906 32.289063-9.828125 9.828125 9.828125 9.832031 9.832031-9.832031Zm0 32.289062-9.828125 9.828125 9.828125 9.832031 9.832031-9.832031Zm-.003906 32.285156-9.832031 9.832032 9.832031 9.828125 9.828125-9.828125Zm-.003906 32.289063-9.828125 9.832031 9.828125 9.828125 9.832031-9.828125Zm.007812 32.289063L454.25 713.730469l9.832031 9.828125 9.828125-9.828125Zm-.003906 32.289062L454.25 746.015625l9.828125 9.832031 9.832031-9.832031Zm-32.285156-290.175781-9.414063 9.414062 9.414063 9.410157 9.414062-9.410157Zm-.003907 32.289062-9.410156 9.414063 9.410156 9.410156 9.414063-9.410156Zm0 32.289063L422.375 520l9.414062 9.414062L441.203125 520Zm.007813 32.289062-9.414063 9.410156 9.414063 9.414063 9.410156-9.414063Zm-.003906 32.285156-9.410157 9.414063 9.410157 9.414063 9.414062-9.414063Zm0 32.289063-9.414063 9.414063 9.414063 9.414062 9.414062-9.414062Zm0 32.289063-9.414063 9.414062 9.414063 9.414062 9.414062-9.414062Zm0 32.289062-9.414063 9.414062 9.414063 9.414063 9.410156-9.414063Zm.003906 32.28125-9.414063 9.414062 9.414063 9.414063 9.414063-9.414063Zm0 32.289062-9.414063 9.414063 9.414063 9.414063 9.414063-9.414063Zm-32.292969-290.171874-8.996094 8.996093 8.996094 8.996094L408.5 455.425781ZM399.5 478.710938l-8.996094 8.996093L399.5 496.703125l9-8.996094ZM399.507812 511l-8.996093 8.996094 8.996093 8.996094 8.996094-8.996094Zm0 32.289062-8.996093 8.996094 8.996093 8.996094 8.996094-8.996094Zm0 32.289063-9 8.996094 9 8.996093 8.996094-8.996093ZM399.5 607.871094l-8.996094 8.996094L399.5 625.863281l8.996094-8.996093Zm0 32.289062-8.996094 8.996094L399.5 658.152344l8.996094-8.996094Zm.003906 32.289063-8.996094 8.996093 8.996094 8.996094L408.5 681.445312Zm0 32.289062-8.996094 8.996094 8.996094 8.996094L408.5 713.734375Zm0 32.28125-8.996094 8.996094 8.996094 8.996094L408.5 746.015625ZM258.929688 284.4375l-6.515626 6.515625 6.515626 6.515625 6.511718-6.515625Zm-.003907 16.496094-6.515625 6.515625 6.515625 6.515625 6.511719-6.515625Zm0 16.492187-6.515625 6.515625 6.515625 6.511719 6.515625-6.511719Zm.003907 16.488281-6.515626 6.515626 6.515626 6.515624 6.511718-6.515624Zm-.007813 16.488282-6.511719 6.515625 6.511719 6.515625 6.515625-6.515625Zm.003906 16.5-6.515625 6.511718 6.515625 6.515626 6.515625-6.515626Zm-.003906 16.488281-6.515625 6.515625 6.515625 6.511719 6.511719-6.511719Zm0 16.488281-6.511719 6.515625 6.511719 6.515625 6.515625-6.515625Zm.007813 16.484375-6.515626 6.515625 6.515626 6.515625 6.515624-6.515625Zm-.003907 16.496094-6.515625 6.515625 6.515625 6.515625 6.515625-6.515625Zm-16.496093-148.207031-6.300782 6.296875 6.300782 6.300781 6.296874-6.300781Zm0 16.488281-6.300782 6.300781 6.300782 6.296875 6.300781-6.296875Zm0 16.492187-6.296876 6.296876 6.296876 6.300781 6.300781-6.300781Zm-.003907 16.496094-6.296875 6.296875 6.296875 6.300781 6.300781-6.300781Zm.003907 16.488282-6.300782 6.296874 6.300782 6.300782 6.296874-6.300782Zm-.003907 16.488281L236.125 373.40625l6.300781 6.296875 6.296875-6.296875Zm.003907 16.484375-6.296876 6.300781 6.296876 6.296875 6.300781-6.296875Zm.003906 16.496094-6.300782 6.300781 6.300782 6.300781 6.296875-6.300781Zm-.003906 16.492187-6.300782 6.296875 6.300782 6.300781 6.296874-6.300781Zm0 16.488281-6.296876 6.300782 6.296876 6.296874 6.300781-6.296874ZM225.9375 284.863281l-6.085938 6.085938 6.085938 6.089843 6.089844-6.089843Zm.003906 16.496094-6.089844 6.085937 6.089844 6.089844 6.085938-6.089844Zm-.007812 16.488281-6.085938 6.089844 6.085938 6.085938 6.089844-6.085938Zm.003906 16.492188-6.089844 6.085937 6.089844 6.089844 6.089844-6.089844Zm.007812 16.488281-6.089843 6.089844 6.089843 6.089843 6.085938-6.089843Zm-.003906 16.492187-6.089844 6.085938 6.089844 6.089844 6.085938-6.089844Zm0 16.488282-6.089844 6.089844 6.089844 6.085937 6.089844-6.085937Zm-.003906 16.488281-6.089844 6.089844 6.089844 6.089843 6.085938-6.089843Zm.003906 16.496094-6.089844 6.089843 6.089844 6.089844 6.085938-6.089844Zm0 16.492187-6.089844 6.085938 6.089844 6.089844 6.085938-6.089844Zm-16.492187-148.207031-5.875 5.875 5.875 5.871094 5.871093-5.871094Zm-.003907 16.492187-5.875 5.871094 5.875 5.875 5.871094-5.875Zm.003907 16.492188-5.871094 5.871094 5.871094 5.875 5.875-5.875Zm.003906 16.488281-5.875 5.875 5.875 5.871094 5.871094-5.871094Zm-.003906 16.488281-5.875 5.875 5.875 5.871094 5.871093-5.871094Zm0 16.492188-5.871094 5.871094 5.871094 5.875 5.875-5.875Zm.003906 16.496094-5.875 5.871094 5.875 5.875 5.871094-5.875Zm-.007813 16.488281-5.871093 5.875 5.871093 5.871094 5.875-5.871094Zm.003907 16.488281-5.871094 5.875 5.871094 5.871094 5.875-5.871094ZM209.445312 433.5l-5.871093 5.875 5.871093 5.871094 5.871094-5.871094Zm-16.480468-148.207031-5.664063 5.664062 5.664063 5.660157 5.660156-5.660157Zm-.003906 16.488281-5.664063 5.664062 5.664063 5.660157 5.660156-5.660157Zm0 16.492188-5.660157 5.660156 5.660157 5.664062 5.664062-5.664062Zm-.003907 16.496093-5.664062 5.660157 5.664062 5.664062 5.660157-5.664062Zm0 16.488281-5.660156 5.664063 5.660156 5.660156 5.664063-5.660156Zm.003907 16.488282-5.664063 5.664062 5.664063 5.660156 5.660156-5.660156Zm-.003907 16.492187-5.664062 5.660157 5.664062 5.664062 5.660157-5.664062Zm0 16.496094-5.660156 5.660156 5.660156 5.664063 5.664063-5.664063Zm0 16.484375-5.660156 5.660156 5.660156 5.664063 5.664063-5.664063Zm.003907 16.488281-5.664063 5.664063 5.664063 5.660156 5.660156-5.660156ZM176.46875 285.503906l-5.449219 5.445313 5.449219 5.449219 5.445312-5.449219Zm0 16.496094-5.445312 5.445312 5.445312 5.449219 5.449219-5.449219Zm.003906 16.488281-5.449218 5.449219 5.449218 5.445312 5.445313-5.445312Zm-.003906 16.492188-5.449219 5.445312 5.449219 5.445313 5.445312-5.445313Zm0 16.488281-5.445312 5.445312 5.445312 5.449219 5.445312-5.449219Zm-.003906 16.496094-5.449219 5.445312 5.449219 5.449219 5.445312-5.449219Zm.007812 16.484375-5.449218 5.449219 5.449218 5.445312 5.445313-5.445312Zm0 16.488281-5.445312 5.449219 5.445312 5.445312 5.449219-5.445312Zm-.003906 16.492188-5.445312 5.445312 5.445312 5.449219 5.445312-5.449219Zm0 16.496093-5.445312 5.445313 5.445312 5.449218 5.449219-5.449218Zm-16.492188-148.203125-5.234374 5.234375 5.234374 5.234375 5.238282-5.234375Zm.003907 16.488282-5.234375 5.234374 5.234375 5.238282 5.234375-5.238282Zm-.003907 16.488281-5.238281 5.238281 5.238281 5.234375 5.234376-5.234375Zm0 16.496093-5.234374 5.238282 5.234374 5.234375 5.238282-5.234375Zm.007813 16.484376-5.238281 5.238281 5.238281 5.234375 5.234375-5.234375Zm-.003906 16.492187-5.238281 5.234375 5.238281 5.238281 5.234375-5.238281Zm0 16.496094-5.234375 5.234375 5.234375 5.238281 5.238281-5.238281Zm-.003907 16.488281-5.234374 5.238281 5.234374 5.234375 5.234376-5.234375Zm.003907 16.488281-5.238281 5.238281 5.238281 5.234376 5.234375-5.234376Zm0 16.492188-5.234375 5.234375 5.234375 5.238281 5.234375-5.238281ZM143.488281 285.9375l-5.019531 5.023438 5.019531 5.019531 5.019531-5.019531Zm-.003906 16.492188-5.019531 5.019531 5.019531 5.019531 5.019531-5.019531Zm.003906 16.484374-5.019531 5.019532 5.019531 5.019531 5.023438-5.019531Zm.003907 16.488282-5.019532 5.019531 5.019532 5.023437 5.019531-5.023437Zm-.003907 16.496094-5.019531 5.019531 5.019531 5.023437 5.019531-5.023437Zm0 16.488281-5.019531 5.023437 5.019531 5.019532 5.023438-5.019532Zm-.003906 16.492187-5.019531 5.019532 5.019531 5.019531 5.019531-5.019531Zm.003906 16.488282-5.023437 5.019531 5.023437 5.023437 5.019531-5.023437Zm0 16.496093-5.019531 5.019531 5.019531 5.023438 5.019531-5.023438Zm-.003906 16.488281-5.019531 5.023438 5.019531 5.019531 5.019531-5.019531Zm-16.480469-148.207031-4.808594 4.808594 4.808594 4.8125 4.808594-4.8125ZM127 302.632812l-4.8125 4.8125L127 312.253906l4.808594-4.808594Zm0 16.5-4.808594 4.808594L127 328.75l4.8125-4.808594Zm-.003906 16.488282-4.808594 4.808594 4.808594 4.808593 4.808594-4.808593ZM127 352.109375l-4.8125 4.808594 4.8125 4.8125 4.808594-4.8125Zm0 16.488281-4.808594 4.8125L127 378.21875l4.808594-4.808594Zm-.003906 16.496094-4.808594 4.8125 4.808594 4.808594 4.808594-4.808594Zm0 16.492188-4.808594 4.808593 4.808594 4.808594 4.8125-4.808594Zm0 16.484374-4.808594 4.808594 4.808594 4.808594 4.8125-4.808594ZM127 434.566406l-4.808594 4.808594L127 444.183594l4.808594-4.808594Zm0 0"
          style="stroke:none;fill-rule:nonzero;fill:#ffc800;fill-opacity:1"/>
    <g clip-path="url(#d)">
        <path d="m110.503906 286.359375-4.597656 4.59375 4.597656 4.59375 4.59375-4.59375Zm0 0"
              style="stroke:none;fill-rule:nonzero;fill:#ffc800;fill-opacity:1"/>
    </g>
    <g clip-path="url(#e)">
        <path d="m110.503906 302.847656-4.59375 4.59375 4.59375 4.59375 4.59375-4.59375Zm0 0"
              style="stroke:none;fill-rule:nonzero;fill:#ffc800;fill-opacity:1"/>
    </g>
    <g clip-path="url(#f)">
        <path d="m110.5 319.335938-4.59375 4.59375 4.59375 4.597656 4.59375-4.597656Zm0 0"
              style="stroke:none;fill-rule:nonzero;fill:#ffc800;fill-opacity:1"/>
    </g>
    <g clip-path="url(#g)">
        <path d="m110.503906 335.832031-4.597656 4.59375 4.597656 4.597657 4.59375-4.597657Zm0 0"
              style="stroke:none;fill-rule:nonzero;fill:#ffc800;fill-opacity:1"/>
    </g>
    <g clip-path="url(#h)">
        <path d="m110.503906 352.324219-4.59375 4.59375 4.59375 4.59375 4.59375-4.59375Zm0 0"
              style="stroke:none;fill-rule:nonzero;fill:#ffc800;fill-opacity:1"/>
    </g>
    <g clip-path="url(#i)">
        <path d="m110.5 368.8125-4.59375 4.59375L110.5 378l4.59375-4.59375Zm0 0"
              style="stroke:none;fill-rule:nonzero;fill:#ffc800;fill-opacity:1"/>
    </g>
    <g clip-path="url(#j)">
        <path d="m110.507812 385.296875-4.59375 4.59375 4.59375 4.59375 4.59375-4.59375Zm0 0"
              style="stroke:none;fill-rule:nonzero;fill:#ffc800;fill-opacity:1"/>
    </g>
    <g clip-path="url(#k)">
        <path d="m110.507812 401.792969-4.59375 4.59375 4.59375 4.59375 4.59375-4.59375Zm0 0"
              style="stroke:none;fill-rule:nonzero;fill:#ffc800;fill-opacity:1"/>
    </g>
    <g clip-path="url(#l)">
        <path d="m110.503906 418.28125-4.59375 4.597656 4.59375 4.59375 4.59375-4.59375Zm0 0"
              style="stroke:none;fill-rule:nonzero;fill:#ffc800;fill-opacity:1"/>
    </g>
    <g clip-path="url(#m)">
        <path d="m110.503906 434.773438-4.59375 4.59375 4.59375 4.59375 4.597656-4.59375Zm0 0"
              style="stroke:none;fill-rule:nonzero;fill:#ffc800;fill-opacity:1"/>
    </g>
</svg>