<svg xmlns="http://www.w3.org/2000/svg" xmlns:xlink="http://www.w3.org/1999/xlink" width="1080" zoomAndPan="magnify" viewBox="0 0 810 1012.49997" height="1350" preserveAspectRatio="xMidYMid meet" version="1.2"><defs><clipPath id="92555c3f9a"><path d="M 236 144 L 651 144 L 651 704 L 236 704 Z M 236 144 "/></clipPath><clipPath id="ea7bb9bb8c"><path d="M 212.160156 696.382812 L 254.449219 131.246094 L 664.101562 161.898438 L 621.8125 727.039062 Z M 212.160156 696.382812 "/></clipPath><clipPath id="1eb65121f9"><path d="M 212.160156 696.382812 L 254.449219 131.246094 L 664.101562 161.898438 L 621.8125 727.039062 Z M 212.160156 696.382812 "/></clipPath><filter x="0%" y="0%" width="100%" filterUnits="objectBoundingBox" id="3787e76dfa" height="100%"><feColorMatrix values="0 0 0 0 1 0 0 0 0 1 0 0 0 0 1 0 0 0 1 0" type="matrix" in="SourceGraphic"/></filter><clipPath id="39da80d982"><path d="M 31 32 L 446 32 L 446 549 L 31 549 Z M 31 32 "/></clipPath><clipPath id="4a2b027646"><path d="M 378.816406 589.601562 L 1.289062 520.441406 L 96.113281 2.8125 L 473.640625 71.972656 Z M 378.816406 589.601562 "/></clipPath><clipPath id="c53e98d9fa"><path d="M 0.988281 520.386719 L 378.515625 589.546875 L 473.339844 71.917969 L 95.8125 2.757812 Z M 0.988281 520.386719 "/></clipPath><clipPath id="3361953ef8"><path d="M 1.730469 520.519531 L 377.613281 589.378906 L 472.375 72.082031 L 96.492188 3.226562 Z M 1.730469 520.519531 "/></clipPath><clipPath id="dbf05616d1"><rect x="0" width="474" y="0" height="594"/></clipPath><clipPath id="083443d6de"><path d="M 218.5625 522 L 490 522 L 490 794 L 218.5625 794 Z M 218.5625 522 "/></clipPath><clipPath id="fbdbb1e8b6"><path d="M 435 469.34375 L 509 469.34375 L 509 543 L 435 543 Z M 435 469.34375 "/></clipPath><clipPath id="eb060e6497"><path d="M 228 800 L 309 800 L 309 880.890625 L 228 880.890625 Z M 228 800 "/></clipPath><clipPath id="98ec52bee8"><path d="M 594 722 L 602.375 722 L 602.375 730 L 594 730 Z M 594 722 "/></clipPath></defs><g id="85a0960ebf"><g clip-rule="nonzero" clip-path="url(#92555c3f9a)"><g clip-rule="nonzero" clip-path="url(#ea7bb9bb8c)"><g clip-rule="nonzero" clip-path="url(#1eb65121f9)"><path style=" stroke:none;fill-rule:evenodd;fill:#ffc513;fill-opacity:1;" d="M 243.261719 291.253906 C 245.273438 260.921875 256.191406 235.644531 269.238281 211.0625 C 280.875 189.136719 297.085938 171.304688 317.292969 157 C 338.980469 141.652344 361.859375 139.839844 385.144531 152.328125 C 396.070312 158.179688 406.199219 165.648438 416.1875 173.058594 C 426.140625 180.464844 436.527344 186.90625 449.113281 187.273438 C 461.832031 187.636719 474.609375 186.679688 487.347656 186.058594 C 499.167969 185.488281 511.019531 183.550781 522.777344 184.070312 C 559.441406 185.691406 590.152344 200.804688 615.601562 227.101562 C 643.496094 255.886719 654.34375 290.386719 649.546875 329.796875 C 648.617188 337.429688 645.835938 345.34375 641.988281 352.042969 C 635.644531 363.070312 628.503906 373.828125 620.347656 383.574219 C 604.222656 402.839844 592.539062 424.121094 587.382812 448.738281 C 584.816406 460.972656 583.84375 473.332031 585.730469 485.855469 C 589.332031 509.847656 589.679688 533.796875 581.699219 557.042969 C 574.878906 576.910156 563.90625 594.253906 548.023438 608.347656 C 536.464844 618.609375 523.429688 620.722656 508.9375 616.613281 C 491.695312 611.734375 474.457031 606.839844 457.195312 602.054688 C 445.234375 598.753906 433.089844 599.105469 420.976562 600.921875 C 413.636719 602.027344 407.664062 605.679688 404.472656 612.515625 C 401.414062 619.097656 398.605469 625.871094 396.425781 632.796875 C 392.210938 646.167969 388.074219 659.527344 379.816406 671.101562 C 368.273438 687.273438 353.75 698.90625 333.476562 702.34375 C 320.113281 704.613281 307.640625 701.9375 296.886719 694.601562 C 264.539062 672.546875 243.636719 642.644531 237.285156 603.421875 C 235.003906 589.347656 238.28125 576.148438 244.214844 563.589844 C 249.265625 552.875 254.792969 542.359375 260.550781 532.007812 C 270 515.027344 276.65625 497.425781 277.160156 477.636719 C 277.546875 462.769531 274.109375 448.6875 270.570312 434.535156 C 262.769531 403.300781 254.539062 372.167969 247.1875 340.816406 C 243.230469 323.925781 241.722656 306.628906 243.261719 291.253906 Z M 243.261719 291.253906 "/></g></g></g><g mask="url(#93933be178)" transform="matrix(1,0,0,1,145,206)"><g clip-path="url(#dbf05616d1)"><g clip-rule="nonzero" clip-path="url(#39da80d982)"><g clip-rule="nonzero" clip-path="url(#4a2b027646)"><g clip-rule="nonzero" clip-path="url(#c53e98d9fa)"><g clip-rule="nonzero" clip-path="url(#3361953ef8)"><path style=" stroke:none;fill-rule:nonzero;fill:#ffffff;fill-opacity:1;" d="M 152.128906 535.089844 C 122.023438 529.578125 94.730469 503.304688 76.714844 475.660156 C 42.511719 423.148438 28.449219 347.375 67.742188 304.128906 C 85.128906 285.019531 99.148438 277.402344 110.402344 271.292969 C 139.574219 255.449219 147.6875 246.445312 141.007812 146.589844 C 139.058594 117.554688 150.242188 89.664062 171.65625 70.082031 C 192.992188 50.550781 221.621094 41.945312 250.195312 46.429688 C 278.960938 50.949219 299.765625 54.160156 315.226562 56.464844 C 316.703125 56.683594 318.191406 56.941406 319.660156 57.210938 C 385.316406 69.238281 433.472656 127.257812 432.386719 193.996094 C 431.507812 249.070312 419.578125 286.921875 396.960938 306.457031 C 380.546875 320.628906 357.589844 325.90625 328.734375 322.140625 C 262.515625 313.472656 252.5625 369.289062 242.929688 423.273438 C 234.574219 470.1875 225.925781 518.707031 182.804688 533.015625 C 172.429688 536.472656 162.113281 536.921875 152.128906 535.089844 Z M 321.984375 44.535156 C 320.367188 44.238281 318.761719 43.960938 317.132812 43.730469 C 301.707031 41.417969 280.917969 38.222656 252.183594 33.707031 C 219.71875 28.597656 187.203125 38.386719 162.957031 60.574219 C 138.632812 82.8125 125.941406 114.488281 128.144531 147.4375 C 134.582031 243.5 126.929688 247.65625 104.253906 259.964844 C 92.773438 266.203125 77.070312 274.722656 58.210938 295.457031 C 14.515625 343.542969 29.019531 426.035156 65.925781 482.691406 C 99.878906 534.816406 146.21875 558.777344 186.878906 545.242188 C 237.261719 528.511719 247.011719 473.796875 255.617188 425.527344 C 266.421875 364.96875 275.652344 328.175781 327.058594 334.917969 C 359.714844 339.175781 386.082031 332.882812 405.371094 316.21875 C 431.253906 293.855469 444.316406 253.941406 445.277344 194.207031 C 446.476562 121.175781 393.777344 57.6875 321.984375 44.535156 "/></g></g></g></g></g><mask id="93933be178"><g filter="url(#3787e76dfa)"><rect x="0" width="810" y="0" height="1012.49997" style="fill:#000000;fill-opacity:0.73;stroke:none;"/></g></mask></g><g clip-rule="nonzero" clip-path="url(#083443d6de)"><path style=" stroke:none;fill-rule:nonzero;fill:#ff680e;fill-opacity:1;" d="M 354.136719 522.484375 L 489.730469 658.078125 L 354.136719 793.671875 L 218.546875 658.078125 Z M 354.136719 522.484375 "/></g><g clip-rule="nonzero" clip-path="url(#fbdbb1e8b6)"><path style=" stroke:none;fill-rule:nonzero;fill:#ff680e;fill-opacity:1;" d="M 471.886719 469.386719 L 508.410156 505.910156 L 471.886719 542.429688 L 435.367188 505.910156 Z M 471.886719 469.386719 "/></g><g clip-rule="nonzero" clip-path="url(#eb060e6497)"><path style=" stroke:none;fill-rule:nonzero;fill:#ff680e;fill-opacity:1;" d="M 268.097656 800.226562 L 308.082031 840.214844 L 268.097656 880.199219 L 228.109375 840.214844 Z M 268.097656 800.226562 "/></g><path style=" stroke:none;fill-rule:nonzero;fill:#ffcc00;fill-opacity:1;" d="M 351.3125 720.851562 L 361.929688 720.851562 L 361.929688 731.472656 L 351.3125 731.472656 Z M 351.3125 720.851562 "/><path style=" stroke:none;fill-rule:nonzero;fill:#ffcc00;fill-opacity:1;" d="M 364.757812 734.296875 L 375.375 734.296875 L 375.375 744.914062 L 364.757812 744.914062 Z M 364.757812 734.296875 "/><path style=" stroke:none;fill-rule:nonzero;fill:#ffcc00;fill-opacity:1;" d="M 378.199219 747.746094 L 388.816406 747.746094 L 388.816406 758.363281 L 378.199219 758.363281 Z M 378.199219 747.746094 "/><path style=" stroke:none;fill-rule:nonzero;fill:#ffcc00;fill-opacity:1;" d="M 391.644531 761.1875 L 402.261719 761.1875 L 402.261719 771.808594 L 391.644531 771.808594 Z M 391.644531 761.1875 "/><path style=" stroke:none;fill-rule:nonzero;fill:#ffcc00;fill-opacity:1;" d="M 405.09375 774.632812 L 415.710938 774.632812 L 415.710938 785.25 L 405.09375 785.25 Z M 405.09375 774.632812 "/><path style=" stroke:none;fill-rule:nonzero;fill:#ffcc00;fill-opacity:1;" d="M 418.535156 788.078125 L 429.152344 788.078125 L 429.152344 798.695312 L 418.535156 798.695312 Z M 418.535156 788.078125 "/><path style=" stroke:none;fill-rule:nonzero;fill:#ffcc00;fill-opacity:1;" d="M 431.980469 801.523438 L 442.597656 801.523438 L 442.597656 812.144531 L 431.980469 812.144531 Z M 431.980469 801.523438 "/><path style=" stroke:none;fill-rule:nonzero;fill:#ffcc00;fill-opacity:1;" d="M 445.421875 814.96875 L 456.039062 814.96875 L 456.039062 825.585938 L 445.421875 825.585938 Z M 445.421875 814.96875 "/><path style=" stroke:none;fill-rule:nonzero;fill:#ffcc00;fill-opacity:1;" d="M 458.871094 828.414062 L 469.488281 828.414062 L 469.488281 839.03125 L 458.871094 839.03125 Z M 458.871094 828.414062 "/><path style=" stroke:none;fill-rule:nonzero;fill:#ffcc00;fill-opacity:1;" d="M 472.316406 841.855469 L 482.933594 841.855469 L 482.933594 852.472656 L 472.316406 852.472656 Z M 472.316406 841.855469 "/><path style=" stroke:none;fill-rule:nonzero;fill:#ffcc00;fill-opacity:1;" d="M 364.929688 707.578125 L 375.203125 707.578125 L 375.203125 717.851562 L 364.929688 717.851562 Z M 364.929688 707.578125 "/><path style=" stroke:none;fill-rule:nonzero;fill:#ffcc00;fill-opacity:1;" d="M 378.375 721.027344 L 388.648438 721.027344 L 388.648438 731.300781 L 378.375 731.300781 Z M 378.375 721.027344 "/><path style=" stroke:none;fill-rule:nonzero;fill:#ffcc00;fill-opacity:1;" d="M 391.816406 734.472656 L 402.089844 734.472656 L 402.089844 744.746094 L 391.816406 744.746094 Z M 391.816406 734.472656 "/><path style=" stroke:none;fill-rule:nonzero;fill:#ffcc00;fill-opacity:1;" d="M 405.261719 747.914062 L 415.535156 747.914062 L 415.535156 758.1875 L 405.261719 758.1875 Z M 405.261719 747.914062 "/><path style=" stroke:none;fill-rule:nonzero;fill:#ffcc00;fill-opacity:1;" d="M 418.710938 761.363281 L 428.984375 761.363281 L 428.984375 771.636719 L 418.710938 771.636719 Z M 418.710938 761.363281 "/><path style=" stroke:none;fill-rule:nonzero;fill:#ffcc00;fill-opacity:1;" d="M 432.152344 774.808594 L 442.425781 774.808594 L 442.425781 785.082031 L 432.152344 785.082031 Z M 432.152344 774.808594 "/><path style=" stroke:none;fill-rule:nonzero;fill:#ffcc00;fill-opacity:1;" d="M 445.597656 788.25 L 455.871094 788.25 L 455.871094 798.523438 L 445.597656 798.523438 Z M 445.597656 788.25 "/><path style=" stroke:none;fill-rule:nonzero;fill:#ffcc00;fill-opacity:1;" d="M 459.042969 801.695312 L 469.3125 801.695312 L 469.3125 811.96875 L 459.042969 811.96875 Z M 459.042969 801.695312 "/><path style=" stroke:none;fill-rule:nonzero;fill:#ffcc00;fill-opacity:1;" d="M 472.488281 815.144531 L 482.761719 815.144531 L 482.761719 825.417969 L 472.488281 825.417969 Z M 472.488281 815.144531 "/><path style=" stroke:none;fill-rule:nonzero;fill:#ffcc00;fill-opacity:1;" d="M 485.933594 828.585938 L 496.207031 828.585938 L 496.207031 838.859375 L 485.933594 838.859375 Z M 485.933594 828.585938 "/><path style=" stroke:none;fill-rule:nonzero;fill:#ffcc00;fill-opacity:1;" d="M 378.550781 694.3125 L 388.472656 694.3125 L 388.472656 704.234375 L 378.550781 704.234375 Z M 378.550781 694.3125 "/><path style=" stroke:none;fill-rule:nonzero;fill:#ffcc00;fill-opacity:1;" d="M 391.992188 707.753906 L 401.914062 707.753906 L 401.914062 717.675781 L 391.992188 717.675781 Z M 391.992188 707.753906 "/><path style=" stroke:none;fill-rule:nonzero;fill:#ffcc00;fill-opacity:1;" d="M 405.4375 721.199219 L 415.359375 721.199219 L 415.359375 731.121094 L 405.4375 731.121094 Z M 405.4375 721.199219 "/><path style=" stroke:none;fill-rule:nonzero;fill:#ffcc00;fill-opacity:1;" d="M 418.878906 734.648438 L 428.804688 734.648438 L 428.804688 744.570312 L 418.878906 744.570312 Z M 418.878906 734.648438 "/><path style=" stroke:none;fill-rule:nonzero;fill:#ffcc00;fill-opacity:1;" d="M 432.328125 748.089844 L 442.25 748.089844 L 442.25 758.011719 L 432.328125 758.011719 Z M 432.328125 748.089844 "/><path style=" stroke:none;fill-rule:nonzero;fill:#ffcc00;fill-opacity:1;" d="M 445.773438 761.535156 L 455.695312 761.535156 L 455.695312 771.457031 L 445.773438 771.457031 Z M 445.773438 761.535156 "/><path style=" stroke:none;fill-rule:nonzero;fill:#ffcc00;fill-opacity:1;" d="M 459.214844 774.984375 L 469.140625 774.984375 L 469.140625 784.90625 L 459.214844 784.90625 Z M 459.214844 774.984375 "/><path style=" stroke:none;fill-rule:nonzero;fill:#ffcc00;fill-opacity:1;" d="M 472.660156 788.425781 L 482.582031 788.425781 L 482.582031 798.347656 L 472.660156 798.347656 Z M 472.660156 788.425781 "/><path style=" stroke:none;fill-rule:nonzero;fill:#ffcc00;fill-opacity:1;" d="M 486.109375 801.871094 L 496.03125 801.871094 L 496.03125 811.792969 L 486.109375 811.792969 Z M 486.109375 801.871094 "/><path style=" stroke:none;fill-rule:nonzero;fill:#ffcc00;fill-opacity:1;" d="M 499.550781 815.3125 L 509.476562 815.3125 L 509.476562 825.234375 L 499.550781 825.234375 Z M 499.550781 815.3125 "/><path style=" stroke:none;fill-rule:nonzero;fill:#ffcc00;fill-opacity:1;" d="M 392.167969 681.039062 L 401.746094 681.039062 L 401.746094 690.613281 L 392.167969 690.613281 Z M 392.167969 681.039062 "/><path style=" stroke:none;fill-rule:nonzero;fill:#ffcc00;fill-opacity:1;" d="M 405.613281 694.488281 L 415.191406 694.488281 L 415.191406 704.0625 L 405.613281 704.0625 Z M 405.613281 694.488281 "/><path style=" stroke:none;fill-rule:nonzero;fill:#ffcc00;fill-opacity:1;" d="M 419.054688 707.929688 L 428.632812 707.929688 L 428.632812 717.507812 L 419.054688 717.507812 Z M 419.054688 707.929688 "/><path style=" stroke:none;fill-rule:nonzero;fill:#ffcc00;fill-opacity:1;" d="M 432.5 721.375 L 442.078125 721.375 L 442.078125 730.949219 L 432.5 730.949219 Z M 432.5 721.375 "/><path style=" stroke:none;fill-rule:nonzero;fill:#ffcc00;fill-opacity:1;" d="M 445.949219 734.816406 L 455.527344 734.816406 L 455.527344 744.394531 L 445.949219 744.394531 Z M 445.949219 734.816406 "/><path style=" stroke:none;fill-rule:nonzero;fill:#ffcc00;fill-opacity:1;" d="M 459.390625 748.265625 L 468.96875 748.265625 L 468.96875 757.84375 L 459.390625 757.84375 Z M 459.390625 748.265625 "/><path style=" stroke:none;fill-rule:nonzero;fill:#ffcc00;fill-opacity:1;" d="M 472.835938 761.710938 L 482.414062 761.710938 L 482.414062 771.285156 L 472.835938 771.285156 Z M 472.835938 761.710938 "/><path style=" stroke:none;fill-rule:nonzero;fill:#ffcc00;fill-opacity:1;" d="M 486.277344 775.152344 L 495.855469 775.152344 L 495.855469 784.730469 L 486.277344 784.730469 Z M 486.277344 775.152344 "/><path style=" stroke:none;fill-rule:nonzero;fill:#ffcc00;fill-opacity:1;" d="M 499.726562 788.601562 L 509.304688 788.601562 L 509.304688 798.179688 L 499.726562 798.179688 Z M 499.726562 788.601562 "/><path style=" stroke:none;fill-rule:nonzero;fill:#ffcc00;fill-opacity:1;" d="M 513.171875 802.046875 L 522.75 802.046875 L 522.75 811.621094 L 513.171875 811.621094 Z M 513.171875 802.046875 "/><path style=" stroke:none;fill-rule:nonzero;fill:#ffcc00;fill-opacity:1;" d="M 405.789062 667.769531 L 415.015625 667.769531 L 415.015625 676.996094 L 405.789062 676.996094 Z M 405.789062 667.769531 "/><path style=" stroke:none;fill-rule:nonzero;fill:#ffcc00;fill-opacity:1;" d="M 419.230469 681.210938 L 428.457031 681.210938 L 428.457031 690.441406 L 419.230469 690.441406 Z M 419.230469 681.210938 "/><path style=" stroke:none;fill-rule:nonzero;fill:#ffcc00;fill-opacity:1;" d="M 432.675781 694.65625 L 441.902344 694.65625 L 441.902344 703.882812 L 432.675781 703.882812 Z M 432.675781 694.65625 "/><path style=" stroke:none;fill-rule:nonzero;fill:#ffcc00;fill-opacity:1;" d="M 446.117188 708.105469 L 455.34375 708.105469 L 455.34375 717.332031 L 446.117188 717.332031 Z M 446.117188 708.105469 "/><path style=" stroke:none;fill-rule:nonzero;fill:#ffcc00;fill-opacity:1;" d="M 459.566406 721.546875 L 468.792969 721.546875 L 468.792969 730.777344 L 459.566406 730.777344 Z M 459.566406 721.546875 "/><path style=" stroke:none;fill-rule:nonzero;fill:#ffcc00;fill-opacity:1;" d="M 473.011719 734.992188 L 482.238281 734.992188 L 482.238281 744.21875 L 473.011719 744.21875 Z M 473.011719 734.992188 "/><path style=" stroke:none;fill-rule:nonzero;fill:#ffcc00;fill-opacity:1;" d="M 486.453125 748.4375 L 495.679688 748.4375 L 495.679688 757.664062 L 486.453125 757.664062 Z M 486.453125 748.4375 "/><path style=" stroke:none;fill-rule:nonzero;fill:#ffcc00;fill-opacity:1;" d="M 499.898438 761.886719 L 509.125 761.886719 L 509.125 771.113281 L 499.898438 771.113281 Z M 499.898438 761.886719 "/><path style=" stroke:none;fill-rule:nonzero;fill:#ffcc00;fill-opacity:1;" d="M 513.347656 775.328125 L 522.574219 775.328125 L 522.574219 784.554688 L 513.347656 784.554688 Z M 513.347656 775.328125 "/><path style=" stroke:none;fill-rule:nonzero;fill:#ffcc00;fill-opacity:1;" d="M 526.789062 788.773438 L 536.015625 788.773438 L 536.015625 798 L 526.789062 798 Z M 526.789062 788.773438 "/><path style=" stroke:none;fill-rule:nonzero;fill:#ffcc00;fill-opacity:1;" d="M 419.40625 654.496094 L 428.289062 654.496094 L 428.289062 663.378906 L 419.40625 663.378906 Z M 419.40625 654.496094 "/><path style=" stroke:none;fill-rule:nonzero;fill:#ffcc00;fill-opacity:1;" d="M 432.851562 667.945312 L 441.730469 667.945312 L 441.730469 676.828125 L 432.851562 676.828125 Z M 432.851562 667.945312 "/><path style=" stroke:none;fill-rule:nonzero;fill:#ffcc00;fill-opacity:1;" d="M 446.292969 681.386719 L 455.175781 681.386719 L 455.175781 690.269531 L 446.292969 690.269531 Z M 446.292969 681.386719 "/><path style=" stroke:none;fill-rule:nonzero;fill:#ffcc00;fill-opacity:1;" d="M 459.738281 694.832031 L 468.617188 694.832031 L 468.617188 703.714844 L 459.738281 703.714844 Z M 459.738281 694.832031 "/><path style=" stroke:none;fill-rule:nonzero;fill:#ffcc00;fill-opacity:1;" d="M 473.1875 708.273438 L 482.066406 708.273438 L 482.066406 717.15625 L 473.1875 717.15625 Z M 473.1875 708.273438 "/><path style=" stroke:none;fill-rule:nonzero;fill:#ffcc00;fill-opacity:1;" d="M 486.628906 721.722656 L 495.511719 721.722656 L 495.511719 730.605469 L 486.628906 730.605469 Z M 486.628906 721.722656 "/><path style=" stroke:none;fill-rule:nonzero;fill:#ffcc00;fill-opacity:1;" d="M 500.074219 735.167969 L 508.953125 735.167969 L 508.953125 744.050781 L 500.074219 744.050781 Z M 500.074219 735.167969 "/><path style=" stroke:none;fill-rule:nonzero;fill:#ffcc00;fill-opacity:1;" d="M 513.515625 748.609375 L 522.398438 748.609375 L 522.398438 757.492188 L 513.515625 757.492188 Z M 513.515625 748.609375 "/><path style=" stroke:none;fill-rule:nonzero;fill:#ffcc00;fill-opacity:1;" d="M 526.964844 762.054688 L 535.847656 762.054688 L 535.847656 770.9375 L 526.964844 770.9375 Z M 526.964844 762.054688 "/><path style=" stroke:none;fill-rule:nonzero;fill:#ffcc00;fill-opacity:1;" d="M 540.410156 775.503906 L 549.289062 775.503906 L 549.289062 784.386719 L 540.410156 784.386719 Z M 540.410156 775.503906 "/><path style=" stroke:none;fill-rule:nonzero;fill:#ffcc00;fill-opacity:1;" d="M 433.023438 641.226562 L 441.5625 641.226562 L 441.5625 649.765625 L 433.023438 649.765625 Z M 433.023438 641.226562 "/><path style=" stroke:none;fill-rule:nonzero;fill:#ffcc00;fill-opacity:1;" d="M 446.46875 654.671875 L 455.003906 654.671875 L 455.003906 663.207031 L 446.46875 663.207031 Z M 446.46875 654.671875 "/><path style=" stroke:none;fill-rule:nonzero;fill:#ffcc00;fill-opacity:1;" d="M 459.910156 668.113281 L 468.449219 668.113281 L 468.449219 676.652344 L 459.910156 676.652344 Z M 459.910156 668.113281 "/><path style=" stroke:none;fill-rule:nonzero;fill:#ffcc00;fill-opacity:1;" d="M 473.355469 681.5625 L 481.890625 681.5625 L 481.890625 690.101562 L 473.355469 690.101562 Z M 473.355469 681.5625 "/><path style=" stroke:none;fill-rule:nonzero;fill:#ffcc00;fill-opacity:1;" d="M 486.804688 695.007812 L 495.339844 695.007812 L 495.339844 703.542969 L 486.804688 703.542969 Z M 486.804688 695.007812 "/><path style=" stroke:none;fill-rule:nonzero;fill:#ffcc00;fill-opacity:1;" d="M 500.246094 708.449219 L 508.785156 708.449219 L 508.785156 716.988281 L 500.246094 716.988281 Z M 500.246094 708.449219 "/><path style=" stroke:none;fill-rule:nonzero;fill:#ffcc00;fill-opacity:1;" d="M 513.691406 721.894531 L 522.226562 721.894531 L 522.226562 730.429688 L 513.691406 730.429688 Z M 513.691406 721.894531 "/><path style=" stroke:none;fill-rule:nonzero;fill:#ffcc00;fill-opacity:1;" d="M 527.136719 735.34375 L 535.671875 735.34375 L 535.671875 743.878906 L 527.136719 743.878906 Z M 527.136719 735.34375 "/><path style=" stroke:none;fill-rule:nonzero;fill:#ffcc00;fill-opacity:1;" d="M 540.582031 748.785156 L 549.121094 748.785156 L 549.121094 757.324219 L 540.582031 757.324219 Z M 540.582031 748.785156 "/><path style=" stroke:none;fill-rule:nonzero;fill:#ffcc00;fill-opacity:1;" d="M 554.027344 762.230469 L 562.5625 762.230469 L 562.5625 770.765625 L 554.027344 770.765625 Z M 554.027344 762.230469 "/><path style=" stroke:none;fill-rule:nonzero;fill:#ffcc00;fill-opacity:1;" d="M 446.644531 627.953125 L 454.832031 627.953125 L 454.832031 636.140625 L 446.644531 636.140625 Z M 446.644531 627.953125 "/><path style=" stroke:none;fill-rule:nonzero;fill:#ffcc00;fill-opacity:1;" d="M 460.085938 641.402344 L 468.273438 641.402344 L 468.273438 649.589844 L 460.085938 649.589844 Z M 460.085938 641.402344 "/><path style=" stroke:none;fill-rule:nonzero;fill:#ffcc00;fill-opacity:1;" d="M 473.53125 654.847656 L 481.71875 654.847656 L 481.71875 663.03125 L 473.53125 663.03125 Z M 473.53125 654.847656 "/><path style=" stroke:none;fill-rule:nonzero;fill:#ffcc00;fill-opacity:1;" d="M 486.972656 668.289062 L 495.160156 668.289062 L 495.160156 676.476562 L 486.972656 676.476562 Z M 486.972656 668.289062 "/><path style=" stroke:none;fill-rule:nonzero;fill:#ffcc00;fill-opacity:1;" d="M 500.421875 681.734375 L 508.609375 681.734375 L 508.609375 689.917969 L 500.421875 689.917969 Z M 500.421875 681.734375 "/><path style=" stroke:none;fill-rule:nonzero;fill:#ffcc00;fill-opacity:1;" d="M 513.867188 695.183594 L 522.054688 695.183594 L 522.054688 703.367188 L 513.867188 703.367188 Z M 513.867188 695.183594 "/><path style=" stroke:none;fill-rule:nonzero;fill:#ffcc00;fill-opacity:1;" d="M 527.308594 708.625 L 535.496094 708.625 L 535.496094 716.8125 L 527.308594 716.8125 Z M 527.308594 708.625 "/><path style=" stroke:none;fill-rule:nonzero;fill:#ffcc00;fill-opacity:1;" d="M 540.753906 722.070312 L 548.941406 722.070312 L 548.941406 730.253906 L 540.753906 730.253906 Z M 540.753906 722.070312 "/><path style=" stroke:none;fill-rule:nonzero;fill:#ffcc00;fill-opacity:1;" d="M 554.203125 735.511719 L 562.390625 735.511719 L 562.390625 743.699219 L 554.203125 743.699219 Z M 554.203125 735.511719 "/><path style=" stroke:none;fill-rule:nonzero;fill:#ffcc00;fill-opacity:1;" d="M 567.644531 748.960938 L 575.832031 748.960938 L 575.832031 757.148438 L 567.644531 757.148438 Z M 567.644531 748.960938 "/><path style=" stroke:none;fill-rule:nonzero;fill:#ffcc00;fill-opacity:1;" d="M 460.261719 614.683594 L 468.105469 614.683594 L 468.105469 622.527344 L 460.261719 622.527344 Z M 460.261719 614.683594 "/><path style=" stroke:none;fill-rule:nonzero;fill:#ffcc00;fill-opacity:1;" d="M 473.707031 628.128906 L 481.546875 628.128906 L 481.546875 635.96875 L 473.707031 635.96875 Z M 473.707031 628.128906 "/><path style=" stroke:none;fill-rule:nonzero;fill:#ffcc00;fill-opacity:1;" d="M 487.148438 641.574219 L 494.992188 641.574219 L 494.992188 649.414062 L 487.148438 649.414062 Z M 487.148438 641.574219 "/><path style=" stroke:none;fill-rule:nonzero;fill:#ffcc00;fill-opacity:1;" d="M 500.59375 655.019531 L 508.433594 655.019531 L 508.433594 662.863281 L 500.59375 662.863281 Z M 500.59375 655.019531 "/><path style=" stroke:none;fill-rule:nonzero;fill:#ffcc00;fill-opacity:1;" d="M 514.042969 668.464844 L 521.882812 668.464844 L 521.882812 676.304688 L 514.042969 676.304688 Z M 514.042969 668.464844 "/><path style=" stroke:none;fill-rule:nonzero;fill:#ffcc00;fill-opacity:1;" d="M 527.484375 681.910156 L 535.328125 681.910156 L 535.328125 689.75 L 527.484375 689.75 Z M 527.484375 681.910156 "/><path style=" stroke:none;fill-rule:nonzero;fill:#ffcc00;fill-opacity:1;" d="M 540.929688 695.351562 L 548.769531 695.351562 L 548.769531 703.195312 L 540.929688 703.195312 Z M 540.929688 695.351562 "/><path style=" stroke:none;fill-rule:nonzero;fill:#ffcc00;fill-opacity:1;" d="M 554.371094 708.800781 L 562.214844 708.800781 L 562.214844 716.640625 L 554.371094 716.640625 Z M 554.371094 708.800781 "/><path style=" stroke:none;fill-rule:nonzero;fill:#ffcc00;fill-opacity:1;" d="M 567.820312 722.246094 L 575.664062 722.246094 L 575.664062 730.085938 L 567.820312 730.085938 Z M 567.820312 722.246094 "/><path style=" stroke:none;fill-rule:nonzero;fill:#ffcc00;fill-opacity:1;" d="M 581.265625 735.6875 L 589.105469 735.6875 L 589.105469 743.53125 L 581.265625 743.53125 Z M 581.265625 735.6875 "/><path style=" stroke:none;fill-rule:nonzero;fill:#ffcc00;fill-opacity:1;" d="M 473.882812 601.410156 L 481.371094 601.410156 L 481.371094 608.902344 L 473.882812 608.902344 Z M 473.882812 601.410156 "/><path style=" stroke:none;fill-rule:nonzero;fill:#ffcc00;fill-opacity:1;" d="M 487.324219 614.855469 L 494.816406 614.855469 L 494.816406 622.347656 L 487.324219 622.347656 Z M 487.324219 614.855469 "/><path style=" stroke:none;fill-rule:nonzero;fill:#ffcc00;fill-opacity:1;" d="M 500.769531 628.304688 L 508.257812 628.304688 L 508.257812 635.796875 L 500.769531 635.796875 Z M 500.769531 628.304688 "/><path style=" stroke:none;fill-rule:nonzero;fill:#ffcc00;fill-opacity:1;" d="M 514.210938 641.746094 L 521.703125 641.746094 L 521.703125 649.238281 L 514.210938 649.238281 Z M 514.210938 641.746094 "/><path style=" stroke:none;fill-rule:nonzero;fill:#ffcc00;fill-opacity:1;" d="M 527.660156 655.191406 L 535.152344 655.191406 L 535.152344 662.683594 L 527.660156 662.683594 Z M 527.660156 655.191406 "/><path style=" stroke:none;fill-rule:nonzero;fill:#ffcc00;fill-opacity:1;" d="M 541.105469 668.640625 L 548.59375 668.640625 L 548.59375 676.132812 L 541.105469 676.132812 Z M 541.105469 668.640625 "/><path style=" stroke:none;fill-rule:nonzero;fill:#ffcc00;fill-opacity:1;" d="M 554.546875 682.082031 L 562.039062 682.082031 L 562.039062 689.574219 L 554.546875 689.574219 Z M 554.546875 682.082031 "/><path style=" stroke:none;fill-rule:nonzero;fill:#ffcc00;fill-opacity:1;" d="M 567.992188 695.527344 L 575.480469 695.527344 L 575.480469 703.019531 L 567.992188 703.019531 Z M 567.992188 695.527344 "/><path style=" stroke:none;fill-rule:nonzero;fill:#ffcc00;fill-opacity:1;" d="M 581.441406 708.96875 L 588.929688 708.96875 L 588.929688 716.460938 L 581.441406 716.460938 Z M 581.441406 708.96875 "/><g clip-rule="nonzero" clip-path="url(#98ec52bee8)"><path style=" stroke:none;fill-rule:nonzero;fill:#ffcc00;fill-opacity:1;" d="M 594.882812 722.417969 L 602.375 722.417969 L 602.375 729.910156 L 594.882812 729.910156 Z M 594.882812 722.417969 "/></g></g></svg>