<svg xmlns="http://www.w3.org/2000/svg" width="1080" zoomAndPan="magnify"
     viewBox="0 0 810 1012.49997" height="1350" preserveAspectRatio="xMidYMid meet" version="1.2">
    <defs>
        <filter x="0%" y="0%" width="100%" filterUnits="objectBoundingBox" id="fd1fa805d4" height="100%">
            <feColorMatrix values="0 0 0 0 1 0 0 0 0 1 0 0 0 0 1 0 0 0 1 0" type="matrix" in="SourceGraphic"/>
        </filter>
        <clipPath id="5fa2291a14">
            <path d="M 74 57 L 434 57 L 434 493 L 74 493 Z M 74 57 "/>
        </clipPath>
        <clipPath id="3d7b2ec8b2">
            <path d="M 556.558594 322.617188 L 322.269531 556.90625 L 1.578125 236.214844 L 235.867188 1.925781 Z M 556.558594 322.617188 "/>
        </clipPath>
        <clipPath id="8bdc8bb920">
            <path d="M 322.269531 556.90625 L 556.558594 322.617188 L 235.867188 1.925781 L 1.578125 236.214844 Z M 322.269531 556.90625 "/>
        </clipPath>
        <clipPath id="73dfd6de5d">
            <path d="M 322.726562 556.445312 L 555.808594 323.367188 L 235.039062 2.597656 L 1.957031 235.679688 Z M 322.726562 556.445312 "/>
        </clipPath>
        <clipPath id="94f8d26a26">
            <rect x="0" width="559" y="0" height="560"/>
        </clipPath>
        <clipPath id="4789210dae">
            <path d="M 258 226.089844 L 524 226.089844 L 524 492 L 258 492 Z M 258 226.089844 "/>
        </clipPath>
        <clipPath id="2f0ccff615">
            <path d="M 120.71875 262 L 196 262 L 196 338 L 120.71875 338 Z M 120.71875 262 "/>
        </clipPath>
        <clipPath id="59a1ff0802">
            <path d="M 635 255 L 643.960938 255 L 643.960938 264 L 635 264 Z M 635 255 "/>
        </clipPath>
        <clipPath id="053cf4d0b1">
            <path d="M 635 269 L 643.960938 269 L 643.960938 278 L 635 278 Z M 635 269 "/>
        </clipPath>
        <clipPath id="302642cfb0">
            <path d="M 635 284 L 643.960938 284 L 643.960938 293 L 635 293 Z M 635 284 "/>
        </clipPath>
        <clipPath id="2b520ac9a9">
            <path d="M 635 298 L 643.960938 298 L 643.960938 307 L 635 307 Z M 635 298 "/>
        </clipPath>
        <clipPath id="ce71b38619">
            <path d="M 635 313 L 643.960938 313 L 643.960938 322 L 635 322 Z M 635 313 "/>
        </clipPath>
        <clipPath id="edcc341106">
            <path d="M 635 327 L 643.960938 327 L 643.960938 336 L 635 336 Z M 635 327 "/>
        </clipPath>
        <clipPath id="8bdb7ae644">
            <path d="M 635 341 L 643.960938 341 L 643.960938 350 L 635 350 Z M 635 341 "/>
        </clipPath>
        <clipPath id="e499b925cb">
            <path d="M 635 356 L 643.960938 356 L 643.960938 365 L 635 365 Z M 635 356 "/>
        </clipPath>
        <clipPath id="c7758d65e5">
            <path d="M 635 370 L 643.960938 370 L 643.960938 379 L 635 379 Z M 635 370 "/>
        </clipPath>
        <clipPath id="1e3121e705">
            <path d="M 635 385 L 643.960938 385 L 643.960938 394 L 635 394 Z M 635 385 "/>
        </clipPath>
    </defs>
    <g id="b690f0ed60">
        <g mask="url(#9cbfe31c22)" transform="matrix(1,0,0,1,133,229)">
            <g clip-path="url(#94f8d26a26)">
                <g clip-rule="nonzero" clip-path="url(#5fa2291a14)">
                    <g clip-rule="nonzero" clip-path="url(#3d7b2ec8b2)">
                        <g clip-rule="nonzero" clip-path="url(#8bdc8bb920)">
                            <g clip-rule="nonzero" clip-path="url(#73dfd6de5d)">
                                <path style=" stroke:none;fill-rule:nonzero;fill:#ffffff;fill-opacity:1;"
                                      d="M 406.773438 456.824219 C 388.105469 475.492188 356.082031 481.992188 327.628906 481.234375 C 273.59375 479.78125 212.910156 452.628906 201.46875 403.542969 C 196.425781 381.835938 197.886719 368.152344 199.066406 357.171875 C 202.113281 328.699219 199.699219 318.527344 125.539062 274.332031 C 103.976562 261.488281 89.65625 239.882812 86.25 215.085938 C 82.839844 190.371094 90.761719 165.828125 107.945312 147.742188 C 125.253906 129.535156 137.730469 116.34375 146.941406 106.5 C 147.820312 105.554688 148.730469 104.625 149.640625 103.714844 C 190.355469 63 255.140625 57.25 301.984375 90.726562 C 340.648438 118.339844 361.671875 145.359375 364.453125 170.984375 C 366.46875 189.582031 358.96875 208.464844 342.152344 227.101562 C 303.546875 269.859375 338.292969 304.28125 371.894531 337.574219 C 401.101562 366.496094 431.304688 396.410156 420.335938 434.03125 C 417.703125 443.089844 412.964844 450.632812 406.773438 456.824219 Z M 141.78125 95.855469 C 140.777344 96.855469 139.796875 97.859375 138.835938 98.902344 C 129.632812 108.71875 117.179688 121.910156 99.890625 140.097656 C 80.355469 160.636719 71.367188 188.515625 75.238281 216.601562 C 79.105469 244.765625 95.367188 269.296875 119.839844 283.882812 C 191.183594 326.386719 190.386719 333.855469 188.011719 355.984375 C 186.8125 367.191406 185.167969 382.511719 190.640625 406.0625 C 203.363281 460.640625 269.027344 490.773438 327.332031 492.339844 C 380.972656 493.78125 420.691406 472.625 431.007812 437.132812 C 443.820312 393.164062 409.761719 359.433594 379.714844 329.671875 C 342.019531 292.324219 320.425781 267.742188 350.402344 234.550781 C 369.425781 213.457031 377.882812 191.660156 375.507812 169.796875 C 372.3125 140.464844 350.382812 111.636719 308.449219 81.679688 C 257.195312 45.039062 186.300781 51.335938 141.78125 95.855469 "/>
                            </g>
                        </g>
                    </g>
                </g>
            </g>
            <mask id="9cbfe31c22">
                <g filter="url(#fd1fa805d4)">
                    <rect x="0" width="810" y="0" height="1012.49997"
                          style="fill:#000000;fill-opacity:0.73;stroke:none;"/>
                </g>
            </mask>
        </g>
        <g clip-rule="nonzero" clip-path="url(#4789210dae)">
            <path style=" stroke:none;fill-rule:nonzero;fill:#ff680e;fill-opacity:1;"
                  d="M 523.128906 226.171875 L 523.128906 491.046875 L 258.257812 491.046875 L 258.257812 226.171875 Z M 523.128906 226.171875 "/>
        </g>
        <path style=" stroke:none;fill-rule:nonzero;fill:#ff680e;fill-opacity:1;"
              d="M 512.140625 573.121094 L 512.140625 629.628906 L 455.632812 629.628906 L 455.632812 573.121094 Z M 512.140625 573.121094 "/>
        <g clip-rule="nonzero" clip-path="url(#2f0ccff615)">
            <path style=" stroke:none;fill-rule:nonzero;fill:#ff680e;fill-opacity:1;"
                  d="M 195.308594 262.964844 L 195.308594 337.550781 L 120.726562 337.550781 L 120.726562 262.964844 Z M 195.308594 262.964844 "/>
        </g>
        <path style=" stroke:none;fill-rule:nonzero;fill:#ffc513;fill-opacity:1;"
              d="M 132.753906 392.152344 L 143.914062 403.3125 L 132.753906 414.472656 L 121.59375 403.3125 Z M 132.753906 392.152344 "/>
        <path style=" stroke:none;fill-rule:nonzero;fill:#ffc513;fill-opacity:1;"
              d="M 132.753906 420.410156 L 143.914062 431.570312 L 132.753906 442.730469 L 121.59375 431.570312 Z M 132.753906 420.410156 "/>
        <path style=" stroke:none;fill-rule:nonzero;fill:#ffc513;fill-opacity:1;"
              d="M 132.753906 448.660156 L 143.914062 459.820312 L 132.753906 470.976562 L 121.59375 459.820312 Z M 132.753906 448.660156 "/>
        <path style=" stroke:none;fill-rule:nonzero;fill:#ffc513;fill-opacity:1;"
              d="M 132.75 476.914062 L 143.910156 488.074219 L 132.75 499.234375 L 121.589844 488.074219 Z M 132.75 476.914062 "/>
        <path style=" stroke:none;fill-rule:nonzero;fill:#ffc513;fill-opacity:1;"
              d="M 132.753906 505.171875 L 143.914062 516.332031 L 132.753906 527.492188 L 121.59375 516.332031 Z M 132.753906 505.171875 "/>
        <path style=" stroke:none;fill-rule:nonzero;fill:#ffc513;fill-opacity:1;"
              d="M 132.757812 533.429688 L 143.914062 544.589844 L 132.757812 555.746094 L 121.597656 544.589844 Z M 132.757812 533.429688 "/>
        <path style=" stroke:none;fill-rule:nonzero;fill:#ffc513;fill-opacity:1;"
              d="M 132.757812 561.683594 L 143.917969 572.84375 L 132.757812 584.003906 L 121.597656 572.84375 Z M 132.757812 561.683594 "/>
        <path style=" stroke:none;fill-rule:nonzero;fill:#ffc513;fill-opacity:1;"
              d="M 132.757812 589.9375 L 143.917969 601.097656 L 132.757812 612.257812 L 121.597656 601.097656 Z M 132.757812 589.9375 "/>
        <path style=" stroke:none;fill-rule:nonzero;fill:#ffc513;fill-opacity:1;"
              d="M 132.753906 618.195312 L 143.914062 629.355469 L 132.753906 640.511719 L 121.59375 629.355469 Z M 132.753906 618.195312 "/>
        <path style=" stroke:none;fill-rule:nonzero;fill:#ffc513;fill-opacity:1;"
              d="M 132.753906 646.449219 L 143.914062 657.609375 L 132.753906 668.769531 L 121.59375 657.609375 Z M 132.753906 646.449219 "/>
        <path style=" stroke:none;fill-rule:nonzero;fill:#ffc513;fill-opacity:1;"
              d="M 161.007812 392.523438 L 171.804688 403.316406 L 161.007812 414.113281 L 150.214844 403.316406 Z M 161.007812 392.523438 "/>
        <path style=" stroke:none;fill-rule:nonzero;fill:#ffc513;fill-opacity:1;"
              d="M 161.007812 420.777344 L 171.804688 431.574219 L 161.007812 442.367188 L 150.214844 431.574219 Z M 161.007812 420.777344 "/>
        <path style=" stroke:none;fill-rule:nonzero;fill:#ffc513;fill-opacity:1;"
              d="M 161.003906 449.03125 L 171.800781 459.828125 L 161.003906 470.621094 L 150.210938 459.828125 Z M 161.003906 449.03125 "/>
        <path style=" stroke:none;fill-rule:nonzero;fill:#ffc513;fill-opacity:1;"
              d="M 161.003906 477.289062 L 171.800781 488.082031 L 161.003906 498.878906 L 150.210938 488.082031 Z M 161.003906 477.289062 "/>
        <path style=" stroke:none;fill-rule:nonzero;fill:#ffc513;fill-opacity:1;"
              d="M 161.007812 505.539062 L 171.800781 516.332031 L 161.007812 527.128906 L 150.210938 516.332031 Z M 161.007812 505.539062 "/>
        <path style=" stroke:none;fill-rule:nonzero;fill:#ffc513;fill-opacity:1;"
              d="M 161.007812 533.792969 L 171.800781 544.585938 L 161.007812 555.382812 L 150.210938 544.585938 Z M 161.007812 533.792969 "/>
        <path style=" stroke:none;fill-rule:nonzero;fill:#ffc513;fill-opacity:1;"
              d="M 161.007812 562.046875 L 171.804688 572.84375 L 161.007812 583.636719 L 150.214844 572.84375 Z M 161.007812 562.046875 "/>
        <path style=" stroke:none;fill-rule:nonzero;fill:#ffc513;fill-opacity:1;"
              d="M 161.003906 590.304688 L 171.796875 601.097656 L 161.003906 611.890625 L 150.207031 601.097656 Z M 161.003906 590.304688 "/>
        <path style=" stroke:none;fill-rule:nonzero;fill:#ffc513;fill-opacity:1;"
              d="M 161.003906 618.558594 L 171.796875 629.351562 L 161.003906 640.148438 L 150.210938 629.351562 Z M 161.003906 618.558594 "/>
        <path style=" stroke:none;fill-rule:nonzero;fill:#ffc513;fill-opacity:1;"
              d="M 161.007812 646.816406 L 171.804688 657.613281 L 161.007812 668.40625 L 150.214844 657.613281 Z M 161.007812 646.816406 "/>
        <path style=" stroke:none;fill-rule:nonzero;fill:#ffc513;fill-opacity:1;"
              d="M 189.265625 392.882812 L 199.695312 403.3125 L 189.265625 413.742188 L 178.832031 403.3125 Z M 189.265625 392.882812 "/>
        <path style=" stroke:none;fill-rule:nonzero;fill:#ffc513;fill-opacity:1;"
              d="M 189.265625 421.136719 L 199.695312 431.566406 L 189.265625 441.996094 L 178.835938 431.566406 Z M 189.265625 421.136719 "/>
        <path style=" stroke:none;fill-rule:nonzero;fill:#ffc513;fill-opacity:1;"
              d="M 189.257812 449.390625 L 199.691406 459.824219 L 189.257812 470.253906 L 178.828125 459.824219 Z M 189.257812 449.390625 "/>
        <path style=" stroke:none;fill-rule:nonzero;fill:#ffc513;fill-opacity:1;"
              d="M 189.265625 477.652344 L 199.695312 488.082031 L 189.265625 498.511719 L 178.835938 488.082031 Z M 189.265625 477.652344 "/>
        <path style=" stroke:none;fill-rule:nonzero;fill:#ffc513;fill-opacity:1;"
              d="M 189.265625 505.90625 L 199.695312 516.335938 L 189.265625 526.765625 L 178.835938 516.335938 Z M 189.265625 505.90625 "/>
        <path style=" stroke:none;fill-rule:nonzero;fill:#ffc513;fill-opacity:1;"
              d="M 189.265625 534.15625 L 199.695312 544.585938 L 189.265625 555.015625 L 178.835938 544.585938 Z M 189.265625 534.15625 "/>
        <path style=" stroke:none;fill-rule:nonzero;fill:#ffc513;fill-opacity:1;"
              d="M 189.261719 562.410156 L 199.691406 572.839844 L 189.261719 583.273438 L 178.832031 572.839844 Z M 189.261719 562.410156 "/>
        <path style=" stroke:none;fill-rule:nonzero;fill:#ffc513;fill-opacity:1;"
              d="M 189.261719 590.667969 L 199.691406 601.097656 L 189.261719 611.527344 L 178.832031 601.097656 Z M 189.261719 590.667969 "/>
        <path style=" stroke:none;fill-rule:nonzero;fill:#ffc513;fill-opacity:1;"
              d="M 189.261719 618.921875 L 199.691406 629.351562 L 189.261719 639.78125 L 178.832031 629.351562 Z M 189.261719 618.921875 "/>
        <path style=" stroke:none;fill-rule:nonzero;fill:#ffc513;fill-opacity:1;"
              d="M 189.265625 647.175781 L 199.695312 657.605469 L 189.265625 668.039062 L 178.835938 657.605469 Z M 189.265625 647.175781 "/>
        <path style=" stroke:none;fill-rule:nonzero;fill:#ffc513;fill-opacity:1;"
              d="M 217.519531 393.25 L 227.578125 403.3125 L 217.519531 413.371094 L 207.457031 403.3125 Z M 217.519531 393.25 "/>
        <path style=" stroke:none;fill-rule:nonzero;fill:#ffc513;fill-opacity:1;"
              d="M 217.515625 421.503906 L 227.574219 431.566406 L 217.515625 441.628906 L 207.453125 431.566406 Z M 217.515625 421.503906 "/>
        <path style=" stroke:none;fill-rule:nonzero;fill:#ffc513;fill-opacity:1;"
              d="M 217.515625 449.761719 L 227.574219 459.820312 L 217.515625 469.882812 L 207.453125 459.820312 Z M 217.515625 449.761719 "/>
        <path style=" stroke:none;fill-rule:nonzero;fill:#ffc513;fill-opacity:1;"
              d="M 217.515625 478.015625 L 227.578125 488.078125 L 217.515625 498.136719 L 207.453125 488.078125 Z M 217.515625 478.015625 "/>
        <path style=" stroke:none;fill-rule:nonzero;fill:#ffc513;fill-opacity:1;"
              d="M 217.515625 506.269531 L 227.578125 516.332031 L 217.515625 526.394531 L 207.457031 516.332031 Z M 217.515625 506.269531 "/>
        <path style=" stroke:none;fill-rule:nonzero;fill:#ffc513;fill-opacity:1;"
              d="M 217.519531 534.527344 L 227.578125 544.585938 L 217.519531 554.648438 L 207.457031 544.585938 Z M 217.519531 534.527344 "/>
        <path style=" stroke:none;fill-rule:nonzero;fill:#ffc513;fill-opacity:1;"
              d="M 217.511719 562.78125 L 227.574219 572.84375 L 217.511719 582.902344 L 207.453125 572.84375 Z M 217.511719 562.78125 "/>
        <path style=" stroke:none;fill-rule:nonzero;fill:#ffc513;fill-opacity:1;"
              d="M 217.511719 591.03125 L 227.574219 601.09375 L 217.511719 611.152344 L 207.453125 601.09375 Z M 217.511719 591.03125 "/>
        <path style=" stroke:none;fill-rule:nonzero;fill:#ffc513;fill-opacity:1;"
              d="M 217.519531 619.289062 L 227.578125 629.351562 L 217.519531 639.414062 L 207.457031 629.351562 Z M 217.519531 619.289062 "/>
        <path style=" stroke:none;fill-rule:nonzero;fill:#ffc513;fill-opacity:1;"
              d="M 217.519531 647.546875 L 227.582031 657.605469 L 217.519531 667.667969 L 207.457031 657.605469 Z M 217.519531 647.546875 "/>
        <path style=" stroke:none;fill-rule:nonzero;fill:#ffc513;fill-opacity:1;"
              d="M 245.769531 393.617188 L 255.464844 403.3125 L 245.769531 413.007812 L 236.070312 403.3125 Z M 245.769531 393.617188 "/>
        <path style=" stroke:none;fill-rule:nonzero;fill:#ffc513;fill-opacity:1;"
              d="M 245.769531 421.863281 L 255.464844 431.5625 L 245.769531 441.257812 L 236.074219 431.5625 Z M 245.769531 421.863281 "/>
        <path style=" stroke:none;fill-rule:nonzero;fill:#ffc513;fill-opacity:1;"
              d="M 245.773438 450.125 L 255.46875 459.820312 L 245.773438 469.515625 L 236.078125 459.820312 Z M 245.773438 450.125 "/>
        <path style=" stroke:none;fill-rule:nonzero;fill:#ffc513;fill-opacity:1;"
              d="M 245.773438 478.378906 L 255.472656 488.078125 L 245.773438 497.773438 L 236.078125 488.078125 Z M 245.773438 478.378906 "/>
        <path style=" stroke:none;fill-rule:nonzero;fill:#ffc513;fill-opacity:1;"
              d="M 245.777344 506.636719 L 255.472656 516.332031 L 245.777344 526.027344 L 236.078125 516.332031 Z M 245.777344 506.636719 "/>
        <path style=" stroke:none;fill-rule:nonzero;fill:#ffc513;fill-opacity:1;"
              d="M 245.769531 534.890625 L 255.46875 544.585938 L 245.769531 554.28125 L 236.074219 544.585938 Z M 245.769531 534.890625 "/>
        <path style=" stroke:none;fill-rule:nonzero;fill:#ffc513;fill-opacity:1;"
              d="M 245.773438 563.144531 L 255.46875 572.839844 L 245.773438 582.539062 L 236.074219 572.839844 Z M 245.773438 563.144531 "/>
        <path style=" stroke:none;fill-rule:nonzero;fill:#ffc513;fill-opacity:1;"
              d="M 245.773438 591.398438 L 255.46875 601.097656 L 245.773438 610.792969 L 236.074219 601.097656 Z M 245.773438 591.398438 "/>
        <path style=" stroke:none;fill-rule:nonzero;fill:#ffc513;fill-opacity:1;"
              d="M 245.773438 619.65625 L 255.46875 629.351562 L 245.773438 639.046875 L 236.078125 629.351562 Z M 245.773438 619.65625 "/>
        <path style=" stroke:none;fill-rule:nonzero;fill:#ffc513;fill-opacity:1;"
              d="M 245.773438 647.90625 L 255.472656 657.601562 L 245.773438 667.296875 L 236.078125 657.601562 Z M 245.773438 647.90625 "/>
        <path style=" stroke:none;fill-rule:nonzero;fill:#ffc513;fill-opacity:1;"
              d="M 274.023438 393.984375 L 283.355469 403.316406 L 274.023438 412.648438 L 264.691406 403.316406 Z M 274.023438 393.984375 "/>
        <path style=" stroke:none;fill-rule:nonzero;fill:#ffc513;fill-opacity:1;"
              d="M 274.023438 422.238281 L 283.355469 431.570312 L 274.023438 440.902344 L 264.691406 431.570312 Z M 274.023438 422.238281 "/>
        <path style=" stroke:none;fill-rule:nonzero;fill:#ffc513;fill-opacity:1;"
              d="M 274.023438 450.488281 L 283.355469 459.820312 L 274.023438 469.152344 L 264.695312 459.820312 Z M 274.023438 450.488281 "/>
        <path style=" stroke:none;fill-rule:nonzero;fill:#ffc513;fill-opacity:1;"
              d="M 274.027344 478.742188 L 283.359375 488.074219 L 274.027344 497.40625 L 264.695312 488.074219 Z M 274.027344 478.742188 "/>
        <path style=" stroke:none;fill-rule:nonzero;fill:#ffc513;fill-opacity:1;"
              d="M 274.027344 507 L 283.359375 516.332031 L 274.027344 525.660156 L 264.695312 516.332031 Z M 274.027344 507 "/>
        <path style=" stroke:none;fill-rule:nonzero;fill:#ffc513;fill-opacity:1;"
              d="M 274.023438 535.253906 L 283.355469 544.585938 L 274.023438 553.917969 L 264.691406 544.585938 Z M 274.023438 535.253906 "/>
        <path style=" stroke:none;fill-rule:nonzero;fill:#ffc513;fill-opacity:1;"
              d="M 274.023438 563.507812 L 283.355469 572.839844 L 274.023438 582.171875 L 264.691406 572.839844 Z M 274.023438 563.507812 "/>
        <path style=" stroke:none;fill-rule:nonzero;fill:#ffc513;fill-opacity:1;"
              d="M 274.027344 591.769531 L 283.359375 601.101562 L 274.027344 610.433594 L 264.695312 601.101562 Z M 274.027344 591.769531 "/>
        <path style=" stroke:none;fill-rule:nonzero;fill:#ffc513;fill-opacity:1;"
              d="M 274.027344 620.023438 L 283.359375 629.355469 L 274.027344 638.6875 L 264.695312 629.355469 Z M 274.027344 620.023438 "/>
        <path style=" stroke:none;fill-rule:nonzero;fill:#ffc513;fill-opacity:1;"
              d="M 274.023438 648.277344 L 283.355469 657.609375 L 274.023438 666.941406 L 264.691406 657.609375 Z M 274.023438 648.277344 "/>
        <path style=" stroke:none;fill-rule:nonzero;fill:#ffc513;fill-opacity:1;"
              d="M 302.277344 394.34375 L 311.246094 403.3125 L 302.277344 412.277344 L 293.3125 403.3125 Z M 302.277344 394.34375 "/>
        <path style=" stroke:none;fill-rule:nonzero;fill:#ffc513;fill-opacity:1;"
              d="M 302.285156 422.601562 L 311.25 431.570312 L 302.285156 440.535156 L 293.316406 431.570312 Z M 302.285156 422.601562 "/>
        <path style=" stroke:none;fill-rule:nonzero;fill:#ffc513;fill-opacity:1;"
              d="M 302.285156 450.859375 L 311.25 459.824219 L 302.285156 468.792969 L 293.316406 459.824219 Z M 302.285156 450.859375 "/>
        <path style=" stroke:none;fill-rule:nonzero;fill:#ffc513;fill-opacity:1;"
              d="M 302.285156 479.113281 L 311.253906 488.082031 L 302.285156 497.046875 L 293.320312 488.082031 Z M 302.285156 479.113281 "/>
        <path style=" stroke:none;fill-rule:nonzero;fill:#ffc513;fill-opacity:1;"
              d="M 302.28125 507.363281 L 311.246094 516.328125 L 302.28125 525.296875 L 293.3125 516.328125 Z M 302.28125 507.363281 "/>
        <path style=" stroke:none;fill-rule:nonzero;fill:#ffc513;fill-opacity:1;"
              d="M 302.28125 535.617188 L 311.25 544.585938 L 302.28125 553.550781 L 293.316406 544.585938 Z M 302.28125 535.617188 "/>
        <path style=" stroke:none;fill-rule:nonzero;fill:#ffc513;fill-opacity:1;"
              d="M 302.28125 563.871094 L 311.25 572.839844 L 302.28125 581.808594 L 293.316406 572.839844 Z M 302.28125 563.871094 "/>
        <path style=" stroke:none;fill-rule:nonzero;fill:#ffc513;fill-opacity:1;"
              d="M 302.28125 592.128906 L 311.25 601.09375 L 302.28125 610.0625 L 293.316406 601.09375 Z M 302.28125 592.128906 "/>
        <path style=" stroke:none;fill-rule:nonzero;fill:#ffc513;fill-opacity:1;"
              d="M 302.285156 620.382812 L 311.25 629.351562 L 302.285156 638.316406 L 293.316406 629.351562 Z M 302.285156 620.382812 "/>
        <path style=" stroke:none;fill-rule:nonzero;fill:#ffc513;fill-opacity:1;"
              d="M 302.277344 648.640625 L 311.246094 657.605469 L 302.277344 666.574219 L 293.3125 657.605469 Z M 302.277344 648.640625 "/>
        <path style=" stroke:none;fill-rule:nonzero;fill:#ffc513;fill-opacity:1;"
              d="M 330.539062 394.707031 L 339.140625 403.308594 L 330.539062 411.910156 L 321.9375 403.308594 Z M 330.539062 394.707031 "/>
        <path style=" stroke:none;fill-rule:nonzero;fill:#ffc513;fill-opacity:1;"
              d="M 330.539062 422.960938 L 339.140625 431.566406 L 330.539062 440.167969 L 321.9375 431.566406 Z M 330.539062 422.960938 "/>
        <path style=" stroke:none;fill-rule:nonzero;fill:#ffc513;fill-opacity:1;"
              d="M 330.539062 451.21875 L 339.140625 459.820312 L 330.539062 468.421875 L 321.9375 459.820312 Z M 330.539062 451.21875 "/>
        <path style=" stroke:none;fill-rule:nonzero;fill:#ffc513;fill-opacity:1;"
              d="M 330.539062 479.472656 L 339.144531 488.074219 L 330.539062 496.675781 L 321.9375 488.074219 Z M 330.539062 479.472656 "/>
        <path style=" stroke:none;fill-rule:nonzero;fill:#ffc513;fill-opacity:1;"
              d="M 330.535156 507.726562 L 339.136719 516.332031 L 330.535156 524.933594 L 321.933594 516.332031 Z M 330.535156 507.726562 "/>
        <path style=" stroke:none;fill-rule:nonzero;fill:#ffc513;fill-opacity:1;"
              d="M 330.535156 535.984375 L 339.136719 544.585938 L 330.535156 553.1875 L 321.933594 544.585938 Z M 330.535156 535.984375 "/>
        <path style=" stroke:none;fill-rule:nonzero;fill:#ffc513;fill-opacity:1;"
              d="M 330.542969 564.238281 L 339.144531 572.839844 L 330.542969 581.441406 L 321.9375 572.839844 Z M 330.542969 564.238281 "/>
        <path style=" stroke:none;fill-rule:nonzero;fill:#ffc513;fill-opacity:1;"
              d="M 330.542969 592.492188 L 339.144531 601.09375 L 330.542969 609.695312 L 321.941406 601.09375 Z M 330.542969 592.492188 "/>
        <path style=" stroke:none;fill-rule:nonzero;fill:#ffc513;fill-opacity:1;"
              d="M 330.539062 620.746094 L 339.140625 629.347656 L 330.539062 637.953125 L 321.933594 629.347656 Z M 330.539062 620.746094 "/>
        <path style=" stroke:none;fill-rule:nonzero;fill:#ffc513;fill-opacity:1;"
              d="M 330.539062 649.003906 L 339.140625 657.605469 L 330.539062 666.207031 L 321.9375 657.605469 Z M 330.539062 649.003906 "/>
        <path style=" stroke:none;fill-rule:nonzero;fill:#ffc513;fill-opacity:1;"
              d="M 358.792969 395.074219 L 367.03125 403.3125 L 358.792969 411.550781 L 350.554688 403.3125 Z M 358.792969 395.074219 "/>
        <path style=" stroke:none;fill-rule:nonzero;fill:#ffc513;fill-opacity:1;"
              d="M 358.792969 423.332031 L 367.03125 431.566406 L 358.792969 439.804688 L 350.558594 431.566406 Z M 358.792969 423.332031 "/>
        <path style=" stroke:none;fill-rule:nonzero;fill:#ffc513;fill-opacity:1;"
              d="M 358.796875 451.585938 L 367.03125 459.824219 L 358.796875 468.0625 L 350.558594 459.824219 Z M 358.796875 451.585938 "/>
        <path style=" stroke:none;fill-rule:nonzero;fill:#ffc513;fill-opacity:1;"
              d="M 358.789062 479.839844 L 367.027344 488.078125 L 358.789062 496.316406 L 350.554688 488.078125 Z M 358.789062 479.839844 "/>
        <path style=" stroke:none;fill-rule:nonzero;fill:#ffc513;fill-opacity:1;"
              d="M 358.789062 508.097656 L 367.027344 516.332031 L 358.789062 524.570312 L 350.554688 516.332031 Z M 358.789062 508.097656 "/>
        <path style=" stroke:none;fill-rule:nonzero;fill:#ffc513;fill-opacity:1;"
              d="M 358.792969 536.351562 L 367.03125 544.589844 L 358.792969 552.828125 L 350.554688 544.589844 Z M 358.792969 536.351562 "/>
        <path style=" stroke:none;fill-rule:nonzero;fill:#ffc513;fill-opacity:1;"
              d="M 358.792969 564.605469 L 367.03125 572.84375 L 358.792969 581.082031 L 350.554688 572.84375 Z M 358.792969 564.605469 "/>
        <path style=" stroke:none;fill-rule:nonzero;fill:#ffc513;fill-opacity:1;"
              d="M 358.792969 592.863281 L 367.03125 601.097656 L 358.792969 609.335938 L 350.554688 601.097656 Z M 358.792969 592.863281 "/>
        <path style=" stroke:none;fill-rule:nonzero;fill:#ffc513;fill-opacity:1;"
              d="M 358.789062 621.109375 L 367.027344 629.347656 L 358.789062 637.585938 L 350.550781 629.347656 Z M 358.789062 621.109375 "/>
        <path style=" stroke:none;fill-rule:nonzero;fill:#ffc513;fill-opacity:1;"
              d="M 358.789062 649.367188 L 367.027344 657.605469 L 358.789062 665.839844 L 350.550781 657.605469 Z M 358.789062 649.367188 "/>
        <path style=" stroke:none;fill-rule:nonzero;fill:#ffc513;fill-opacity:1;"
              d="M 387.046875 395.441406 L 394.921875 403.3125 L 387.046875 411.1875 L 379.175781 403.3125 Z M 387.046875 395.441406 "/>
        <path style=" stroke:none;fill-rule:nonzero;fill:#ffc513;fill-opacity:1;"
              d="M 387.050781 423.691406 L 394.921875 431.5625 L 387.050781 439.4375 L 379.175781 431.5625 Z M 387.050781 423.691406 "/>
        <path style=" stroke:none;fill-rule:nonzero;fill:#ffc513;fill-opacity:1;"
              d="M 387.042969 451.945312 L 394.917969 459.820312 L 387.042969 467.691406 L 379.171875 459.820312 Z M 387.042969 451.945312 "/>
        <path style=" stroke:none;fill-rule:nonzero;fill:#ffc513;fill-opacity:1;"
              d="M 387.046875 480.199219 L 394.917969 488.074219 L 387.046875 495.945312 L 379.171875 488.074219 Z M 387.046875 480.199219 "/>
        <path style=" stroke:none;fill-rule:nonzero;fill:#ffc513;fill-opacity:1;"
              d="M 387.046875 508.457031 L 394.917969 516.328125 L 387.046875 524.203125 L 379.171875 516.328125 Z M 387.046875 508.457031 "/>
        <path style=" stroke:none;fill-rule:nonzero;fill:#ffc513;fill-opacity:1;"
              d="M 387.050781 536.714844 L 394.921875 544.589844 L 387.050781 552.460938 L 379.179688 544.589844 Z M 387.050781 536.714844 "/>
        <path style=" stroke:none;fill-rule:nonzero;fill:#ffc513;fill-opacity:1;"
              d="M 387.050781 564.96875 L 394.925781 572.84375 L 387.050781 580.714844 L 379.179688 572.84375 Z M 387.050781 564.96875 "/>
        <path style=" stroke:none;fill-rule:nonzero;fill:#ffc513;fill-opacity:1;"
              d="M 387.046875 593.226562 L 394.917969 601.097656 L 387.046875 608.972656 L 379.175781 601.097656 Z M 387.046875 593.226562 "/>
        <path style=" stroke:none;fill-rule:nonzero;fill:#ffc513;fill-opacity:1;"
              d="M 387.046875 621.480469 L 394.921875 629.355469 L 387.046875 637.226562 L 379.175781 629.355469 Z M 387.046875 621.480469 "/>
        <path style=" stroke:none;fill-rule:nonzero;fill:#ffc513;fill-opacity:1;"
              d="M 387.046875 649.730469 L 394.921875 657.601562 L 387.046875 665.476562 L 379.175781 657.601562 Z M 387.046875 649.730469 "/>
        <path style=" stroke:none;fill-rule:nonzero;fill:#ffc513;fill-opacity:1;"
              d="M 510.0625 253.6875 L 515.761719 259.386719 L 510.0625 265.089844 L 504.363281 259.386719 Z M 510.0625 253.6875 "/>
        <path style=" stroke:none;fill-rule:nonzero;fill:#ffc513;fill-opacity:1;"
              d="M 510.066406 268.121094 L 515.765625 273.824219 L 510.066406 279.523438 L 504.367188 273.824219 Z M 510.066406 268.121094 "/>
        <path style=" stroke:none;fill-rule:nonzero;fill:#ffc513;fill-opacity:1;"
              d="M 510.066406 282.550781 L 515.765625 288.253906 L 510.066406 293.953125 L 504.363281 288.253906 Z M 510.066406 282.550781 "/>
        <path style=" stroke:none;fill-rule:nonzero;fill:#ffc513;fill-opacity:1;"
              d="M 510.0625 296.984375 L 515.761719 302.683594 L 510.0625 308.382812 L 504.363281 302.683594 Z M 510.0625 296.984375 "/>
        <path style=" stroke:none;fill-rule:nonzero;fill:#ffc513;fill-opacity:1;"
              d="M 510.066406 311.410156 L 515.765625 317.113281 L 510.066406 322.8125 L 504.367188 317.113281 Z M 510.066406 311.410156 "/>
        <path style=" stroke:none;fill-rule:nonzero;fill:#ffc513;fill-opacity:1;"
              d="M 510.066406 325.847656 L 515.765625 331.546875 L 510.066406 337.25 L 504.363281 331.546875 Z M 510.066406 325.847656 "/>
        <path style=" stroke:none;fill-rule:nonzero;fill:#ffc513;fill-opacity:1;"
              d="M 510.070312 340.277344 L 515.769531 345.976562 L 510.070312 351.679688 L 504.367188 345.976562 Z M 510.070312 340.277344 "/>
        <path style=" stroke:none;fill-rule:nonzero;fill:#ffc513;fill-opacity:1;"
              d="M 510.066406 354.707031 L 515.769531 360.40625 L 510.066406 366.109375 L 504.367188 360.40625 Z M 510.066406 354.707031 "/>
        <path style=" stroke:none;fill-rule:nonzero;fill:#ffc513;fill-opacity:1;"
              d="M 510.0625 369.132812 L 515.761719 374.832031 L 510.0625 380.535156 L 504.359375 374.832031 Z M 510.0625 369.132812 "/>
        <path style=" stroke:none;fill-rule:nonzero;fill:#ffc513;fill-opacity:1;"
              d="M 510.066406 383.566406 L 515.765625 389.269531 L 510.066406 394.96875 L 504.363281 389.269531 Z M 510.066406 383.566406 "/>
        <path style=" stroke:none;fill-rule:nonzero;fill:#ffc513;fill-opacity:1;"
              d="M 524.5 253.875 L 530.015625 259.386719 L 524.5 264.898438 L 518.988281 259.386719 Z M 524.5 253.875 "/>
        <path style=" stroke:none;fill-rule:nonzero;fill:#ffc513;fill-opacity:1;"
              d="M 524.5 268.304688 L 530.011719 273.816406 L 524.5 279.328125 L 518.988281 273.816406 Z M 524.5 268.304688 "/>
        <path style=" stroke:none;fill-rule:nonzero;fill:#ffc513;fill-opacity:1;"
              d="M 524.5 282.734375 L 530.011719 288.246094 L 524.5 293.757812 L 518.988281 288.246094 Z M 524.5 282.734375 "/>
        <path style=" stroke:none;fill-rule:nonzero;fill:#ffc513;fill-opacity:1;"
              d="M 524.503906 297.167969 L 530.015625 302.679688 L 524.503906 308.191406 L 518.992188 302.679688 Z M 524.503906 297.167969 "/>
        <path style=" stroke:none;fill-rule:nonzero;fill:#ffc513;fill-opacity:1;"
              d="M 524.5 311.597656 L 530.011719 317.109375 L 524.5 322.621094 L 518.988281 317.109375 Z M 524.5 311.597656 "/>
        <path style=" stroke:none;fill-rule:nonzero;fill:#ffc513;fill-opacity:1;"
              d="M 524.503906 326.027344 L 530.015625 331.539062 L 524.503906 337.050781 L 518.992188 331.539062 Z M 524.503906 326.027344 "/>
        <path style=" stroke:none;fill-rule:nonzero;fill:#ffc513;fill-opacity:1;"
              d="M 524.5 340.453125 L 530.011719 345.964844 L 524.5 351.476562 L 518.988281 345.964844 Z M 524.5 340.453125 "/>
        <path style=" stroke:none;fill-rule:nonzero;fill:#ffc513;fill-opacity:1;"
              d="M 524.496094 354.890625 L 530.007812 360.402344 L 524.496094 365.914062 L 518.984375 360.402344 Z M 524.496094 354.890625 "/>
        <path style=" stroke:none;fill-rule:nonzero;fill:#ffc513;fill-opacity:1;"
              d="M 524.5 369.320312 L 530.011719 374.832031 L 524.5 380.34375 L 518.988281 374.832031 Z M 524.5 369.320312 "/>
        <path style=" stroke:none;fill-rule:nonzero;fill:#ffc513;fill-opacity:1;"
              d="M 524.5 383.75 L 530.011719 389.261719 L 524.5 394.773438 L 518.988281 389.261719 Z M 524.5 383.75 "/>
        <path style=" stroke:none;fill-rule:nonzero;fill:#ffc513;fill-opacity:1;"
              d="M 538.929688 254.058594 L 544.257812 259.386719 L 538.929688 264.714844 L 533.605469 259.386719 Z M 538.929688 254.058594 "/>
        <path style=" stroke:none;fill-rule:nonzero;fill:#ffc513;fill-opacity:1;"
              d="M 538.929688 268.492188 L 544.257812 273.820312 L 538.929688 279.148438 L 533.601562 273.820312 Z M 538.929688 268.492188 "/>
        <path style=" stroke:none;fill-rule:nonzero;fill:#ffc513;fill-opacity:1;"
              d="M 538.933594 282.921875 L 544.261719 288.25 L 538.933594 293.578125 L 533.605469 288.25 Z M 538.933594 282.921875 "/>
        <path style=" stroke:none;fill-rule:nonzero;fill:#ffc513;fill-opacity:1;"
              d="M 538.933594 297.351562 L 544.257812 302.679688 L 538.933594 308.007812 L 533.605469 302.679688 Z M 538.933594 297.351562 "/>
        <path style=" stroke:none;fill-rule:nonzero;fill:#ffc513;fill-opacity:1;"
              d="M 538.925781 311.785156 L 544.253906 317.113281 L 538.925781 322.441406 L 533.597656 317.113281 Z M 538.925781 311.785156 "/>
        <path style=" stroke:none;fill-rule:nonzero;fill:#ffc513;fill-opacity:1;"
              d="M 538.929688 326.214844 L 544.257812 331.542969 L 538.929688 336.871094 L 533.601562 331.542969 Z M 538.929688 326.214844 "/>
        <path style=" stroke:none;fill-rule:nonzero;fill:#ffc513;fill-opacity:1;"
              d="M 538.929688 340.644531 L 544.257812 345.972656 L 538.929688 351.300781 L 533.601562 345.972656 Z M 538.929688 340.644531 "/>
        <path style=" stroke:none;fill-rule:nonzero;fill:#ffc513;fill-opacity:1;"
              d="M 538.933594 355.074219 L 544.261719 360.402344 L 538.933594 365.730469 L 533.605469 360.402344 Z M 538.933594 355.074219 "/>
        <path style=" stroke:none;fill-rule:nonzero;fill:#ffc513;fill-opacity:1;"
              d="M 538.929688 369.507812 L 544.257812 374.835938 L 538.929688 380.164062 L 533.601562 374.835938 Z M 538.929688 369.507812 "/>
        <path style=" stroke:none;fill-rule:nonzero;fill:#ffc513;fill-opacity:1;"
              d="M 538.929688 383.9375 L 544.257812 389.265625 L 538.929688 394.59375 L 533.601562 389.265625 Z M 538.929688 383.9375 "/>
        <path style=" stroke:none;fill-rule:nonzero;fill:#ffc513;fill-opacity:1;"
              d="M 553.363281 254.25 L 558.5 259.386719 L 553.363281 264.527344 L 548.222656 259.386719 Z M 553.363281 254.25 "/>
        <path style=" stroke:none;fill-rule:nonzero;fill:#ffc513;fill-opacity:1;"
              d="M 553.363281 268.679688 L 558.503906 273.816406 L 553.363281 278.957031 L 548.226562 273.816406 Z M 553.363281 268.679688 "/>
        <path style=" stroke:none;fill-rule:nonzero;fill:#ffc513;fill-opacity:1;"
              d="M 553.359375 283.109375 L 558.5 288.25 L 553.359375 293.386719 L 548.21875 288.25 Z M 553.359375 283.109375 "/>
        <path style=" stroke:none;fill-rule:nonzero;fill:#ffc513;fill-opacity:1;"
              d="M 553.359375 297.539062 L 558.496094 302.679688 L 553.359375 307.816406 L 548.21875 302.679688 Z M 553.359375 297.539062 "/>
        <path style=" stroke:none;fill-rule:nonzero;fill:#ffc513;fill-opacity:1;"
              d="M 553.363281 311.96875 L 558.5 317.109375 L 553.363281 322.246094 L 548.222656 317.109375 Z M 553.363281 311.96875 "/>
        <path style=" stroke:none;fill-rule:nonzero;fill:#ffc513;fill-opacity:1;"
              d="M 553.359375 326.398438 L 558.5 331.539062 L 553.359375 336.675781 L 548.222656 331.539062 Z M 553.359375 326.398438 "/>
        <path style=" stroke:none;fill-rule:nonzero;fill:#ffc513;fill-opacity:1;"
              d="M 553.359375 340.835938 L 558.496094 345.972656 L 553.359375 351.113281 L 548.21875 345.972656 Z M 553.359375 340.835938 "/>
        <path style=" stroke:none;fill-rule:nonzero;fill:#ffc513;fill-opacity:1;"
              d="M 553.363281 355.265625 L 558.5 360.402344 L 553.363281 365.542969 L 548.222656 360.402344 Z M 553.363281 355.265625 "/>
        <path style=" stroke:none;fill-rule:nonzero;fill:#ffc513;fill-opacity:1;"
              d="M 553.359375 369.695312 L 558.5 374.832031 L 553.359375 379.972656 L 548.222656 374.832031 Z M 553.359375 369.695312 "/>
        <path style=" stroke:none;fill-rule:nonzero;fill:#ffc513;fill-opacity:1;"
              d="M 553.363281 384.128906 L 558.503906 389.269531 L 553.363281 394.40625 L 548.226562 389.269531 Z M 553.363281 384.128906 "/>
        <path style=" stroke:none;fill-rule:nonzero;fill:#ffc513;fill-opacity:1;"
              d="M 567.785156 254.433594 L 572.742188 259.390625 L 567.785156 264.34375 L 562.832031 259.390625 Z M 567.785156 254.433594 "/>
        <path style=" stroke:none;fill-rule:nonzero;fill:#ffc513;fill-opacity:1;"
              d="M 567.789062 268.863281 L 572.746094 273.820312 L 567.789062 278.773438 L 562.835938 273.820312 Z M 567.789062 268.863281 "/>
        <path style=" stroke:none;fill-rule:nonzero;fill:#ffc513;fill-opacity:1;"
              d="M 567.789062 283.292969 L 572.742188 288.25 L 567.789062 293.203125 L 562.835938 288.25 Z M 567.789062 283.292969 "/>
        <path style=" stroke:none;fill-rule:nonzero;fill:#ffc513;fill-opacity:1;"
              d="M 567.792969 297.730469 L 572.75 302.683594 L 567.792969 307.640625 L 562.839844 302.683594 Z M 567.792969 297.730469 "/>
        <path style=" stroke:none;fill-rule:nonzero;fill:#ffc513;fill-opacity:1;"
              d="M 567.792969 312.160156 L 572.746094 317.113281 L 567.792969 322.070312 L 562.835938 317.113281 Z M 567.792969 312.160156 "/>
        <path style=" stroke:none;fill-rule:nonzero;fill:#ffc513;fill-opacity:1;"
              d="M 567.789062 326.589844 L 572.746094 331.542969 L 567.789062 336.5 L 562.835938 331.542969 Z M 567.789062 326.589844 "/>
        <path style=" stroke:none;fill-rule:nonzero;fill:#ffc513;fill-opacity:1;"
              d="M 567.792969 341.019531 L 572.75 345.972656 L 567.792969 350.925781 L 562.839844 345.972656 Z M 567.792969 341.019531 "/>
        <path style=" stroke:none;fill-rule:nonzero;fill:#ffc513;fill-opacity:1;"
              d="M 567.792969 355.453125 L 572.746094 360.410156 L 567.792969 365.363281 L 562.835938 360.410156 Z M 567.792969 355.453125 "/>
        <path style=" stroke:none;fill-rule:nonzero;fill:#ffc513;fill-opacity:1;"
              d="M 567.792969 369.878906 L 572.746094 374.835938 L 567.792969 379.789062 L 562.835938 374.835938 Z M 567.792969 369.878906 "/>
        <path style=" stroke:none;fill-rule:nonzero;fill:#ffc513;fill-opacity:1;"
              d="M 567.789062 384.308594 L 572.746094 389.265625 L 567.789062 394.21875 L 562.835938 389.265625 Z M 567.789062 384.308594 "/>
        <path style=" stroke:none;fill-rule:nonzero;fill:#ffc513;fill-opacity:1;"
              d="M 582.222656 254.621094 L 586.988281 259.386719 L 582.222656 264.152344 L 577.457031 259.386719 Z M 582.222656 254.621094 "/>
        <path style=" stroke:none;fill-rule:nonzero;fill:#ffc513;fill-opacity:1;"
              d="M 582.21875 269.054688 L 586.988281 273.820312 L 582.21875 278.585938 L 577.453125 273.820312 Z M 582.21875 269.054688 "/>
        <path style=" stroke:none;fill-rule:nonzero;fill:#ffc513;fill-opacity:1;"
              d="M 582.21875 283.484375 L 586.984375 288.25 L 582.21875 293.015625 L 577.453125 288.25 Z M 582.21875 283.484375 "/>
        <path style=" stroke:none;fill-rule:nonzero;fill:#ffc513;fill-opacity:1;"
              d="M 582.222656 297.914062 L 586.988281 302.679688 L 582.222656 307.445312 L 577.457031 302.679688 Z M 582.222656 297.914062 "/>
        <path style=" stroke:none;fill-rule:nonzero;fill:#ffc513;fill-opacity:1;"
              d="M 582.222656 312.34375 L 586.988281 317.109375 L 582.222656 321.875 L 577.453125 317.109375 Z M 582.222656 312.34375 "/>
        <path style=" stroke:none;fill-rule:nonzero;fill:#ffc513;fill-opacity:1;"
              d="M 582.226562 326.777344 L 586.992188 331.546875 L 582.226562 336.3125 L 577.460938 331.546875 Z M 582.226562 326.777344 "/>
        <path style=" stroke:none;fill-rule:nonzero;fill:#ffc513;fill-opacity:1;"
              d="M 582.21875 341.203125 L 586.984375 345.972656 L 582.21875 350.738281 L 577.453125 345.972656 Z M 582.21875 341.203125 "/>
        <path style=" stroke:none;fill-rule:nonzero;fill:#ffc513;fill-opacity:1;"
              d="M 582.21875 355.632812 L 586.984375 360.402344 L 582.21875 365.167969 L 577.449219 360.402344 Z M 582.21875 355.632812 "/>
        <path style=" stroke:none;fill-rule:nonzero;fill:#ffc513;fill-opacity:1;"
              d="M 582.222656 370.0625 L 586.988281 374.832031 L 582.222656 379.597656 L 577.457031 374.832031 Z M 582.222656 370.0625 "/>
        <path style=" stroke:none;fill-rule:nonzero;fill:#ffc513;fill-opacity:1;"
              d="M 582.21875 384.5 L 586.984375 389.265625 L 582.21875 394.03125 L 577.453125 389.265625 Z M 582.21875 384.5 "/>
        <path style=" stroke:none;fill-rule:nonzero;fill:#ffc513;fill-opacity:1;"
              d="M 596.652344 254.808594 L 601.234375 259.390625 L 596.652344 263.972656 L 592.070312 259.390625 Z M 596.652344 254.808594 "/>
        <path style=" stroke:none;fill-rule:nonzero;fill:#ffc513;fill-opacity:1;"
              d="M 596.648438 269.238281 L 601.230469 273.820312 L 596.648438 278.402344 L 592.066406 273.820312 Z M 596.648438 269.238281 "/>
        <path style=" stroke:none;fill-rule:nonzero;fill:#ffc513;fill-opacity:1;"
              d="M 596.652344 283.667969 L 601.234375 288.25 L 596.652344 292.832031 L 592.070312 288.25 Z M 596.652344 283.667969 "/>
        <path style=" stroke:none;fill-rule:nonzero;fill:#ffc513;fill-opacity:1;"
              d="M 596.652344 298.105469 L 601.234375 302.6875 L 596.652344 307.269531 L 592.070312 302.6875 Z M 596.652344 298.105469 "/>
        <path style=" stroke:none;fill-rule:nonzero;fill:#ffc513;fill-opacity:1;"
              d="M 596.648438 312.53125 L 601.230469 317.113281 L 596.648438 321.691406 L 592.066406 317.113281 Z M 596.648438 312.53125 "/>
        <path style=" stroke:none;fill-rule:nonzero;fill:#ffc513;fill-opacity:1;"
              d="M 596.652344 326.960938 L 601.230469 331.542969 L 596.652344 336.125 L 592.070312 331.542969 Z M 596.652344 326.960938 "/>
        <path style=" stroke:none;fill-rule:nonzero;fill:#ffc513;fill-opacity:1;"
              d="M 596.648438 341.394531 L 601.230469 345.976562 L 596.648438 350.558594 L 592.066406 345.976562 Z M 596.648438 341.394531 "/>
        <path style=" stroke:none;fill-rule:nonzero;fill:#ffc513;fill-opacity:1;"
              d="M 596.652344 355.824219 L 601.234375 360.40625 L 596.652344 364.988281 L 592.070312 360.40625 Z M 596.652344 355.824219 "/>
        <path style=" stroke:none;fill-rule:nonzero;fill:#ffc513;fill-opacity:1;"
              d="M 596.652344 370.253906 L 601.234375 374.835938 L 596.652344 379.417969 L 592.070312 374.835938 Z M 596.652344 370.253906 "/>
        <path style=" stroke:none;fill-rule:nonzero;fill:#ffc513;fill-opacity:1;"
              d="M 596.648438 384.683594 L 601.230469 389.265625 L 596.648438 393.847656 L 592.066406 389.265625 Z M 596.648438 384.683594 "/>
        <path style=" stroke:none;fill-rule:nonzero;fill:#ffc513;fill-opacity:1;"
              d="M 611.082031 255 L 615.476562 259.394531 L 611.082031 263.785156 L 606.6875 259.394531 Z M 611.082031 255 "/>
        <path style=" stroke:none;fill-rule:nonzero;fill:#ffc513;fill-opacity:1;"
              d="M 611.085938 269.429688 L 615.480469 273.824219 L 611.085938 278.214844 L 606.691406 273.824219 Z M 611.085938 269.429688 "/>
        <path style=" stroke:none;fill-rule:nonzero;fill:#ffc513;fill-opacity:1;"
              d="M 611.082031 283.855469 L 615.472656 288.25 L 611.078125 292.640625 L 606.6875 288.25 Z M 611.082031 283.855469 "/>
        <path style=" stroke:none;fill-rule:nonzero;fill:#ffc513;fill-opacity:1;"
              d="M 611.078125 298.285156 L 615.472656 302.679688 L 611.078125 307.070312 L 606.683594 302.679688 Z M 611.078125 298.285156 "/>
        <path style=" stroke:none;fill-rule:nonzero;fill:#ffc513;fill-opacity:1;"
              d="M 611.082031 312.71875 L 615.476562 317.113281 L 611.082031 321.507812 L 606.6875 317.113281 Z M 611.082031 312.71875 "/>
        <path style=" stroke:none;fill-rule:nonzero;fill:#ffc513;fill-opacity:1;"
              d="M 611.082031 327.148438 L 615.472656 331.542969 L 611.082031 335.9375 L 606.6875 331.542969 Z M 611.082031 327.148438 "/>
        <path style=" stroke:none;fill-rule:nonzero;fill:#ffc513;fill-opacity:1;"
              d="M 611.085938 341.578125 L 615.476562 345.972656 L 611.085938 350.367188 L 606.691406 345.972656 Z M 611.085938 341.578125 "/>
        <path style=" stroke:none;fill-rule:nonzero;fill:#ffc513;fill-opacity:1;"
              d="M 611.082031 356.007812 L 615.476562 360.402344 L 611.082031 364.796875 L 606.6875 360.402344 Z M 611.082031 356.007812 "/>
        <path style=" stroke:none;fill-rule:nonzero;fill:#ffc513;fill-opacity:1;"
              d="M 611.082031 370.445312 L 615.472656 374.839844 L 611.082031 379.230469 L 606.6875 374.839844 Z M 611.082031 370.445312 "/>
        <path style=" stroke:none;fill-rule:nonzero;fill:#ffc513;fill-opacity:1;"
              d="M 611.085938 384.875 L 615.476562 389.265625 L 611.085938 393.660156 L 606.691406 389.265625 Z M 611.085938 384.875 "/>
        <path style=" stroke:none;fill-rule:nonzero;fill:#ffc513;fill-opacity:1;"
              d="M 625.507812 255.179688 L 629.714844 259.390625 L 625.507812 263.597656 L 621.296875 259.390625 Z M 625.507812 255.179688 "/>
        <path style=" stroke:none;fill-rule:nonzero;fill:#ffc513;fill-opacity:1;"
              d="M 625.511719 269.609375 L 629.71875 273.820312 L 625.511719 278.027344 L 621.300781 273.820312 Z M 625.511719 269.609375 "/>
        <path style=" stroke:none;fill-rule:nonzero;fill:#ffc513;fill-opacity:1;"
              d="M 625.507812 284.046875 L 629.71875 288.253906 L 625.507812 292.464844 L 621.300781 288.253906 Z M 625.507812 284.046875 "/>
        <path style=" stroke:none;fill-rule:nonzero;fill:#ffc513;fill-opacity:1;"
              d="M 625.511719 298.476562 L 629.722656 302.683594 L 625.511719 306.890625 L 621.304688 302.683594 Z M 625.511719 298.476562 "/>
        <path style=" stroke:none;fill-rule:nonzero;fill:#ffc513;fill-opacity:1;"
              d="M 625.511719 312.90625 L 629.722656 317.113281 L 625.511719 321.324219 L 621.304688 317.113281 Z M 625.511719 312.90625 "/>
        <path style=" stroke:none;fill-rule:nonzero;fill:#ffc513;fill-opacity:1;"
              d="M 625.511719 327.335938 L 629.71875 331.542969 L 625.511719 335.75 L 621.300781 331.542969 Z M 625.511719 327.335938 "/>
        <path style=" stroke:none;fill-rule:nonzero;fill:#ffc513;fill-opacity:1;"
              d="M 625.515625 341.769531 L 629.722656 345.980469 L 625.515625 350.1875 L 621.304688 345.980469 Z M 625.515625 341.769531 "/>
        <path style=" stroke:none;fill-rule:nonzero;fill:#ffc513;fill-opacity:1;"
              d="M 625.511719 356.199219 L 629.722656 360.40625 L 625.511719 364.617188 L 621.304688 360.40625 Z M 625.511719 356.199219 "/>
        <path style=" stroke:none;fill-rule:nonzero;fill:#ffc513;fill-opacity:1;"
              d="M 625.511719 370.625 L 629.722656 374.832031 L 625.511719 379.042969 L 621.304688 374.832031 Z M 625.511719 370.625 "/>
        <path style=" stroke:none;fill-rule:nonzero;fill:#ffc513;fill-opacity:1;"
              d="M 625.511719 385.058594 L 629.71875 389.269531 L 625.511719 393.476562 L 621.300781 389.269531 Z M 625.511719 385.058594 "/>
        <g clip-rule="nonzero" clip-path="url(#59a1ff0802)">
            <path style=" stroke:none;fill-rule:nonzero;fill:#ffc513;fill-opacity:1;"
                  d="M 639.945312 255.367188 L 643.96875 259.386719 L 639.945312 263.40625 L 635.925781 259.386719 Z M 639.945312 255.367188 "/>
        </g>
        <g clip-rule="nonzero" clip-path="url(#053cf4d0b1)">
            <path style=" stroke:none;fill-rule:nonzero;fill:#ffc513;fill-opacity:1;"
                  d="M 639.945312 269.796875 L 643.964844 273.816406 L 639.945312 277.835938 L 635.925781 273.816406 Z M 639.945312 269.796875 "/>
        </g>
        <g clip-rule="nonzero" clip-path="url(#302642cfb0)">
            <path style=" stroke:none;fill-rule:nonzero;fill:#ffc513;fill-opacity:1;"
                  d="M 639.949219 284.226562 L 643.96875 288.246094 L 639.949219 292.265625 L 635.929688 288.246094 Z M 639.949219 284.226562 "/>
        </g>
        <g clip-rule="nonzero" clip-path="url(#2b520ac9a9)">
            <path style=" stroke:none;fill-rule:nonzero;fill:#ffc513;fill-opacity:1;"
                  d="M 639.949219 298.660156 L 643.96875 302.679688 L 639.949219 306.703125 L 635.925781 302.679688 Z M 639.949219 298.660156 "/>
        </g>
        <g clip-rule="nonzero" clip-path="url(#ce71b38619)">
            <path style=" stroke:none;fill-rule:nonzero;fill:#ffc513;fill-opacity:1;"
                  d="M 639.945312 313.089844 L 643.964844 317.109375 L 639.945312 321.132812 L 635.925781 317.109375 Z M 639.945312 313.089844 "/>
        </g>
        <g clip-rule="nonzero" clip-path="url(#edcc341106)">
            <path style=" stroke:none;fill-rule:nonzero;fill:#ffc513;fill-opacity:1;"
                  d="M 639.949219 327.519531 L 643.96875 331.539062 L 639.949219 335.5625 L 635.929688 331.539062 Z M 639.949219 327.519531 "/>
        </g>
        <g clip-rule="nonzero" clip-path="url(#8bdb7ae644)">
            <path style=" stroke:none;fill-rule:nonzero;fill:#ffc513;fill-opacity:1;"
                  d="M 639.945312 341.945312 L 643.964844 345.964844 L 639.945312 349.988281 L 635.921875 345.964844 Z M 639.945312 341.945312 "/>
        </g>
        <g clip-rule="nonzero" clip-path="url(#e499b925cb)">
            <path style=" stroke:none;fill-rule:nonzero;fill:#ffc513;fill-opacity:1;"
                  d="M 639.941406 356.382812 L 643.960938 360.402344 L 639.941406 364.421875 L 635.921875 360.402344 Z M 639.941406 356.382812 "/>
        </g>
        <g clip-rule="nonzero" clip-path="url(#c7758d65e5)">
            <path style=" stroke:none;fill-rule:nonzero;fill:#ffc513;fill-opacity:1;"
                  d="M 639.945312 370.8125 L 643.964844 374.832031 L 639.945312 378.851562 L 635.925781 374.832031 Z M 639.945312 370.8125 "/>
        </g>
        <g clip-rule="nonzero" clip-path="url(#1e3121e705)">
            <path style=" stroke:none;fill-rule:nonzero;fill:#ffc513;fill-opacity:1;"
                  d="M 639.945312 385.242188 L 643.964844 389.261719 L 639.945312 393.28125 L 635.921875 389.261719 Z M 639.945312 385.242188 "/>
        </g>
    </g>
</svg>