<svg xmlns="http://www.w3.org/2000/svg" xmlns:xlink="http://www.w3.org/1999/xlink" width="1080" zoomAndPan="magnify" viewBox="0 0 810 1012.49997" height="1350" preserveAspectRatio="xMidYMid meet" version="1.2"><defs><clipPath id="0d120ca4df"><path d="M 138.222656 352 L 496 352 L 496 711 L 138.222656 711 Z M 138.222656 352 "/></clipPath><clipPath id="63dfbcecfe"><path d="M 416 226.53125 L 577 226.53125 L 577 387 L 416 387 Z M 416 226.53125 "/></clipPath><clipPath id="4764c955fd"><path d="M 500 771 L 515 771 L 515 785.753906 L 500 785.753906 Z M 500 771 "/></clipPath><clipPath id="f25b4a0d4b"><path d="M 661 613 L 671.960938 613 L 671.960938 624 L 661 624 Z M 661 613 "/></clipPath></defs><g id="4ec1449156"><g clip-rule="nonzero" clip-path="url(#0d120ca4df)"><path style=" stroke:none;fill-rule:nonzero;fill:#f7a01c;fill-opacity:1;" d="M 317.019531 352.492188 L 495.804688 531.28125 L 317.019531 710.066406 L 138.230469 531.28125 Z M 317.019531 352.492188 "/></g><g clip-rule="nonzero" clip-path="url(#63dfbcecfe)"><path style=" stroke:none;fill-rule:nonzero;fill:#f7a01c;fill-opacity:1;" d="M 496.367188 226.53125 L 576.398438 306.5625 L 496.367188 386.589844 L 416.335938 306.5625 Z M 496.367188 226.53125 "/></g><path style=" stroke:none;fill-rule:nonzero;fill:#ff680e;fill-opacity:1;" d="M 340.71875 611.886719 L 354.71875 611.886719 L 354.71875 625.886719 L 340.71875 625.886719 Z M 340.71875 611.886719 "/><path style=" stroke:none;fill-rule:nonzero;fill:#ff680e;fill-opacity:1;" d="M 358.445312 629.617188 L 372.445312 629.617188 L 372.445312 643.617188 L 358.445312 643.617188 Z M 358.445312 629.617188 "/><path style=" stroke:none;fill-rule:nonzero;fill:#ff680e;fill-opacity:1;" d="M 376.175781 647.34375 L 390.175781 647.34375 L 390.175781 661.34375 L 376.175781 661.34375 Z M 376.175781 647.34375 "/><path style=" stroke:none;fill-rule:nonzero;fill:#ff680e;fill-opacity:1;" d="M 393.902344 665.070312 L 407.902344 665.070312 L 407.902344 679.070312 L 393.902344 679.070312 Z M 393.902344 665.070312 "/><path style=" stroke:none;fill-rule:nonzero;fill:#ff680e;fill-opacity:1;" d="M 411.632812 682.800781 L 425.636719 682.800781 L 425.636719 696.800781 L 411.632812 696.800781 Z M 411.632812 682.800781 "/><path style=" stroke:none;fill-rule:nonzero;fill:#ff680e;fill-opacity:1;" d="M 429.359375 700.527344 L 443.359375 700.527344 L 443.359375 714.527344 L 429.359375 714.527344 Z M 429.359375 700.527344 "/><path style=" stroke:none;fill-rule:nonzero;fill:#ff680e;fill-opacity:1;" d="M 447.085938 718.257812 L 461.085938 718.257812 L 461.085938 732.257812 L 447.085938 732.257812 Z M 447.085938 718.257812 "/><path style=" stroke:none;fill-rule:nonzero;fill:#ff680e;fill-opacity:1;" d="M 464.816406 735.984375 L 478.820312 735.984375 L 478.820312 749.984375 L 464.816406 749.984375 Z M 464.816406 735.984375 "/><path style=" stroke:none;fill-rule:nonzero;fill:#ff680e;fill-opacity:1;" d="M 482.542969 753.710938 L 496.542969 753.710938 L 496.542969 767.710938 L 482.542969 767.710938 Z M 482.542969 753.710938 "/><g clip-rule="nonzero" clip-path="url(#4764c955fd)"><path style=" stroke:none;fill-rule:nonzero;fill:#ff680e;fill-opacity:1;" d="M 500.277344 771.441406 L 514.277344 771.441406 L 514.277344 785.441406 L 500.277344 785.441406 Z M 500.277344 771.441406 "/></g><path style=" stroke:none;fill-rule:nonzero;fill:#ff680e;fill-opacity:1;" d="M 358.679688 594.386719 L 372.226562 594.386719 L 372.226562 607.933594 L 358.679688 607.933594 Z M 358.679688 594.386719 "/><path style=" stroke:none;fill-rule:nonzero;fill:#ff680e;fill-opacity:1;" d="M 376.402344 612.117188 L 389.949219 612.117188 L 389.949219 625.667969 L 376.402344 625.667969 Z M 376.402344 612.117188 "/><path style=" stroke:none;fill-rule:nonzero;fill:#ff680e;fill-opacity:1;" d="M 394.136719 629.84375 L 407.683594 629.84375 L 407.683594 643.390625 L 394.136719 643.390625 Z M 394.136719 629.84375 "/><path style=" stroke:none;fill-rule:nonzero;fill:#ff680e;fill-opacity:1;" d="M 411.859375 647.570312 L 425.410156 647.570312 L 425.410156 661.117188 L 411.859375 661.117188 Z M 411.859375 647.570312 "/><path style=" stroke:none;fill-rule:nonzero;fill:#ff680e;fill-opacity:1;" d="M 429.585938 665.300781 L 443.132812 665.300781 L 443.132812 678.847656 L 429.585938 678.847656 Z M 429.585938 665.300781 "/><path style=" stroke:none;fill-rule:nonzero;fill:#ff680e;fill-opacity:1;" d="M 447.320312 683.027344 L 460.867188 683.027344 L 460.867188 696.574219 L 447.320312 696.574219 Z M 447.320312 683.027344 "/><path style=" stroke:none;fill-rule:nonzero;fill:#ff680e;fill-opacity:1;" d="M 465.042969 700.761719 L 478.589844 700.761719 L 478.589844 714.308594 L 465.042969 714.308594 Z M 465.042969 700.761719 "/><path style=" stroke:none;fill-rule:nonzero;fill:#ff680e;fill-opacity:1;" d="M 482.777344 718.484375 L 496.324219 718.484375 L 496.324219 732.03125 L 482.777344 732.03125 Z M 482.777344 718.484375 "/><path style=" stroke:none;fill-rule:nonzero;fill:#ff680e;fill-opacity:1;" d="M 500.503906 736.210938 L 514.050781 736.210938 L 514.050781 749.757812 L 500.503906 749.757812 Z M 500.503906 736.210938 "/><path style=" stroke:none;fill-rule:nonzero;fill:#ff680e;fill-opacity:1;" d="M 518.226562 753.945312 L 531.773438 753.945312 L 531.773438 767.492188 L 518.226562 767.492188 Z M 518.226562 753.945312 "/><path style=" stroke:none;fill-rule:nonzero;fill:#ff680e;fill-opacity:1;" d="M 376.636719 576.886719 L 389.722656 576.886719 L 389.722656 589.976562 L 376.636719 589.976562 Z M 376.636719 576.886719 "/><path style=" stroke:none;fill-rule:nonzero;fill:#ff680e;fill-opacity:1;" d="M 394.363281 594.621094 L 407.449219 594.621094 L 407.449219 607.707031 L 394.363281 607.707031 Z M 394.363281 594.621094 "/><path style=" stroke:none;fill-rule:nonzero;fill:#ff680e;fill-opacity:1;" d="M 412.089844 612.347656 L 425.175781 612.347656 L 425.175781 625.433594 L 412.089844 625.433594 Z M 412.089844 612.347656 "/><path style=" stroke:none;fill-rule:nonzero;fill:#ff680e;fill-opacity:1;" d="M 429.820312 630.070312 L 442.90625 630.070312 L 442.90625 643.160156 L 429.820312 643.160156 Z M 429.820312 630.070312 "/><path style=" stroke:none;fill-rule:nonzero;fill:#ff680e;fill-opacity:1;" d="M 447.546875 647.804688 L 460.632812 647.804688 L 460.632812 660.890625 L 447.546875 660.890625 Z M 447.546875 647.804688 "/><path style=" stroke:none;fill-rule:nonzero;fill:#ff680e;fill-opacity:1;" d="M 465.277344 665.527344 L 478.363281 665.527344 L 478.363281 678.617188 L 465.277344 678.617188 Z M 465.277344 665.527344 "/><path style=" stroke:none;fill-rule:nonzero;fill:#ff680e;fill-opacity:1;" d="M 483.003906 683.261719 L 496.089844 683.261719 L 496.089844 696.347656 L 483.003906 696.347656 Z M 483.003906 683.261719 "/><path style=" stroke:none;fill-rule:nonzero;fill:#ff680e;fill-opacity:1;" d="M 500.730469 700.988281 L 513.816406 700.988281 L 513.816406 714.074219 L 500.730469 714.074219 Z M 500.730469 700.988281 "/><path style=" stroke:none;fill-rule:nonzero;fill:#ff680e;fill-opacity:1;" d="M 518.460938 718.710938 L 531.546875 718.710938 L 531.546875 731.800781 L 518.460938 731.800781 Z M 518.460938 718.710938 "/><path style=" stroke:none;fill-rule:nonzero;fill:#ff680e;fill-opacity:1;" d="M 536.1875 736.445312 L 549.273438 736.445312 L 549.273438 749.53125 L 536.1875 749.53125 Z M 536.1875 736.445312 "/><path style=" stroke:none;fill-rule:nonzero;fill:#ff680e;fill-opacity:1;" d="M 394.589844 559.390625 L 407.21875 559.390625 L 407.21875 572.015625 L 394.589844 572.015625 Z M 394.589844 559.390625 "/><path style=" stroke:none;fill-rule:nonzero;fill:#ff680e;fill-opacity:1;" d="M 412.320312 577.121094 L 424.949219 577.121094 L 424.949219 589.75 L 412.320312 589.75 Z M 412.320312 577.121094 "/><path style=" stroke:none;fill-rule:nonzero;fill:#ff680e;fill-opacity:1;" d="M 430.046875 594.847656 L 442.675781 594.847656 L 442.675781 607.476562 L 430.046875 607.476562 Z M 430.046875 594.847656 "/><path style=" stroke:none;fill-rule:nonzero;fill:#ff680e;fill-opacity:1;" d="M 447.777344 612.574219 L 460.40625 612.574219 L 460.40625 625.199219 L 447.777344 625.199219 Z M 447.777344 612.574219 "/><path style=" stroke:none;fill-rule:nonzero;fill:#ff680e;fill-opacity:1;" d="M 465.503906 630.304688 L 478.132812 630.304688 L 478.132812 642.933594 L 465.503906 642.933594 Z M 465.503906 630.304688 "/><path style=" stroke:none;fill-rule:nonzero;fill:#ff680e;fill-opacity:1;" d="M 483.230469 648.03125 L 495.859375 648.03125 L 495.859375 660.65625 L 483.230469 660.65625 Z M 483.230469 648.03125 "/><path style=" stroke:none;fill-rule:nonzero;fill:#ff680e;fill-opacity:1;" d="M 500.960938 665.761719 L 513.589844 665.761719 L 513.589844 678.390625 L 500.960938 678.390625 Z M 500.960938 665.761719 "/><path style=" stroke:none;fill-rule:nonzero;fill:#ff680e;fill-opacity:1;" d="M 518.6875 683.488281 L 531.316406 683.488281 L 531.316406 696.117188 L 518.6875 696.117188 Z M 518.6875 683.488281 "/><path style=" stroke:none;fill-rule:nonzero;fill:#ff680e;fill-opacity:1;" d="M 536.417969 701.214844 L 549.046875 701.214844 L 549.046875 713.839844 L 536.417969 713.839844 Z M 536.417969 701.214844 "/><path style=" stroke:none;fill-rule:nonzero;fill:#ff680e;fill-opacity:1;" d="M 554.144531 718.945312 L 566.773438 718.945312 L 566.773438 731.574219 L 554.144531 731.574219 Z M 554.144531 718.945312 "/><path style=" stroke:none;fill-rule:nonzero;fill:#ff680e;fill-opacity:1;" d="M 412.546875 541.890625 L 424.714844 541.890625 L 424.714844 554.058594 L 412.546875 554.058594 Z M 412.546875 541.890625 "/><path style=" stroke:none;fill-rule:nonzero;fill:#ff680e;fill-opacity:1;" d="M 430.28125 559.621094 L 442.449219 559.621094 L 442.449219 571.789062 L 430.28125 571.789062 Z M 430.28125 559.621094 "/><path style=" stroke:none;fill-rule:nonzero;fill:#ff680e;fill-opacity:1;" d="M 448.003906 577.347656 L 460.171875 577.347656 L 460.171875 589.515625 L 448.003906 589.515625 Z M 448.003906 577.347656 "/><path style=" stroke:none;fill-rule:nonzero;fill:#ff680e;fill-opacity:1;" d="M 465.730469 595.074219 L 477.898438 595.074219 L 477.898438 607.242188 L 465.730469 607.242188 Z M 465.730469 595.074219 "/><path style=" stroke:none;fill-rule:nonzero;fill:#ff680e;fill-opacity:1;" d="M 483.460938 612.804688 L 495.632812 612.804688 L 495.632812 624.972656 L 483.460938 624.972656 Z M 483.460938 612.804688 "/><path style=" stroke:none;fill-rule:nonzero;fill:#ff680e;fill-opacity:1;" d="M 501.1875 630.53125 L 513.355469 630.53125 L 513.355469 642.699219 L 501.1875 642.699219 Z M 501.1875 630.53125 "/><path style=" stroke:none;fill-rule:nonzero;fill:#ff680e;fill-opacity:1;" d="M 518.921875 648.261719 L 531.089844 648.261719 L 531.089844 660.429688 L 518.921875 660.429688 Z M 518.921875 648.261719 "/><path style=" stroke:none;fill-rule:nonzero;fill:#ff680e;fill-opacity:1;" d="M 536.644531 665.988281 L 548.816406 665.988281 L 548.816406 678.15625 L 536.644531 678.15625 Z M 536.644531 665.988281 "/><path style=" stroke:none;fill-rule:nonzero;fill:#ff680e;fill-opacity:1;" d="M 554.371094 683.714844 L 566.539062 683.714844 L 566.539062 695.882812 L 554.371094 695.882812 Z M 554.371094 683.714844 "/><path style=" stroke:none;fill-rule:nonzero;fill:#ff680e;fill-opacity:1;" d="M 572.105469 701.445312 L 584.273438 701.445312 L 584.273438 713.613281 L 572.105469 713.613281 Z M 572.105469 701.445312 "/><path style=" stroke:none;fill-rule:nonzero;fill:#ff680e;fill-opacity:1;" d="M 430.507812 524.390625 L 442.214844 524.390625 L 442.214844 536.101562 L 430.507812 536.101562 Z M 430.507812 524.390625 "/><path style=" stroke:none;fill-rule:nonzero;fill:#ff680e;fill-opacity:1;" d="M 448.230469 542.121094 L 459.941406 542.121094 L 459.941406 553.832031 L 448.230469 553.832031 Z M 448.230469 542.121094 "/><path style=" stroke:none;fill-rule:nonzero;fill:#ff680e;fill-opacity:1;" d="M 465.964844 559.847656 L 477.671875 559.847656 L 477.671875 571.558594 L 465.964844 571.558594 Z M 465.964844 559.847656 "/><path style=" stroke:none;fill-rule:nonzero;fill:#ff680e;fill-opacity:1;" d="M 483.6875 577.574219 L 495.398438 577.574219 L 495.398438 589.285156 L 483.6875 589.285156 Z M 483.6875 577.574219 "/><path style=" stroke:none;fill-rule:nonzero;fill:#ff680e;fill-opacity:1;" d="M 501.421875 595.304688 L 513.128906 595.304688 L 513.128906 607.015625 L 501.421875 607.015625 Z M 501.421875 595.304688 "/><path style=" stroke:none;fill-rule:nonzero;fill:#ff680e;fill-opacity:1;" d="M 519.148438 613.03125 L 530.855469 613.03125 L 530.855469 624.742188 L 519.148438 624.742188 Z M 519.148438 613.03125 "/><path style=" stroke:none;fill-rule:nonzero;fill:#ff680e;fill-opacity:1;" d="M 536.871094 630.765625 L 548.582031 630.765625 L 548.582031 642.472656 L 536.871094 642.472656 Z M 536.871094 630.765625 "/><path style=" stroke:none;fill-rule:nonzero;fill:#ff680e;fill-opacity:1;" d="M 554.605469 648.488281 L 566.3125 648.488281 L 566.3125 660.199219 L 554.605469 660.199219 Z M 554.605469 648.488281 "/><path style=" stroke:none;fill-rule:nonzero;fill:#ff680e;fill-opacity:1;" d="M 572.332031 666.214844 L 584.039062 666.214844 L 584.039062 677.925781 L 572.332031 677.925781 Z M 572.332031 666.214844 "/><path style=" stroke:none;fill-rule:nonzero;fill:#ff680e;fill-opacity:1;" d="M 590.0625 683.949219 L 601.769531 683.949219 L 601.769531 695.65625 L 590.0625 695.65625 Z M 590.0625 683.949219 "/><path style=" stroke:none;fill-rule:nonzero;fill:#ff680e;fill-opacity:1;" d="M 448.464844 506.890625 L 459.71875 506.890625 L 459.71875 518.148438 L 448.464844 518.148438 Z M 448.464844 506.890625 "/><path style=" stroke:none;fill-rule:nonzero;fill:#ff680e;fill-opacity:1;" d="M 466.191406 524.625 L 477.445312 524.625 L 477.445312 535.878906 L 466.191406 535.878906 Z M 466.191406 524.625 "/><path style=" stroke:none;fill-rule:nonzero;fill:#ff680e;fill-opacity:1;" d="M 483.921875 542.351562 L 495.179688 542.351562 L 495.179688 553.605469 L 483.921875 553.605469 Z M 483.921875 542.351562 "/><path style=" stroke:none;fill-rule:nonzero;fill:#ff680e;fill-opacity:1;" d="M 501.648438 560.074219 L 512.902344 560.074219 L 512.902344 571.332031 L 501.648438 571.332031 Z M 501.648438 560.074219 "/><path style=" stroke:none;fill-rule:nonzero;fill:#ff680e;fill-opacity:1;" d="M 519.375 577.808594 L 530.628906 577.808594 L 530.628906 589.0625 L 519.375 589.0625 Z M 519.375 577.808594 "/><path style=" stroke:none;fill-rule:nonzero;fill:#ff680e;fill-opacity:1;" d="M 537.105469 595.53125 L 548.359375 595.53125 L 548.359375 606.789062 L 537.105469 606.789062 Z M 537.105469 595.53125 "/><path style=" stroke:none;fill-rule:nonzero;fill:#ff680e;fill-opacity:1;" d="M 554.832031 613.265625 L 566.085938 613.265625 L 566.085938 624.519531 L 554.832031 624.519531 Z M 554.832031 613.265625 "/><path style=" stroke:none;fill-rule:nonzero;fill:#ff680e;fill-opacity:1;" d="M 572.5625 630.992188 L 583.820312 630.992188 L 583.820312 642.246094 L 572.5625 642.246094 Z M 572.5625 630.992188 "/><path style=" stroke:none;fill-rule:nonzero;fill:#ff680e;fill-opacity:1;" d="M 590.289062 648.714844 L 601.542969 648.714844 L 601.542969 659.972656 L 590.289062 659.972656 Z M 590.289062 648.714844 "/><path style=" stroke:none;fill-rule:nonzero;fill:#ff680e;fill-opacity:1;" d="M 608.015625 666.449219 L 619.269531 666.449219 L 619.269531 677.703125 L 608.015625 677.703125 Z M 608.015625 666.449219 "/><path style=" stroke:none;fill-rule:nonzero;fill:#ff680e;fill-opacity:1;" d="M 466.421875 489.394531 L 477.21875 489.394531 L 477.21875 500.1875 L 466.421875 500.1875 Z M 466.421875 489.394531 "/><path style=" stroke:none;fill-rule:nonzero;fill:#ff680e;fill-opacity:1;" d="M 484.148438 507.125 L 494.945312 507.125 L 494.945312 517.921875 L 484.148438 517.921875 Z M 484.148438 507.125 "/><path style=" stroke:none;fill-rule:nonzero;fill:#ff680e;fill-opacity:1;" d="M 501.875 524.851562 L 512.671875 524.851562 L 512.671875 535.648438 L 501.875 535.648438 Z M 501.875 524.851562 "/><path style=" stroke:none;fill-rule:nonzero;fill:#ff680e;fill-opacity:1;" d="M 519.605469 542.578125 L 530.402344 542.578125 L 530.402344 553.371094 L 519.605469 553.371094 Z M 519.605469 542.578125 "/><path style=" stroke:none;fill-rule:nonzero;fill:#ff680e;fill-opacity:1;" d="M 537.332031 560.308594 L 548.128906 560.308594 L 548.128906 571.105469 L 537.332031 571.105469 Z M 537.332031 560.308594 "/><path style=" stroke:none;fill-rule:nonzero;fill:#ff680e;fill-opacity:1;" d="M 555.0625 578.035156 L 565.859375 578.035156 L 565.859375 588.828125 L 555.0625 588.828125 Z M 555.0625 578.035156 "/><path style=" stroke:none;fill-rule:nonzero;fill:#ff680e;fill-opacity:1;" d="M 572.789062 595.765625 L 583.585938 595.765625 L 583.585938 606.5625 L 572.789062 606.5625 Z M 572.789062 595.765625 "/><path style=" stroke:none;fill-rule:nonzero;fill:#ff680e;fill-opacity:1;" d="M 590.515625 613.492188 L 601.3125 613.492188 L 601.3125 624.289062 L 590.515625 624.289062 Z M 590.515625 613.492188 "/><path style=" stroke:none;fill-rule:nonzero;fill:#ff680e;fill-opacity:1;" d="M 608.246094 631.21875 L 619.042969 631.21875 L 619.042969 642.011719 L 608.246094 642.011719 Z M 608.246094 631.21875 "/><path style=" stroke:none;fill-rule:nonzero;fill:#ff680e;fill-opacity:1;" d="M 625.972656 648.949219 L 636.769531 648.949219 L 636.769531 659.746094 L 625.972656 659.746094 Z M 625.972656 648.949219 "/><path style=" stroke:none;fill-rule:nonzero;fill:#ff680e;fill-opacity:1;" d="M 484.375 471.894531 L 494.710938 471.894531 L 494.710938 482.230469 L 484.375 482.230469 Z M 484.375 471.894531 "/><path style=" stroke:none;fill-rule:nonzero;fill:#ff680e;fill-opacity:1;" d="M 502.109375 489.625 L 512.445312 489.625 L 512.445312 499.960938 L 502.109375 499.960938 Z M 502.109375 489.625 "/><path style=" stroke:none;fill-rule:nonzero;fill:#ff680e;fill-opacity:1;" d="M 519.832031 507.351562 L 530.167969 507.351562 L 530.167969 517.6875 L 519.832031 517.6875 Z M 519.832031 507.351562 "/><path style=" stroke:none;fill-rule:nonzero;fill:#ff680e;fill-opacity:1;" d="M 537.566406 525.078125 L 547.902344 525.078125 L 547.902344 535.414062 L 537.566406 535.414062 Z M 537.566406 525.078125 "/><path style=" stroke:none;fill-rule:nonzero;fill:#ff680e;fill-opacity:1;" d="M 555.289062 542.808594 L 565.628906 542.808594 L 565.628906 553.144531 L 555.289062 553.144531 Z M 555.289062 542.808594 "/><path style=" stroke:none;fill-rule:nonzero;fill:#ff680e;fill-opacity:1;" d="M 573.015625 560.535156 L 583.351562 560.535156 L 583.351562 570.871094 L 573.015625 570.871094 Z M 573.015625 560.535156 "/><path style=" stroke:none;fill-rule:nonzero;fill:#ff680e;fill-opacity:1;" d="M 590.75 578.265625 L 601.085938 578.265625 L 601.085938 588.601562 L 590.75 588.601562 Z M 590.75 578.265625 "/><path style=" stroke:none;fill-rule:nonzero;fill:#ff680e;fill-opacity:1;" d="M 608.472656 595.992188 L 618.8125 595.992188 L 618.8125 606.328125 L 608.472656 606.328125 Z M 608.472656 595.992188 "/><path style=" stroke:none;fill-rule:nonzero;fill:#ff680e;fill-opacity:1;" d="M 626.207031 613.71875 L 636.542969 613.71875 L 636.542969 624.054688 L 626.207031 624.054688 Z M 626.207031 613.71875 "/><path style=" stroke:none;fill-rule:nonzero;fill:#ff680e;fill-opacity:1;" d="M 643.933594 631.449219 L 654.269531 631.449219 L 654.269531 641.785156 L 643.933594 641.785156 Z M 643.933594 631.449219 "/><path style=" stroke:none;fill-rule:nonzero;fill:#ff680e;fill-opacity:1;" d="M 502.335938 454.394531 L 512.210938 454.394531 L 512.210938 464.273438 L 502.335938 464.273438 Z M 502.335938 454.394531 "/><path style=" stroke:none;fill-rule:nonzero;fill:#ff680e;fill-opacity:1;" d="M 520.066406 472.125 L 529.941406 472.125 L 529.941406 482.003906 L 520.066406 482.003906 Z M 520.066406 472.125 "/><path style=" stroke:none;fill-rule:nonzero;fill:#ff680e;fill-opacity:1;" d="M 537.792969 489.851562 L 547.667969 489.851562 L 547.667969 499.730469 L 537.792969 499.730469 Z M 537.792969 489.851562 "/><path style=" stroke:none;fill-rule:nonzero;fill:#ff680e;fill-opacity:1;" d="M 555.515625 507.578125 L 565.394531 507.578125 L 565.394531 517.457031 L 555.515625 517.457031 Z M 555.515625 507.578125 "/><path style=" stroke:none;fill-rule:nonzero;fill:#ff680e;fill-opacity:1;" d="M 573.25 525.308594 L 583.125 525.308594 L 583.125 535.1875 L 573.25 535.1875 Z M 573.25 525.308594 "/><path style=" stroke:none;fill-rule:nonzero;fill:#ff680e;fill-opacity:1;" d="M 590.976562 543.035156 L 600.851562 543.035156 L 600.851562 552.914062 L 590.976562 552.914062 Z M 590.976562 543.035156 "/><path style=" stroke:none;fill-rule:nonzero;fill:#ff680e;fill-opacity:1;" d="M 608.707031 560.769531 L 618.582031 560.769531 L 618.582031 570.644531 L 608.707031 570.644531 Z M 608.707031 560.769531 "/><path style=" stroke:none;fill-rule:nonzero;fill:#ff680e;fill-opacity:1;" d="M 626.433594 578.492188 L 636.308594 578.492188 L 636.308594 588.371094 L 626.433594 588.371094 Z M 626.433594 578.492188 "/><path style=" stroke:none;fill-rule:nonzero;fill:#ff680e;fill-opacity:1;" d="M 644.160156 596.21875 L 654.035156 596.21875 L 654.035156 606.097656 L 644.160156 606.097656 Z M 644.160156 596.21875 "/><g clip-rule="nonzero" clip-path="url(#f25b4a0d4b)"><path style=" stroke:none;fill-rule:nonzero;fill:#ff680e;fill-opacity:1;" d="M 661.890625 613.949219 L 671.765625 613.949219 L 671.765625 623.828125 L 661.890625 623.828125 Z M 661.890625 613.949219 "/></g></g></svg>