<svg xmlns="http://www.w3.org/2000/svg" width="1080" height="1350" version="1.2" viewBox="0 0 810 1012.5">
    <defs>
        <clipPath id="a">
            <path d="M138.2 352H496v359H138.2Zm0 0"/>
        </clipPath>
        <clipPath id="b">
            <path d="M416 226.5h161V387H416Zm0 0"/>
        </clipPath>
        <clipPath id="c">
            <path d="M500 771h15v14.8h-15Zm0 0"/>
        </clipPath>
        <clipPath id="d">
            <path d="M661 613h11v11h-11Zm0 0"/>
        </clipPath>
    </defs>
    <g clip-path="url(#a)">
        <path d="m317 352.5 178.8 178.8L317 710 138.2 531.3Zm0 0"
              style="stroke:none;fill-rule:nonzero;fill:#f7a01c;fill-opacity:1"/>
    </g>
    <g clip-path="url(#b)">
        <path d="m496.4 226.5 80 80-80 80-80-80Zm0 0"
              style="stroke:none;fill-rule:nonzero;fill:#f7a01c;fill-opacity:1"/>
    </g>
    <path d="M340.7 611.9h14v14h-14Zm17.7 17.7h14v14h-14Zm17.8 17.7h14v14h-14Zm17.7 17.7h14v14h-14Zm17.7 17.8h14v14h-14Zm17.8 17.7h14v14h-14Zm17.6 17.8h14v14h-14Zm17.8 17.7h14v14h-14Zm17.7 17.7h14v14h-14Zm0 0"
          style="stroke:none;fill-rule:nonzero;fill:#ff680e;fill-opacity:1"/>
    <g clip-path="url(#c)">
        <path d="M500.3 771.4h14v14h-14Zm0 0" style="stroke:none;fill-rule:nonzero;fill:#ff680e;fill-opacity:1"/>
    </g>
    <path d="M358.7 594.4h13.5v13.5h-13.5Zm17.7 17.7h13.5v13.6h-13.5Zm17.7 17.7h13.6v13.6H394Zm17.8 17.8h13.5V661H412Zm17.7 17.7H443v13.5h-13.5Zm17.7 17.7H461v13.6h-13.6Zm17.7 17.8h13.6v13.5H465Zm17.8 17.7h13.5V732h-13.5Zm17.7 17.7h13.6v13.6h-13.6Zm17.7 17.8h13.6v13.5h-13.6ZM376.6 576.9h13.1v13h-13Zm17.8 17.7h13v13.1h-13Zm17.6 17.7h13.2v13.1H412Zm17.8 17.7H443v13.2h-13Zm17.7 17.8h13.1v13h-13Zm17.8 17.7h13v13.1h-13Zm17.7 17.8h13v13h-13Zm17.7 17.7h13.1v13h-13Zm17.8 17.7h13v13.1h-13Zm17.7 17.7h13v13.1h-13Zm-141.6-177h12.6V572h-12.6Zm17.7 17.7H425v12.6h-12.6Zm17.7 17.7h12.7v12.7H430Zm17.8 17.8h12.6v12.6h-12.6Zm17.7 17.7h12.6v12.6h-12.6Zm17.7 17.7H496v12.7h-12.7Zm17.8 17.8h12.6v12.6H501Zm17.7 17.7h12.6V696h-12.6Zm17.7 17.7H549v12.6h-12.6Zm17.7 17.8h12.7v12.6H554ZM412.5 541.9h12.2V554h-12.2Zm17.8 17.7h12.1v12.2h-12.1Zm17.7 17.7h12.2v12.2H448Zm17.7 17.7H478v12.2h-12.2Zm17.8 17.8h12.1V625h-12.1Zm17.7 17.7h12.2v12.2h-12.2Zm17.8 17.8h12v12.1h-12Zm17.6 17.7h12.2v12.2h-12.2Zm17.8 17.7h12.1V696h-12.1Zm17.7 17.7h12.2v12.2H572Zm-141.6-177h11.7V536h-11.7Zm17.7 17.7H460v11.7h-11.7Zm17.8 17.7h11.7v11.8H466Zm17.7 17.8h11.7v11.7h-11.7Zm17.7 17.7h11.7V607h-11.7Zm17.7 17.7H531v11.7h-12Zm17.8 17.8h11.7v11.7h-11.7Zm17.7 17.7h11.7v11.7h-11.7Zm17.7 17.7H584V678h-11.7ZM590 684h11.8v11.7H590ZM448.5 506.9h11.2V518h-11.2Zm17.7 17.7h11.2V536h-11.2Zm17.8 17.8h11.2v11.2h-11.3Zm17.6 17.6H513v11.3h-11.3Zm17.8 17.8h11.2v11.3h-11.2Zm17.7 17.7h11.3v11.3H537Zm17.7 17.8h11.3v11.2h-11.3Zm17.8 17.7h11.2v11.2h-11.2Zm17.7 17.7h11.2V660h-11.2Zm17.7 17.7h11.3v11.3H608Zm-141.6-177h10.8v10.8h-10.8Zm17.7 17.7H495V518h-10.8Zm17.8 17.8h10.8v10.7h-10.8Zm17.7 17.7h10.8v10.8h-10.8Zm17.7 17.7h10.8v10.8h-10.8ZM555 578h11v10.8h-11Zm17.8 17.8h10.8v10.8h-10.8Zm17.7 17.7h10.8v10.8h-10.8Zm17.7 17.7H619V642h-10.8ZM626 649h10.8v10.7H626ZM484.4 471.9h10.3v10.3h-10.3Zm17.7 17.7h10.3V500h-10.3Zm17.7 17.8h10.4v10.3h-10.4Zm17.8 17.6h10.3v10.4h-10.3Zm17.7 17.8h10.3v10.3h-10.3Zm17.7 17.7h10.4V571H573Zm17.8 17.8H601v10.3h-10.4Zm17.7 17.7h10.3v10.3h-10.3Zm17.7 17.7h10.3v10.4h-10.3Zm17.8 17.7h10.3v10.4h-10.4Zm-141.7-177h10v9.9h-10Zm17.7 17.7h10v9.9h-10Zm17.8 17.8h9.9v9.8h-10Zm17.7 17.7h9.9v9.9h-9.9Zm17.8 17.7h9.8v9.9h-9.9ZM591 543h9.9v10h-10Zm17.7 17.8h9.9v9.8h-9.9Zm17.7 17.7h10v9.9h-10Zm17.8 17.7h9.8v9.9h-9.8Zm0 0"
          style="stroke:none;fill-rule:nonzero;fill:#ff680e;fill-opacity:1"/>
    <g clip-path="url(#d)">
        <path d="M661.9 614h9.9v9.8h-10Zm0 0" style="stroke:none;fill-rule:nonzero;fill:#ff680e;fill-opacity:1"/>
    </g>
</svg>