<svg xmlns="http://www.w3.org/2000/svg" version="1.2" viewBox="178 142 454 730">
    <defs>
        <clipPath id="a">
            <path d="M228 288h294v389H228Zm0 0"/>
        </clipPath>
        <clipPath id="b">
            <path d="M336 144h294v535H336Zm0 0"/>
        </clipPath>
        <clipPath id="e">
            <path d="M0 1h294v535H0Zm0 0"/>
        </clipPath>
        <clipPath id="d">
            <path d="M0 0h295v536H0z"/>
        </clipPath>
        <clipPath id="g">
            <path d="M180 541h270v271H180Zm0 0"/>
        </clipPath>
        <clipPath id="h">
            <path d="M389 446h122v122H389Zm0 0"/>
        </clipPath>
        <clipPath id="i">
            <path d="M574 738h8v9h-8Zm0 0"/>
        </clipPath>
        <filter id="f" width="100%" height="100%" x="0%" y="0%" filterUnits="objectBoundingBox">
            <feColorMatrix in="SourceGraphic" values="0 0 0 0 1 0 0 0 0 1 0 0 0 0 1 0 0 0 1 0"/>
        </filter>
    </defs>
    <g clip-path="url(#a)">
        <path d="M522 436v241h-75V451a72 72 0 0 0-72-72c-40 0-72 32-72 72v226h-75V436a147 147 0 1 1 294 0Zm0 0"
              style="stroke:none;fill-rule:nonzero;fill:#ff791a;fill-opacity:1"/>
    </g>
    <g clip-path="url(#b)">
        <g mask="url(#c)" transform="translate(336 143)">
            <g clip-path="url(#d)">
                <g clip-path="url(#e)">
                    <path d="M294 148v388h-75V163a72 72 0 0 0-72-72c-40 0-72 32-72 72v373H0V148a147 147 0 1 1 294 0Zm0 0"
                          style="stroke:none;fill-rule:nonzero;fill:#fff;fill-opacity:1"/>
                </g>
            </g>
            <mask id="c">
                <g filter="url(#f)">
                    <path d="M0 0h810v1013H0z" style="fill:#000;fill-opacity:.5;stroke:none"/>
                </g>
            </mask>
        </g>
    </g>
    <g clip-path="url(#g)">
        <path d="m314 541 135 135-135 135-134-135Zm0 0"
              style="stroke:none;fill-rule:nonzero;fill:#ffc800;fill-opacity:1"/>
    </g>
    <g clip-path="url(#h)">
        <path d="m450 446 60 61-60 60-61-60Zm0 0" style="stroke:none;fill-rule:nonzero;fill:#ffc800;fill-opacity:1"/>
    </g>
    <path d="M332 737h11v11h-11Zm14 13h10v11h-10Zm13 14h11v10h-11Zm13 13h11v11h-11Zm14 14h10v10h-10Zm13 13h11v10h-11Zm14 13h10v11h-10Zm13 14h11v10h-11Zm13 13h11v11h-11Zm14 13h10v11h-10ZM346 724h10v10h-10Zm13 13h10v10h-10Zm14 14h10v10h-10Zm13 13h10v10h-10Zm13 13h11v11h-11Zm14 14h10v10h-10Zm13 13h10v10h-10Zm14 13h10v11h-10Zm13 14h10v10h-10Zm13 13h10v10h-10ZM359 711h10v9h-10Zm14 13h10v10h-10Zm13 13h10v10h-10Zm14 14h9v10h-9Zm13 13h10v10h-10Zm13 13h10v10h-10Zm14 14h10v10h-10Zm13 13h10v10h-10Zm13 14h10v9h-10Zm14 13h10v10h-10ZM373 697h10v10h-10Zm13 14h10v9h-10Zm14 13h9v10h-9Zm13 14h10v9h-10Zm13 13h10v9h-10Zm14 13h9v10h-9Zm13 14h10v9h-10Zm14 13h9v10h-9Zm13 13h10v10h-10Zm13 14h10v9h-10ZM387 684h9v9h-9Zm13 14h9v9h-9Zm13 13h9v9h-9Zm14 13h9v10h-9Zm13 14h9v9h-9Zm13 13h10v9h-10Zm14 13h9v10h-9Zm13 14h9v9h-9Zm14 13h9v9h-9Zm13 14h9v9h-9ZM400 671h9v9h-9Zm13 13h9v9h-9Zm14 14h9v9h-9Zm13 13h9v9h-9Zm14 14h8v8h-8Zm13 13h9v9h-9Zm13 13h9v9h-9Zm14 14h9v8h-9Zm13 13h9v9h-9Zm13 13h9v9h-9ZM414 658h8v8h-8Zm13 13h8v9h-8Zm13 14h9v8h-9Zm14 13h8v8h-8Zm13 13h9v9h-9Zm14 14h8v8h-8Zm13 13h8v9h-8Zm13 13h9v9h-9Zm14 14h8v8h-8Zm13 13h9v9h-9ZM427 645h8v8h-8Zm14 13h8v8h-8Zm13 13h8v9h-8Zm13 14h8v8h-8Zm14 13h8v8h-8Zm13 13h8v9h-8Zm13 14h9v8h-9Zm14 13h8v8h-8Zm13 14h8v8h-8Zm14 13h8v8h-8ZM441 631h8v8h-8Zm13 14h8v8h-8Zm13 13h8v8h-8Zm14 14h8v7h-8Zm13 13h8v8h-8Zm14 13h7v8h-7Zm13 14h8v7h-8Zm13 13h8v8h-8Zm14 13h8v8h-8Zm13 14h8v8h-8ZM454 618h8v8h-8Zm14 14h7v7h-7Zm13 13h7v7h-7Zm13 13h8v8h-8Zm14 14h7v7h-7Zm13 13h8v8h-8Zm14 13h7v8h-7Zm13 14h7v7h-7Zm13 13h8v8h-8Zm0 0"
          style="stroke:none;fill-rule:nonzero;fill:#fff;fill-opacity:1"/>
    <g clip-path="url(#i)">
        <path d="M575 739h7v7h-7Zm0 0" style="stroke:none;fill-rule:nonzero;fill:#fff;fill-opacity:1"/>
    </g>
</svg>