<svg xmlns="http://www.w3.org/2000/svg" viewBox="30 370 750 278" version="1.2">
    <defs>
        <clipPath id="clipPath1">
            <path d="M30 448h750v199.77H30z"/>
        </clipPath>
    </defs>
    <g id="graphicsGroup">
        <g clip-rule="nonzero" clip-path="url(#clipPath1)">
            <path style="fill:#ffc800;fill-rule:nonzero;stroke:none;fill-opacity:1"
                d="M779.83 501.77V647.57H30.06V448.74c43.11 54.69 135.1 138.77 259.67 124.61 122.88-10.84 246.6-100.81 380.83-88.81 42.65 3.81 78.35 9.24 109.27 17.23z"/>
        </g>
        <path style="fill:#cc5500;fill-rule:nonzero;stroke:none;fill-opacity:1"
            d="M220.65 594c0 0-108.13 21.98-190.59-28.71v-67.15c30.38 32.83 95.9 89.5 190.59 95.87z"/>
        <path style="fill:#cc5500;fill-rule:nonzero;stroke:none;fill-opacity:1"
            d="M779.83 381.87l.11.02v85.69c-41.52-9.85-83.61-15.36-126.21-16.54-129.35-3.57-237.83 82.16-363.9 96.47-13.49 1.54-26.97 1.88-40.55.99-13.55-.89-26.91-2.98-40.07-6.27 58.8 5.19 117.59-21.55 169.54-46 54.16-25.49 102.86-61.1 157.13-86.4 75.87-35.36 162.17-45.37 244.95-27.97z"/>
        <path style="fill:#ff791a;fill-rule:nonzero;stroke:none;fill-opacity:1"
            d="M779.83 501.77v44.59c-24.39-7.08-51.81-13.13-83.12-18.6-132.74-23.23-263.57 56.04-387 56.52-14.01.43-27.94-.37-41.77-2.35-13.87-1.99-27.45-5.17-40.77-9.52 20.82 3.04 41.68 3.36 62.57.96 122.88-10.84 246.6-100.81 380.83-88.81 42.65 3.81 78.35 9.24 109.27 17.23z"/>
    </g>
</svg>
